<svg width="650" height="291" viewBox="0 0 650 291" fill="none" xmlns="http://www.w3.org/2000/svg">
<line x1="26.0308" y1="0.754028" x2="26.0307" y2="265.311" stroke="#F0F3F8"/>
<line x1="54.4565" y1="0.754028" x2="54.4565" y2="265.311" stroke="#F0F3F8"/>
<line x1="82.8818" y1="0.754028" x2="82.8818" y2="265.311" stroke="#F0F3F8"/>
<line x1="111.308" y1="0.754028" x2="111.308" y2="265.311" stroke="#F0F3F8"/>
<line x1="139.733" y1="0.754028" x2="139.733" y2="265.311" stroke="#F0F3F8"/>
<line x1="168.159" y1="0.754028" x2="168.159" y2="265.311" stroke="#F0F3F8"/>
<line x1="196.584" y1="0.754028" x2="196.584" y2="265.311" stroke="#F0F3F8"/>
<line x1="225.01" y1="0.754028" x2="225.01" y2="265.311" stroke="#F0F3F8"/>
<line x1="253.436" y1="0.754028" x2="253.436" y2="265.311" stroke="#F0F3F8"/>
<line x1="281.861" y1="0.754028" x2="281.861" y2="265.311" stroke="#F0F3F8"/>
<line x1="310.287" y1="0.754028" x2="310.287" y2="265.311" stroke="#F0F3F8"/>
<line x1="338.713" y1="0.754028" x2="338.713" y2="265.311" stroke="#F0F3F8"/>
<line x1="367.139" y1="0.754028" x2="367.139" y2="265.311" stroke="#F0F3F8"/>
<line x1="395.564" y1="0.754028" x2="395.564" y2="265.311" stroke="#F0F3F8"/>
<line x1="423.99" y1="0.754028" x2="423.99" y2="265.311" stroke="#F0F3F8"/>
<line x1="452.416" y1="0.754028" x2="452.416" y2="265.311" stroke="#F0F3F8"/>
<line x1="480.841" y1="0.754028" x2="480.841" y2="265.311" stroke="#F0F3F8"/>
<line x1="509.267" y1="0.754028" x2="509.267" y2="265.311" stroke="#F0F3F8"/>
<line x1="537.692" y1="0.754028" x2="537.692" y2="265.311" stroke="#F0F3F8"/>
<line x1="566.118" y1="0.754028" x2="566.118" y2="265.311" stroke="#F0F3F8"/>
<line x1="594.544" y1="0.754028" x2="594.544" y2="265.311" stroke="#F0F3F8"/>
<line x1="622.97" y1="0.754028" x2="622.97" y2="265.311" stroke="#F0F3F8"/>
<line x1="649.5" y1="0.754028" x2="649.5" y2="265.311" stroke="#F0F3F8"/>
<line x1="649" y1="0.614319" x2="18" y2="0.614278" stroke="#F0F3F8"/>
<line x1="649" y1="24.0219" x2="18" y2="24.0218" stroke="#F0F3F8"/>
<line x1="649" y1="47.4293" x2="18" y2="47.4293" stroke="#F0F3F8"/>
<line x1="649" y1="70.8369" x2="18" y2="70.8369" stroke="#F0F3F8"/>
<line x1="649" y1="94.2444" x2="18" y2="94.2444" stroke="#F0F3F8"/>
<line x1="649" y1="117.652" x2="18" y2="117.652" stroke="#F0F3F8"/>
<line x1="649" y1="141.06" x2="18" y2="141.06" stroke="#F0F3F8"/>
<line x1="649" y1="164.467" x2="18" y2="164.467" stroke="#F0F3F8"/>
<line x1="649" y1="187.875" x2="18" y2="187.874" stroke="#F0F3F8"/>
<line x1="649" y1="211.282" x2="18" y2="211.282" stroke="#F0F3F8"/>
<line x1="649" y1="234.69" x2="18" y2="234.69" stroke="#F0F3F8"/>
<line x1="649" y1="258.097" x2="18" y2="258.097" stroke="#F0F3F8"/>
<rect x="31.4312" y="136.332" width="1.37448" height="13.0834" fill="#06CD9D"/>
<rect x="28.6821" y="149.415" width="6.87238" height="57.8076" fill="#06CD9D"/>
<rect x="31.4312" y="207.223" width="1.37448" height="12.9637" fill="#06CD9D"/>
<rect x="222.244" y="62.0956" width="1.37448" height="5.63468" fill="#06CD9D"/>
<rect x="219.495" y="67.7303" width="6.87238" height="110.854" fill="#06CD9D"/>
<rect x="222.244" y="178.585" width="1.37448" height="3.99893" fill="#06CD9D"/>
<rect x="476.661" y="56.5688" width="1.37448" height="5.63468" fill="#06CD9D"/>
<rect x="473.912" y="62.2035" width="6.87238" height="110.854" fill="#06CD9D"/>
<rect x="476.661" y="173.058" width="1.37448" height="3.99893" fill="#06CD9D"/>
<rect x="492.561" y="62.7062" width="1.37448" height="5.63468" fill="#06CD9D"/>
<rect x="489.812" y="68.3409" width="6.87238" height="110.854" fill="#06CD9D"/>
<rect x="492.561" y="179.195" width="1.37448" height="3.99893" fill="#06CD9D"/>
<rect x="285.848" y="78.2805" width="1.37448" height="5.63468" fill="#06CD9D"/>
<rect x="283.099" y="83.9152" width="6.87238" height="86.2773" fill="#06CD9D"/>
<rect x="285.848" y="170.193" width="1.37448" height="3.99893" fill="#06CD9D"/>
<rect x="301.749" y="58.9225" width="1.37448" height="5.63468" fill="#06CD9D"/>
<rect x="299" y="64.5573" width="6.87238" height="86.2773" fill="#06CD9D"/>
<rect x="301.749" y="150.835" width="1.37448" height="3.99893" fill="#06CD9D"/>
<rect x="190.441" y="162.802" width="1.37448" height="13.0834" fill="#06CD9D"/>
<rect x="187.692" y="175.885" width="6.87238" height="57.8749" fill="#06CD9D"/>
<rect x="190.441" y="233.76" width="1.37448" height="12.9637" fill="#06CD9D"/>
<rect x="206.343" y="117.244" width="1.37448" height="13.0834" fill="#06CD9D"/>
<rect x="203.594" y="130.328" width="6.87238" height="57.8749" fill="#06CD9D"/>
<rect x="206.343" y="188.203" width="1.37448" height="12.9637" fill="#06CD9D"/>
<rect x="47.332" y="139.592" width="1.37448" height="13.0834" fill="#06CD9D"/>
<rect x="44.583" y="152.676" width="6.87238" height="9.32001" fill="#06CD9D"/>
<rect x="47.332" y="161.996" width="1.37448" height="12.9637" fill="#06CD9D"/>
<rect x="79.1343" y="237.133" width="1.37448" height="5.29745" fill="#06CD9D"/>
<rect x="76.3853" y="242.431" width="6.87238" height="9.96877" fill="#06CD9D"/>
<rect x="79.1343" y="252.4" width="1.37448" height="5.11485" fill="#06CD9D"/>
<rect x="365.353" y="169.857" width="1.37448" height="5.29745" fill="#06CD9D"/>
<rect x="362.604" y="175.155" width="6.87238" height="9.96877" fill="#06CD9D"/>
<rect x="365.353" y="185.123" width="1.37448" height="5.11485" fill="#06CD9D"/>
<rect x="95.0352" y="232.671" width="1.37448" height="5.29745" fill="#06CD9D"/>
<rect x="92.2861" y="237.968" width="6.87238" height="9.96877" fill="#06CD9D"/>
<rect x="95.0352" y="247.937" width="1.37448" height="5.11485" fill="#06CD9D"/>
<rect x="381.254" y="165.396" width="1.37448" height="5.29745" fill="#06CD9D"/>
<rect x="378.505" y="170.693" width="6.87238" height="9.96877" fill="#06CD9D"/>
<rect x="381.254" y="180.662" width="1.37448" height="5.11485" fill="#06CD9D"/>
<rect x="110.937" y="229.253" width="1.37448" height="5.29745" fill="#06CD9D"/>
<rect x="108.188" y="234.551" width="6.87238" height="9.96877" fill="#06CD9D"/>
<rect x="110.937" y="244.519" width="1.37448" height="5.11485" fill="#06CD9D"/>
<rect x="397.155" y="161.977" width="1.37448" height="5.29745" fill="#06CD9D"/>
<rect x="394.406" y="167.275" width="6.87238" height="9.96877" fill="#06CD9D"/>
<rect x="397.155" y="177.243" width="1.37448" height="5.11485" fill="#06CD9D"/>
<rect x="126.837" y="226.481" width="1.37448" height="5.29745" fill="#06CD9D"/>
<rect x="124.088" y="231.778" width="6.87238" height="9.96877" fill="#06CD9D"/>
<rect x="126.837" y="241.747" width="1.37448" height="5.11485" fill="#06CD9D"/>
<rect x="413.056" y="159.205" width="1.37448" height="5.29745" fill="#06CD9D"/>
<rect x="410.307" y="164.503" width="6.87238" height="9.96877" fill="#06CD9D"/>
<rect x="413.056" y="174.472" width="1.37448" height="5.11485" fill="#06CD9D"/>
<rect x="158.64" y="226.181" width="1.37448" height="5.29745" fill="#06CD9D"/>
<rect x="155.891" y="231.478" width="6.87238" height="9.96877" fill="#06CD9D"/>
<rect x="158.64" y="241.447" width="1.37448" height="5.11485" fill="#06CD9D"/>
<rect x="317.65" y="68.0901" width="1.37448" height="5.29745" fill="#06CD9D"/>
<rect x="314.901" y="73.3875" width="6.87238" height="9.96877" fill="#06CD9D"/>
<rect x="317.65" y="83.3563" width="1.37448" height="5.11485" fill="#06CD9D"/>
<rect x="333.551" y="76.0498" width="1.37448" height="5.29745" fill="#06CD9D"/>
<rect x="330.802" y="81.3472" width="6.87238" height="9.96877" fill="#06CD9D"/>
<rect x="333.551" y="91.316" width="1.37448" height="5.11485" fill="#06CD9D"/>
<rect x="174.541" y="228.792" width="1.37448" height="5.29745" fill="#06CD9D"/>
<rect x="171.792" y="234.089" width="6.87238" height="9.96877" fill="#06CD9D"/>
<rect x="174.541" y="244.058" width="1.37448" height="5.11485" fill="#06CD9D"/>
<rect x="142.738" y="202.366" width="1.37448" height="5.29745" fill="#06CD9D"/>
<rect x="139.989" y="207.663" width="6.87238" height="29.151" fill="#06CD9D"/>
<rect x="142.738" y="236.814" width="1.37448" height="5.11485" fill="#06CD9D"/>
<rect x="428.958" y="137.494" width="1.37448" height="5.29745" fill="#06CD9D"/>
<rect x="426.208" y="142.792" width="6.87238" height="29.151" fill="#06CD9D"/>
<rect x="428.958" y="171.942" width="1.37448" height="5.11485" fill="#06CD9D"/>
<rect x="444.858" y="117.792" width="1.37448" height="5.29745" fill="#06CD9D"/>
<rect x="442.109" y="123.089" width="6.87238" height="29.151" fill="#06CD9D"/>
<rect x="444.858" y="152.24" width="1.37448" height="5.11485" fill="#06CD9D"/>
<rect x="556.166" y="176.214" width="1.37448" height="5.29745" fill="#06CD9D"/>
<rect x="553.417" y="181.512" width="6.87238" height="29.151" fill="#06CD9D"/>
<rect x="556.166" y="210.663" width="1.37448" height="5.11485" fill="#06CD9D"/>
<rect x="572.067" y="145.929" width="1.37448" height="5.29745" fill="#06CD9D"/>
<rect x="569.318" y="151.226" width="6.87238" height="29.151" fill="#06CD9D"/>
<rect x="572.067" y="180.377" width="1.37448" height="5.11485" fill="#06CD9D"/>
<rect x="587.968" y="129.155" width="1.37448" height="5.29745" fill="#06CD9D"/>
<rect x="585.219" y="134.453" width="6.87238" height="29.151" fill="#06CD9D"/>
<rect x="587.968" y="163.604" width="1.37448" height="5.11485" fill="#06CD9D"/>
<rect x="603.869" y="114.27" width="1.37448" height="5.29745" fill="#06CD9D"/>
<rect x="601.12" y="119.567" width="6.87238" height="29.151" fill="#06CD9D"/>
<rect x="603.869" y="148.718" width="1.37448" height="5.11485" fill="#06CD9D"/>
<rect x="635.194" y="114.27" width="1.37448" height="5.29745" fill="#06CD9D"/>
<rect x="632.445" y="119.567" width="6.87238" height="29.151" fill="#06CD9D"/>
<rect x="635.194" y="148.718" width="1.37448" height="5.11485" fill="#06CD9D"/>
<rect x="63.2334" y="142.421" width="1.37448" height="13.0834" fill="#FF5364"/>
<rect x="60.4844" y="155.505" width="6.87238" height="91.4437" fill="#FF5364"/>
<rect x="63.2334" y="246.948" width="1.37448" height="12.9637" fill="#FF5364"/>
<rect x="349.452" y="77.5862" width="1.37448" height="13.0834" fill="#FF5364"/>
<rect x="346.703" y="90.6696" width="6.87238" height="91.4437" fill="#FF5364"/>
<rect x="349.452" y="182.113" width="1.37448" height="12.9637" fill="#FF5364"/>
<rect x="238.145" y="66.2159" width="1.37448" height="4.58669" fill="#FF5364"/>
<rect x="235.396" y="70.8026" width="6.87238" height="35.2701" fill="#FF5364"/>
<rect x="238.145" y="106.073" width="1.37448" height="6.30032" fill="#FF5364"/>
<rect x="254.045" y="92.2058" width="1.37448" height="4.58669" fill="#FF5364"/>
<rect x="251.296" y="96.7925" width="6.87238" height="35.2701" fill="#FF5364"/>
<rect x="254.045" y="132.063" width="1.37448" height="6.30032" fill="#FF5364"/>
<rect x="269.947" y="128.057" width="1.37448" height="4.58669" fill="#FF5364"/>
<rect x="267.198" y="132.643" width="6.87238" height="35.2701" fill="#FF5364"/>
<rect x="269.947" y="167.914" width="1.37448" height="6.30032" fill="#FF5364"/>
<rect x="460.759" y="125.048" width="1.37448" height="4.58669" fill="#FF5364"/>
<rect x="458.01" y="129.635" width="6.87238" height="35.2701" fill="#FF5364"/>
<rect x="460.759" y="164.905" width="1.37448" height="6.30032" fill="#FF5364"/>
<rect x="508.462" y="64.4928" width="1.37448" height="4.58669" fill="#FF5364"/>
<rect x="505.713" y="69.0795" width="6.87238" height="86.8223" fill="#FF5364"/>
<rect x="508.462" y="155.902" width="1.37448" height="6.30032" fill="#FF5364"/>
<rect x="524.364" y="110.6" width="1.37448" height="4.58669" fill="#FF5364"/>
<rect x="521.615" y="115.187" width="6.87238" height="86.8223" fill="#FF5364"/>
<rect x="524.364" y="202.009" width="1.37448" height="6.30032" fill="#FF5364"/>
<rect x="540.264" y="135.065" width="1.37448" height="14.0684" fill="#FF5364"/>
<rect x="537.515" y="149.134" width="6.87238" height="66.4225" fill="#FF5364"/>
<rect x="540.264" y="215.556" width="1.37448" height="17.2183" fill="#FF5364"/>
<rect x="619.77" y="56.5688" width="1.37448" height="14.0684" fill="#FF5364"/>
<rect x="617.021" y="70.6372" width="6.87238" height="66.4225" fill="#FF5364"/>
<rect x="619.77" y="137.06" width="1.37448" height="17.2183" fill="#FF5364"/>
<path d="M23.8209 282.609L26.7788 274.582H28.2742L31.331 282.609H30.4734L27.6254 275.11L28.0763 275.341H26.9217L27.3945 275.11L24.6566 282.609H23.8209ZM25.4043 280.058L25.6792 279.299H29.4068L29.6927 280.058H25.4043ZM35.8128 282.796C35.0797 282.796 34.4713 282.657 33.9875 282.378C33.5036 282.1 33.1408 281.711 32.8989 281.213C32.657 280.707 32.536 280.128 32.536 279.475V274.582H33.3717V279.574C33.3717 280.065 33.4597 280.494 33.6356 280.861C33.8189 281.227 34.0901 281.513 34.4493 281.718C34.8158 281.924 35.2703 282.026 35.8128 282.026C36.3479 282.026 36.7951 281.927 37.1543 281.729C37.5135 281.524 37.7847 281.238 37.9679 280.872C38.1512 280.498 38.2428 280.065 38.2428 279.574V274.582H39.0785V279.475C39.0785 280.128 38.9576 280.707 38.7157 281.213C38.4738 281.711 38.1109 282.1 37.6271 282.378C37.1506 282.657 36.5458 282.796 35.8128 282.796ZM44.9384 282.796C44.2787 282.796 43.6922 282.686 43.1791 282.466C42.6733 282.246 42.2481 281.946 41.9036 281.564C41.559 281.176 41.2951 280.732 41.1119 280.234C40.936 279.728 40.848 279.197 40.848 278.64V278.442C40.848 277.928 40.9323 277.43 41.1009 276.946C41.2768 276.462 41.5297 276.026 41.8596 275.638C42.1895 275.249 42.6 274.941 43.0911 274.714C43.5823 274.487 44.1394 274.373 44.7625 274.373C45.4149 274.373 45.994 274.498 46.4998 274.747C47.0056 274.989 47.4125 275.33 47.7204 275.77C48.0356 276.209 48.2188 276.719 48.2702 277.298H47.4235C47.3648 276.829 47.2072 276.433 46.9507 276.11C46.7014 275.788 46.3862 275.546 46.005 275.385C45.6238 275.223 45.2097 275.143 44.7625 275.143C44.2933 275.143 43.8682 275.227 43.487 275.396C43.1058 275.564 42.7832 275.803 42.5193 276.11C42.2554 276.418 42.0502 276.781 41.9036 277.199C41.7643 277.61 41.6947 278.06 41.6947 278.552C41.6947 279.072 41.768 279.549 41.9146 279.981C42.0612 280.406 42.2738 280.773 42.5523 281.081C42.8309 281.388 43.1681 281.627 43.5639 281.795C43.9671 281.964 44.4253 282.048 44.9384 282.048C45.5688 282.048 46.1223 281.927 46.5988 281.685C47.0826 281.436 47.4565 281.11 47.7204 280.707L47.3905 281.74V279.365H48.1822V281.366C47.8376 281.814 47.3905 282.166 46.8407 282.422C46.2909 282.671 45.6568 282.796 44.9384 282.796ZM44.6415 279.541V278.837H48.8969V279.541H44.6415ZM55.9282 282.796C55.3638 282.796 54.8799 282.697 54.4768 282.499C54.0736 282.301 53.7437 282.026 53.4871 281.674C53.2306 281.315 53.04 280.897 52.9154 280.421C52.7981 279.937 52.7394 279.417 52.7394 278.859V278.343C52.7394 277.558 52.8531 276.869 53.0803 276.275C53.3149 275.682 53.6667 275.216 54.1359 274.879C54.6124 274.542 55.2098 274.373 55.9282 274.373C56.6466 274.373 57.2404 274.542 57.7095 274.879C58.1787 275.216 58.5269 275.682 58.7541 276.275C58.9887 276.869 59.106 277.558 59.106 278.343V278.859C59.106 279.417 59.0437 279.937 58.9191 280.421C58.8018 280.897 58.6149 281.315 58.3583 281.674C58.1017 282.026 57.7718 282.301 57.3687 282.499C56.9655 282.697 56.4853 282.796 55.9282 282.796ZM55.9282 282.048C56.7199 282.048 57.3064 281.77 57.6875 281.213C58.0761 280.655 58.2703 279.787 58.2703 278.607C58.2703 277.375 58.0724 276.488 57.6765 275.946C57.288 275.396 56.7052 275.121 55.9282 275.121C55.1438 275.121 54.5537 275.396 54.1579 275.946C53.7694 276.488 53.5751 277.368 53.5751 278.585C53.5751 279.772 53.7657 280.648 54.1469 281.213C54.5354 281.77 55.1292 282.048 55.9282 282.048ZM62.2986 282.609V275.011L62.6615 275.297H60.4733V274.582H63.1233V282.609H62.2986Z" fill="#15191F"/>
<path d="M88.8209 282.609L91.7788 274.582H93.2742L96.331 282.609H95.4734L92.6254 275.11L93.0763 275.341H91.9217L92.3945 275.11L89.6566 282.609H88.8209ZM90.4043 280.058L90.6792 279.299H94.4068L94.6927 280.058H90.4043ZM100.813 282.796C100.08 282.796 99.4713 282.657 98.9875 282.378C98.5036 282.1 98.1408 281.711 97.8989 281.213C97.657 280.707 97.536 280.128 97.536 279.475V274.582H98.3717V279.574C98.3717 280.065 98.4597 280.494 98.6356 280.861C98.8189 281.227 99.0901 281.513 99.4493 281.718C99.8158 281.924 100.27 282.026 100.813 282.026C101.348 282.026 101.795 281.927 102.154 281.729C102.513 281.524 102.785 281.238 102.968 280.872C103.151 280.498 103.243 280.065 103.243 279.574V274.582H104.079V279.475C104.079 280.128 103.958 280.707 103.716 281.213C103.474 281.711 103.111 282.1 102.627 282.378C102.151 282.657 101.546 282.796 100.813 282.796ZM109.938 282.796C109.279 282.796 108.692 282.686 108.179 282.466C107.673 282.246 107.248 281.946 106.904 281.564C106.559 281.176 106.295 280.732 106.112 280.234C105.936 279.728 105.848 279.197 105.848 278.64V278.442C105.848 277.928 105.932 277.43 106.101 276.946C106.277 276.462 106.53 276.026 106.86 275.638C107.189 275.249 107.6 274.941 108.091 274.714C108.582 274.487 109.139 274.373 109.762 274.373C110.415 274.373 110.994 274.498 111.5 274.747C112.006 274.989 112.412 275.33 112.72 275.77C113.036 276.209 113.219 276.719 113.27 277.298H112.423C112.365 276.829 112.207 276.433 111.951 276.11C111.701 275.788 111.386 275.546 111.005 275.385C110.624 275.223 110.21 275.143 109.762 275.143C109.293 275.143 108.868 275.227 108.487 275.396C108.106 275.564 107.783 275.803 107.519 276.11C107.255 276.418 107.05 276.781 106.904 277.199C106.764 277.61 106.695 278.06 106.695 278.552C106.695 279.072 106.768 279.549 106.915 279.981C107.061 280.406 107.274 280.773 107.552 281.081C107.831 281.388 108.168 281.627 108.564 281.795C108.967 281.964 109.425 282.048 109.938 282.048C110.569 282.048 111.122 281.927 111.599 281.685C112.083 281.436 112.456 281.11 112.72 280.707L112.39 281.74V279.365H113.182V281.366C112.838 281.814 112.39 282.166 111.841 282.422C111.291 282.671 110.657 282.796 109.938 282.796ZM109.642 279.541V278.837H113.897V279.541H109.642ZM120.928 282.796C120.364 282.796 119.88 282.697 119.477 282.499C119.074 282.301 118.744 282.026 118.487 281.674C118.231 281.315 118.04 280.897 117.915 280.421C117.798 279.937 117.739 279.417 117.739 278.859V278.343C117.739 277.558 117.853 276.869 118.08 276.275C118.315 275.682 118.667 275.216 119.136 274.879C119.612 274.542 120.21 274.373 120.928 274.373C121.647 274.373 122.24 274.542 122.71 274.879C123.179 275.216 123.527 275.682 123.754 276.275C123.989 276.869 124.106 277.558 124.106 278.343V278.859C124.106 279.417 124.044 279.937 123.919 280.421C123.802 280.897 123.615 281.315 123.358 281.674C123.102 282.026 122.772 282.301 122.369 282.499C121.965 282.697 121.485 282.796 120.928 282.796ZM120.928 282.048C121.72 282.048 122.306 281.77 122.688 281.213C123.076 280.655 123.27 279.787 123.27 278.607C123.27 277.375 123.072 276.488 122.677 275.946C122.288 275.396 121.705 275.121 120.928 275.121C120.144 275.121 119.554 275.396 119.158 275.946C118.769 276.488 118.575 277.368 118.575 278.585C118.575 279.772 118.766 280.648 119.147 281.213C119.535 281.77 120.129 282.048 120.928 282.048ZM127.299 282.609V275.011L127.662 275.297H125.473V274.582H128.123V282.609H127.299Z" fill="#15191F"/>
<path d="M153.821 282.609L156.779 274.582H158.274L161.331 282.609H160.473L157.625 275.11L158.076 275.341H156.922L157.395 275.11L154.657 282.609H153.821ZM155.404 280.058L155.679 279.299H159.407L159.693 280.058H155.404ZM165.813 282.796C165.08 282.796 164.471 282.657 163.987 282.378C163.504 282.1 163.141 281.711 162.899 281.213C162.657 280.707 162.536 280.128 162.536 279.475V274.582H163.372V279.574C163.372 280.065 163.46 280.494 163.636 280.861C163.819 281.227 164.09 281.513 164.449 281.718C164.816 281.924 165.27 282.026 165.813 282.026C166.348 282.026 166.795 281.927 167.154 281.729C167.513 281.524 167.785 281.238 167.968 280.872C168.151 280.498 168.243 280.065 168.243 279.574V274.582H169.079V279.475C169.079 280.128 168.958 280.707 168.716 281.213C168.474 281.711 168.111 282.1 167.627 282.378C167.151 282.657 166.546 282.796 165.813 282.796ZM174.938 282.796C174.279 282.796 173.692 282.686 173.179 282.466C172.673 282.246 172.248 281.946 171.904 281.564C171.559 281.176 171.295 280.732 171.112 280.234C170.936 279.728 170.848 279.197 170.848 278.64V278.442C170.848 277.928 170.932 277.43 171.101 276.946C171.277 276.462 171.53 276.026 171.86 275.638C172.189 275.249 172.6 274.941 173.091 274.714C173.582 274.487 174.139 274.373 174.762 274.373C175.415 274.373 175.994 274.498 176.5 274.747C177.006 274.989 177.412 275.33 177.72 275.77C178.036 276.209 178.219 276.719 178.27 277.298H177.423C177.365 276.829 177.207 276.433 176.951 276.11C176.701 275.788 176.386 275.546 176.005 275.385C175.624 275.223 175.21 275.143 174.762 275.143C174.293 275.143 173.868 275.227 173.487 275.396C173.106 275.564 172.783 275.803 172.519 276.11C172.255 276.418 172.05 276.781 171.904 277.199C171.764 277.61 171.695 278.06 171.695 278.552C171.695 279.072 171.768 279.549 171.915 279.981C172.061 280.406 172.274 280.773 172.552 281.081C172.831 281.388 173.168 281.627 173.564 281.795C173.967 281.964 174.425 282.048 174.938 282.048C175.569 282.048 176.122 281.927 176.599 281.685C177.083 281.436 177.456 281.11 177.72 280.707L177.39 281.74V279.365H178.182V281.366C177.838 281.814 177.39 282.166 176.841 282.422C176.291 282.671 175.657 282.796 174.938 282.796ZM174.642 279.541V278.837H178.897V279.541H174.642ZM185.928 282.796C185.364 282.796 184.88 282.697 184.477 282.499C184.074 282.301 183.744 282.026 183.487 281.674C183.231 281.315 183.04 280.897 182.915 280.421C182.798 279.937 182.739 279.417 182.739 278.859V278.343C182.739 277.558 182.853 276.869 183.08 276.275C183.315 275.682 183.667 275.216 184.136 274.879C184.612 274.542 185.21 274.373 185.928 274.373C186.647 274.373 187.24 274.542 187.71 274.879C188.179 275.216 188.527 275.682 188.754 276.275C188.989 276.869 189.106 277.558 189.106 278.343V278.859C189.106 279.417 189.044 279.937 188.919 280.421C188.802 280.897 188.615 281.315 188.358 281.674C188.102 282.026 187.772 282.301 187.369 282.499C186.965 282.697 186.485 282.796 185.928 282.796ZM185.928 282.048C186.72 282.048 187.306 281.77 187.688 281.213C188.076 280.655 188.27 279.787 188.27 278.607C188.27 277.375 188.072 276.488 187.677 275.946C187.288 275.396 186.705 275.121 185.928 275.121C185.144 275.121 184.554 275.396 184.158 275.946C183.769 276.488 183.575 277.368 183.575 278.585C183.575 279.772 183.766 280.648 184.147 281.213C184.535 281.77 185.129 282.048 185.928 282.048ZM192.299 282.609V275.011L192.662 275.297H190.473V274.582H193.123V282.609H192.299Z" fill="#15191F"/>
<path d="M218.821 282.609L221.779 274.582H223.274L226.331 282.609H225.473L222.625 275.11L223.076 275.341H221.922L222.395 275.11L219.657 282.609H218.821ZM220.404 280.058L220.679 279.299H224.407L224.693 280.058H220.404ZM230.813 282.796C230.08 282.796 229.471 282.657 228.987 282.378C228.504 282.1 228.141 281.711 227.899 281.213C227.657 280.707 227.536 280.128 227.536 279.475V274.582H228.372V279.574C228.372 280.065 228.46 280.494 228.636 280.861C228.819 281.227 229.09 281.513 229.449 281.718C229.816 281.924 230.27 282.026 230.813 282.026C231.348 282.026 231.795 281.927 232.154 281.729C232.513 281.524 232.785 281.238 232.968 280.872C233.151 280.498 233.243 280.065 233.243 279.574V274.582H234.079V279.475C234.079 280.128 233.958 280.707 233.716 281.213C233.474 281.711 233.111 282.1 232.627 282.378C232.151 282.657 231.546 282.796 230.813 282.796ZM239.938 282.796C239.279 282.796 238.692 282.686 238.179 282.466C237.673 282.246 237.248 281.946 236.904 281.564C236.559 281.176 236.295 280.732 236.112 280.234C235.936 279.728 235.848 279.197 235.848 278.64V278.442C235.848 277.928 235.932 277.43 236.101 276.946C236.277 276.462 236.53 276.026 236.86 275.638C237.189 275.249 237.6 274.941 238.091 274.714C238.582 274.487 239.139 274.373 239.762 274.373C240.415 274.373 240.994 274.498 241.5 274.747C242.006 274.989 242.412 275.33 242.72 275.77C243.036 276.209 243.219 276.719 243.27 277.298H242.423C242.365 276.829 242.207 276.433 241.951 276.11C241.701 275.788 241.386 275.546 241.005 275.385C240.624 275.223 240.21 275.143 239.762 275.143C239.293 275.143 238.868 275.227 238.487 275.396C238.106 275.564 237.783 275.803 237.519 276.11C237.255 276.418 237.05 276.781 236.904 277.199C236.764 277.61 236.695 278.06 236.695 278.552C236.695 279.072 236.768 279.549 236.915 279.981C237.061 280.406 237.274 280.773 237.552 281.081C237.831 281.388 238.168 281.627 238.564 281.795C238.967 281.964 239.425 282.048 239.938 282.048C240.569 282.048 241.122 281.927 241.599 281.685C242.083 281.436 242.456 281.11 242.72 280.707L242.39 281.74V279.365H243.182V281.366C242.838 281.814 242.39 282.166 241.841 282.422C241.291 282.671 240.657 282.796 239.938 282.796ZM239.642 279.541V278.837H243.897V279.541H239.642ZM250.928 282.796C250.364 282.796 249.88 282.697 249.477 282.499C249.074 282.301 248.744 282.026 248.487 281.674C248.231 281.315 248.04 280.897 247.915 280.421C247.798 279.937 247.739 279.417 247.739 278.859V278.343C247.739 277.558 247.853 276.869 248.08 276.275C248.315 275.682 248.667 275.216 249.136 274.879C249.612 274.542 250.21 274.373 250.928 274.373C251.647 274.373 252.24 274.542 252.71 274.879C253.179 275.216 253.527 275.682 253.754 276.275C253.989 276.869 254.106 277.558 254.106 278.343V278.859C254.106 279.417 254.044 279.937 253.919 280.421C253.802 280.897 253.615 281.315 253.358 281.674C253.102 282.026 252.772 282.301 252.369 282.499C251.965 282.697 251.485 282.796 250.928 282.796ZM250.928 282.048C251.72 282.048 252.306 281.77 252.688 281.213C253.076 280.655 253.27 279.787 253.27 278.607C253.27 277.375 253.072 276.488 252.677 275.946C252.288 275.396 251.705 275.121 250.928 275.121C250.144 275.121 249.554 275.396 249.158 275.946C248.769 276.488 248.575 277.368 248.575 278.585C248.575 279.772 248.766 280.648 249.147 281.213C249.535 281.77 250.129 282.048 250.928 282.048ZM257.299 282.609V275.011L257.662 275.297H255.473V274.582H258.123V282.609H257.299Z" fill="#15191F"/>
<path d="M283.821 282.609L286.779 274.582H288.274L291.331 282.609H290.473L287.625 275.11L288.076 275.341H286.922L287.395 275.11L284.657 282.609H283.821ZM285.404 280.058L285.679 279.299H289.407L289.693 280.058H285.404ZM295.813 282.796C295.08 282.796 294.471 282.657 293.987 282.378C293.504 282.1 293.141 281.711 292.899 281.213C292.657 280.707 292.536 280.128 292.536 279.475V274.582H293.372V279.574C293.372 280.065 293.46 280.494 293.636 280.861C293.819 281.227 294.09 281.513 294.449 281.718C294.816 281.924 295.27 282.026 295.813 282.026C296.348 282.026 296.795 281.927 297.154 281.729C297.513 281.524 297.785 281.238 297.968 280.872C298.151 280.498 298.243 280.065 298.243 279.574V274.582H299.079V279.475C299.079 280.128 298.958 280.707 298.716 281.213C298.474 281.711 298.111 282.1 297.627 282.378C297.151 282.657 296.546 282.796 295.813 282.796ZM304.938 282.796C304.279 282.796 303.692 282.686 303.179 282.466C302.673 282.246 302.248 281.946 301.904 281.564C301.559 281.176 301.295 280.732 301.112 280.234C300.936 279.728 300.848 279.197 300.848 278.64V278.442C300.848 277.928 300.932 277.43 301.101 276.946C301.277 276.462 301.53 276.026 301.86 275.638C302.189 275.249 302.6 274.941 303.091 274.714C303.582 274.487 304.139 274.373 304.762 274.373C305.415 274.373 305.994 274.498 306.5 274.747C307.006 274.989 307.412 275.33 307.72 275.77C308.036 276.209 308.219 276.719 308.27 277.298H307.423C307.365 276.829 307.207 276.433 306.951 276.11C306.701 275.788 306.386 275.546 306.005 275.385C305.624 275.223 305.21 275.143 304.762 275.143C304.293 275.143 303.868 275.227 303.487 275.396C303.106 275.564 302.783 275.803 302.519 276.11C302.255 276.418 302.05 276.781 301.904 277.199C301.764 277.61 301.695 278.06 301.695 278.552C301.695 279.072 301.768 279.549 301.915 279.981C302.061 280.406 302.274 280.773 302.552 281.081C302.831 281.388 303.168 281.627 303.564 281.795C303.967 281.964 304.425 282.048 304.938 282.048C305.569 282.048 306.122 281.927 306.599 281.685C307.083 281.436 307.456 281.11 307.72 280.707L307.39 281.74V279.365H308.182V281.366C307.838 281.814 307.39 282.166 306.841 282.422C306.291 282.671 305.657 282.796 304.938 282.796ZM304.642 279.541V278.837H308.897V279.541H304.642ZM315.928 282.796C315.364 282.796 314.88 282.697 314.477 282.499C314.074 282.301 313.744 282.026 313.487 281.674C313.231 281.315 313.04 280.897 312.915 280.421C312.798 279.937 312.739 279.417 312.739 278.859V278.343C312.739 277.558 312.853 276.869 313.08 276.275C313.315 275.682 313.667 275.216 314.136 274.879C314.612 274.542 315.21 274.373 315.928 274.373C316.647 274.373 317.24 274.542 317.71 274.879C318.179 275.216 318.527 275.682 318.754 276.275C318.989 276.869 319.106 277.558 319.106 278.343V278.859C319.106 279.417 319.044 279.937 318.919 280.421C318.802 280.897 318.615 281.315 318.358 281.674C318.102 282.026 317.772 282.301 317.369 282.499C316.965 282.697 316.485 282.796 315.928 282.796ZM315.928 282.048C316.72 282.048 317.306 281.77 317.688 281.213C318.076 280.655 318.27 279.787 318.27 278.607C318.27 277.375 318.072 276.488 317.677 275.946C317.288 275.396 316.705 275.121 315.928 275.121C315.144 275.121 314.554 275.396 314.158 275.946C313.769 276.488 313.575 277.368 313.575 278.585C313.575 279.772 313.766 280.648 314.147 281.213C314.535 281.77 315.129 282.048 315.928 282.048ZM322.299 282.609V275.011L322.662 275.297H320.473V274.582H323.123V282.609H322.299Z" fill="#15191F"/>
<path d="M348.821 282.609L351.779 274.582H353.274L356.331 282.609H355.473L352.625 275.11L353.076 275.341H351.922L352.395 275.11L349.657 282.609H348.821ZM350.404 280.058L350.679 279.299H354.407L354.693 280.058H350.404ZM360.813 282.796C360.08 282.796 359.471 282.657 358.987 282.378C358.504 282.1 358.141 281.711 357.899 281.213C357.657 280.707 357.536 280.128 357.536 279.475V274.582H358.372V279.574C358.372 280.065 358.46 280.494 358.636 280.861C358.819 281.227 359.09 281.513 359.449 281.718C359.816 281.924 360.27 282.026 360.813 282.026C361.348 282.026 361.795 281.927 362.154 281.729C362.513 281.524 362.785 281.238 362.968 280.872C363.151 280.498 363.243 280.065 363.243 279.574V274.582H364.079V279.475C364.079 280.128 363.958 280.707 363.716 281.213C363.474 281.711 363.111 282.1 362.627 282.378C362.151 282.657 361.546 282.796 360.813 282.796ZM369.938 282.796C369.279 282.796 368.692 282.686 368.179 282.466C367.673 282.246 367.248 281.946 366.904 281.564C366.559 281.176 366.295 280.732 366.112 280.234C365.936 279.728 365.848 279.197 365.848 278.64V278.442C365.848 277.928 365.932 277.43 366.101 276.946C366.277 276.462 366.53 276.026 366.86 275.638C367.189 275.249 367.6 274.941 368.091 274.714C368.582 274.487 369.139 274.373 369.762 274.373C370.415 274.373 370.994 274.498 371.5 274.747C372.006 274.989 372.412 275.33 372.72 275.77C373.036 276.209 373.219 276.719 373.27 277.298H372.423C372.365 276.829 372.207 276.433 371.951 276.11C371.701 275.788 371.386 275.546 371.005 275.385C370.624 275.223 370.21 275.143 369.762 275.143C369.293 275.143 368.868 275.227 368.487 275.396C368.106 275.564 367.783 275.803 367.519 276.11C367.255 276.418 367.05 276.781 366.904 277.199C366.764 277.61 366.695 278.06 366.695 278.552C366.695 279.072 366.768 279.549 366.915 279.981C367.061 280.406 367.274 280.773 367.552 281.081C367.831 281.388 368.168 281.627 368.564 281.795C368.967 281.964 369.425 282.048 369.938 282.048C370.569 282.048 371.122 281.927 371.599 281.685C372.083 281.436 372.456 281.11 372.72 280.707L372.39 281.74V279.365H373.182V281.366C372.838 281.814 372.39 282.166 371.841 282.422C371.291 282.671 370.657 282.796 369.938 282.796ZM369.642 279.541V278.837H373.897V279.541H369.642ZM380.928 282.796C380.364 282.796 379.88 282.697 379.477 282.499C379.074 282.301 378.744 282.026 378.487 281.674C378.231 281.315 378.04 280.897 377.915 280.421C377.798 279.937 377.739 279.417 377.739 278.859V278.343C377.739 277.558 377.853 276.869 378.08 276.275C378.315 275.682 378.667 275.216 379.136 274.879C379.612 274.542 380.21 274.373 380.928 274.373C381.647 274.373 382.24 274.542 382.71 274.879C383.179 275.216 383.527 275.682 383.754 276.275C383.989 276.869 384.106 277.558 384.106 278.343V278.859C384.106 279.417 384.044 279.937 383.919 280.421C383.802 280.897 383.615 281.315 383.358 281.674C383.102 282.026 382.772 282.301 382.369 282.499C381.965 282.697 381.485 282.796 380.928 282.796ZM380.928 282.048C381.72 282.048 382.306 281.77 382.688 281.213C383.076 280.655 383.27 279.787 383.27 278.607C383.27 277.375 383.072 276.488 382.677 275.946C382.288 275.396 381.705 275.121 380.928 275.121C380.144 275.121 379.554 275.396 379.158 275.946C378.769 276.488 378.575 277.368 378.575 278.585C378.575 279.772 378.766 280.648 379.147 281.213C379.535 281.77 380.129 282.048 380.928 282.048ZM387.299 282.609V275.011L387.662 275.297H385.473V274.582H388.123V282.609H387.299Z" fill="#15191F"/>
<path d="M413.821 282.609L416.779 274.582H418.274L421.331 282.609H420.473L417.625 275.11L418.076 275.341H416.922L417.395 275.11L414.657 282.609H413.821ZM415.404 280.058L415.679 279.299H419.407L419.693 280.058H415.404ZM425.813 282.796C425.08 282.796 424.471 282.657 423.987 282.378C423.504 282.1 423.141 281.711 422.899 281.213C422.657 280.707 422.536 280.128 422.536 279.475V274.582H423.372V279.574C423.372 280.065 423.46 280.494 423.636 280.861C423.819 281.227 424.09 281.513 424.449 281.718C424.816 281.924 425.27 282.026 425.813 282.026C426.348 282.026 426.795 281.927 427.154 281.729C427.513 281.524 427.785 281.238 427.968 280.872C428.151 280.498 428.243 280.065 428.243 279.574V274.582H429.079V279.475C429.079 280.128 428.958 280.707 428.716 281.213C428.474 281.711 428.111 282.1 427.627 282.378C427.151 282.657 426.546 282.796 425.813 282.796ZM434.938 282.796C434.279 282.796 433.692 282.686 433.179 282.466C432.673 282.246 432.248 281.946 431.904 281.564C431.559 281.176 431.295 280.732 431.112 280.234C430.936 279.728 430.848 279.197 430.848 278.64V278.442C430.848 277.928 430.932 277.43 431.101 276.946C431.277 276.462 431.53 276.026 431.86 275.638C432.189 275.249 432.6 274.941 433.091 274.714C433.582 274.487 434.139 274.373 434.762 274.373C435.415 274.373 435.994 274.498 436.5 274.747C437.006 274.989 437.412 275.33 437.72 275.77C438.036 276.209 438.219 276.719 438.27 277.298H437.423C437.365 276.829 437.207 276.433 436.951 276.11C436.701 275.788 436.386 275.546 436.005 275.385C435.624 275.223 435.21 275.143 434.762 275.143C434.293 275.143 433.868 275.227 433.487 275.396C433.106 275.564 432.783 275.803 432.519 276.11C432.255 276.418 432.05 276.781 431.904 277.199C431.764 277.61 431.695 278.06 431.695 278.552C431.695 279.072 431.768 279.549 431.915 279.981C432.061 280.406 432.274 280.773 432.552 281.081C432.831 281.388 433.168 281.627 433.564 281.795C433.967 281.964 434.425 282.048 434.938 282.048C435.569 282.048 436.122 281.927 436.599 281.685C437.083 281.436 437.456 281.11 437.72 280.707L437.39 281.74V279.365H438.182V281.366C437.838 281.814 437.39 282.166 436.841 282.422C436.291 282.671 435.657 282.796 434.938 282.796ZM434.642 279.541V278.837H438.897V279.541H434.642ZM445.928 282.796C445.364 282.796 444.88 282.697 444.477 282.499C444.074 282.301 443.744 282.026 443.487 281.674C443.231 281.315 443.04 280.897 442.915 280.421C442.798 279.937 442.739 279.417 442.739 278.859V278.343C442.739 277.558 442.853 276.869 443.08 276.275C443.315 275.682 443.667 275.216 444.136 274.879C444.612 274.542 445.21 274.373 445.928 274.373C446.647 274.373 447.24 274.542 447.71 274.879C448.179 275.216 448.527 275.682 448.754 276.275C448.989 276.869 449.106 277.558 449.106 278.343V278.859C449.106 279.417 449.044 279.937 448.919 280.421C448.802 280.897 448.615 281.315 448.358 281.674C448.102 282.026 447.772 282.301 447.369 282.499C446.965 282.697 446.485 282.796 445.928 282.796ZM445.928 282.048C446.72 282.048 447.306 281.77 447.688 281.213C448.076 280.655 448.27 279.787 448.27 278.607C448.27 277.375 448.072 276.488 447.677 275.946C447.288 275.396 446.705 275.121 445.928 275.121C445.144 275.121 444.554 275.396 444.158 275.946C443.769 276.488 443.575 277.368 443.575 278.585C443.575 279.772 443.766 280.648 444.147 281.213C444.535 281.77 445.129 282.048 445.928 282.048ZM452.299 282.609V275.011L452.662 275.297H450.473V274.582H453.123V282.609H452.299Z" fill="#15191F"/>
<path d="M478.821 282.609L481.779 274.582H483.274L486.331 282.609H485.473L482.625 275.11L483.076 275.341H481.922L482.395 275.11L479.657 282.609H478.821ZM480.404 280.058L480.679 279.299H484.407L484.693 280.058H480.404ZM490.813 282.796C490.08 282.796 489.471 282.657 488.987 282.378C488.504 282.1 488.141 281.711 487.899 281.213C487.657 280.707 487.536 280.128 487.536 279.475V274.582H488.372V279.574C488.372 280.065 488.46 280.494 488.636 280.861C488.819 281.227 489.09 281.513 489.449 281.718C489.816 281.924 490.27 282.026 490.813 282.026C491.348 282.026 491.795 281.927 492.154 281.729C492.513 281.524 492.785 281.238 492.968 280.872C493.151 280.498 493.243 280.065 493.243 279.574V274.582H494.079V279.475C494.079 280.128 493.958 280.707 493.716 281.213C493.474 281.711 493.111 282.1 492.627 282.378C492.151 282.657 491.546 282.796 490.813 282.796ZM499.938 282.796C499.279 282.796 498.692 282.686 498.179 282.466C497.673 282.246 497.248 281.946 496.904 281.564C496.559 281.176 496.295 280.732 496.112 280.234C495.936 279.728 495.848 279.197 495.848 278.64V278.442C495.848 277.928 495.932 277.43 496.101 276.946C496.277 276.462 496.53 276.026 496.86 275.638C497.189 275.249 497.6 274.941 498.091 274.714C498.582 274.487 499.139 274.373 499.762 274.373C500.415 274.373 500.994 274.498 501.5 274.747C502.006 274.989 502.412 275.33 502.72 275.77C503.036 276.209 503.219 276.719 503.27 277.298H502.423C502.365 276.829 502.207 276.433 501.951 276.11C501.701 275.788 501.386 275.546 501.005 275.385C500.624 275.223 500.21 275.143 499.762 275.143C499.293 275.143 498.868 275.227 498.487 275.396C498.106 275.564 497.783 275.803 497.519 276.11C497.255 276.418 497.05 276.781 496.904 277.199C496.764 277.61 496.695 278.06 496.695 278.552C496.695 279.072 496.768 279.549 496.915 279.981C497.061 280.406 497.274 280.773 497.552 281.081C497.831 281.388 498.168 281.627 498.564 281.795C498.967 281.964 499.425 282.048 499.938 282.048C500.569 282.048 501.122 281.927 501.599 281.685C502.083 281.436 502.456 281.11 502.72 280.707L502.39 281.74V279.365H503.182V281.366C502.838 281.814 502.39 282.166 501.841 282.422C501.291 282.671 500.657 282.796 499.938 282.796ZM499.642 279.541V278.837H503.897V279.541H499.642ZM510.928 282.796C510.364 282.796 509.88 282.697 509.477 282.499C509.074 282.301 508.744 282.026 508.487 281.674C508.231 281.315 508.04 280.897 507.915 280.421C507.798 279.937 507.739 279.417 507.739 278.859V278.343C507.739 277.558 507.853 276.869 508.08 276.275C508.315 275.682 508.667 275.216 509.136 274.879C509.612 274.542 510.21 274.373 510.928 274.373C511.647 274.373 512.24 274.542 512.71 274.879C513.179 275.216 513.527 275.682 513.754 276.275C513.989 276.869 514.106 277.558 514.106 278.343V278.859C514.106 279.417 514.044 279.937 513.919 280.421C513.802 280.897 513.615 281.315 513.358 281.674C513.102 282.026 512.772 282.301 512.369 282.499C511.965 282.697 511.485 282.796 510.928 282.796ZM510.928 282.048C511.72 282.048 512.306 281.77 512.688 281.213C513.076 280.655 513.27 279.787 513.27 278.607C513.27 277.375 513.072 276.488 512.677 275.946C512.288 275.396 511.705 275.121 510.928 275.121C510.144 275.121 509.554 275.396 509.158 275.946C508.769 276.488 508.575 277.368 508.575 278.585C508.575 279.772 508.766 280.648 509.147 281.213C509.535 281.77 510.129 282.048 510.928 282.048ZM517.299 282.609V275.011L517.662 275.297H515.473V274.582H518.123V282.609H517.299Z" fill="#15191F"/>
<path d="M543.821 282.609L546.779 274.582H548.274L551.331 282.609H550.473L547.625 275.11L548.076 275.341H546.922L547.395 275.11L544.657 282.609H543.821ZM545.404 280.058L545.679 279.299H549.407L549.693 280.058H545.404ZM555.813 282.796C555.08 282.796 554.471 282.657 553.987 282.378C553.504 282.1 553.141 281.711 552.899 281.213C552.657 280.707 552.536 280.128 552.536 279.475V274.582H553.372V279.574C553.372 280.065 553.46 280.494 553.636 280.861C553.819 281.227 554.09 281.513 554.449 281.718C554.816 281.924 555.27 282.026 555.813 282.026C556.348 282.026 556.795 281.927 557.154 281.729C557.513 281.524 557.785 281.238 557.968 280.872C558.151 280.498 558.243 280.065 558.243 279.574V274.582H559.079V279.475C559.079 280.128 558.958 280.707 558.716 281.213C558.474 281.711 558.111 282.1 557.627 282.378C557.151 282.657 556.546 282.796 555.813 282.796ZM564.938 282.796C564.279 282.796 563.692 282.686 563.179 282.466C562.673 282.246 562.248 281.946 561.904 281.564C561.559 281.176 561.295 280.732 561.112 280.234C560.936 279.728 560.848 279.197 560.848 278.64V278.442C560.848 277.928 560.932 277.43 561.101 276.946C561.277 276.462 561.53 276.026 561.86 275.638C562.189 275.249 562.6 274.941 563.091 274.714C563.582 274.487 564.139 274.373 564.762 274.373C565.415 274.373 565.994 274.498 566.5 274.747C567.006 274.989 567.412 275.33 567.72 275.77C568.036 276.209 568.219 276.719 568.27 277.298H567.423C567.365 276.829 567.207 276.433 566.951 276.11C566.701 275.788 566.386 275.546 566.005 275.385C565.624 275.223 565.21 275.143 564.762 275.143C564.293 275.143 563.868 275.227 563.487 275.396C563.106 275.564 562.783 275.803 562.519 276.11C562.255 276.418 562.05 276.781 561.904 277.199C561.764 277.61 561.695 278.06 561.695 278.552C561.695 279.072 561.768 279.549 561.915 279.981C562.061 280.406 562.274 280.773 562.552 281.081C562.831 281.388 563.168 281.627 563.564 281.795C563.967 281.964 564.425 282.048 564.938 282.048C565.569 282.048 566.122 281.927 566.599 281.685C567.083 281.436 567.456 281.11 567.72 280.707L567.39 281.74V279.365H568.182V281.366C567.838 281.814 567.39 282.166 566.841 282.422C566.291 282.671 565.657 282.796 564.938 282.796ZM564.642 279.541V278.837H568.897V279.541H564.642ZM575.928 282.796C575.364 282.796 574.88 282.697 574.477 282.499C574.074 282.301 573.744 282.026 573.487 281.674C573.231 281.315 573.04 280.897 572.915 280.421C572.798 279.937 572.739 279.417 572.739 278.859V278.343C572.739 277.558 572.853 276.869 573.08 276.275C573.315 275.682 573.667 275.216 574.136 274.879C574.612 274.542 575.21 274.373 575.928 274.373C576.647 274.373 577.24 274.542 577.71 274.879C578.179 275.216 578.527 275.682 578.754 276.275C578.989 276.869 579.106 277.558 579.106 278.343V278.859C579.106 279.417 579.044 279.937 578.919 280.421C578.802 280.897 578.615 281.315 578.358 281.674C578.102 282.026 577.772 282.301 577.369 282.499C576.965 282.697 576.485 282.796 575.928 282.796ZM575.928 282.048C576.72 282.048 577.306 281.77 577.688 281.213C578.076 280.655 578.27 279.787 578.27 278.607C578.27 277.375 578.072 276.488 577.677 275.946C577.288 275.396 576.705 275.121 575.928 275.121C575.144 275.121 574.554 275.396 574.158 275.946C573.769 276.488 573.575 277.368 573.575 278.585C573.575 279.772 573.766 280.648 574.147 281.213C574.535 281.77 575.129 282.048 575.928 282.048ZM582.299 282.609V275.011L582.662 275.297H580.473V274.582H583.123V282.609H582.299Z" fill="#15191F"/>
<path d="M608.821 282.609L611.779 274.582H613.274L616.331 282.609H615.473L612.625 275.11L613.076 275.341H611.922L612.395 275.11L609.657 282.609H608.821ZM610.404 280.058L610.679 279.299H614.407L614.693 280.058H610.404ZM620.813 282.796C620.08 282.796 619.471 282.657 618.987 282.378C618.504 282.1 618.141 281.711 617.899 281.213C617.657 280.707 617.536 280.128 617.536 279.475V274.582H618.372V279.574C618.372 280.065 618.46 280.494 618.636 280.861C618.819 281.227 619.09 281.513 619.449 281.718C619.816 281.924 620.27 282.026 620.813 282.026C621.348 282.026 621.795 281.927 622.154 281.729C622.513 281.524 622.785 281.238 622.968 280.872C623.151 280.498 623.243 280.065 623.243 279.574V274.582H624.079V279.475C624.079 280.128 623.958 280.707 623.716 281.213C623.474 281.711 623.111 282.1 622.627 282.378C622.151 282.657 621.546 282.796 620.813 282.796ZM629.938 282.796C629.279 282.796 628.692 282.686 628.179 282.466C627.673 282.246 627.248 281.946 626.904 281.564C626.559 281.176 626.295 280.732 626.112 280.234C625.936 279.728 625.848 279.197 625.848 278.64V278.442C625.848 277.928 625.932 277.43 626.101 276.946C626.277 276.462 626.53 276.026 626.86 275.638C627.189 275.249 627.6 274.941 628.091 274.714C628.582 274.487 629.139 274.373 629.762 274.373C630.415 274.373 630.994 274.498 631.5 274.747C632.006 274.989 632.412 275.33 632.72 275.77C633.036 276.209 633.219 276.719 633.27 277.298H632.423C632.365 276.829 632.207 276.433 631.951 276.11C631.701 275.788 631.386 275.546 631.005 275.385C630.624 275.223 630.21 275.143 629.762 275.143C629.293 275.143 628.868 275.227 628.487 275.396C628.106 275.564 627.783 275.803 627.519 276.11C627.255 276.418 627.05 276.781 626.904 277.199C626.764 277.61 626.695 278.06 626.695 278.552C626.695 279.072 626.768 279.549 626.915 279.981C627.061 280.406 627.274 280.773 627.552 281.081C627.831 281.388 628.168 281.627 628.564 281.795C628.967 281.964 629.425 282.048 629.938 282.048C630.569 282.048 631.122 281.927 631.599 281.685C632.083 281.436 632.456 281.11 632.72 280.707L632.39 281.74V279.365H633.182V281.366C632.838 281.814 632.39 282.166 631.841 282.422C631.291 282.671 630.657 282.796 629.938 282.796ZM629.642 279.541V278.837H633.897V279.541H629.642ZM640.928 282.796C640.364 282.796 639.88 282.697 639.477 282.499C639.074 282.301 638.744 282.026 638.487 281.674C638.231 281.315 638.04 280.897 637.915 280.421C637.798 279.937 637.739 279.417 637.739 278.859V278.343C637.739 277.558 637.853 276.869 638.08 276.275C638.315 275.682 638.667 275.216 639.136 274.879C639.612 274.542 640.21 274.373 640.928 274.373C641.647 274.373 642.24 274.542 642.71 274.879C643.179 275.216 643.527 275.682 643.754 276.275C643.989 276.869 644.106 277.558 644.106 278.343V278.859C644.106 279.417 644.044 279.937 643.919 280.421C643.802 280.897 643.615 281.315 643.358 281.674C643.102 282.026 642.772 282.301 642.369 282.499C641.965 282.697 641.485 282.796 640.928 282.796ZM640.928 282.048C641.72 282.048 642.306 281.77 642.688 281.213C643.076 280.655 643.27 279.787 643.27 278.607C643.27 277.375 643.072 276.488 642.677 275.946C642.288 275.396 641.705 275.121 640.928 275.121C640.144 275.121 639.554 275.396 639.158 275.946C638.769 276.488 638.575 277.368 638.575 278.585C638.575 279.772 638.766 280.648 639.147 281.213C639.535 281.77 640.129 282.048 640.928 282.048ZM647.299 282.609V275.011L647.662 275.297H645.473V274.582H648.123V282.609H647.299Z" fill="#15191F"/>
<path d="M2.36316 9.8847V2.9747L2.69316 3.2347H0.703164V2.5847H3.11316V9.8847H2.36316ZM8.08332 10.0547C7.56999 10.0547 7.12999 9.9647 6.76332 9.7847C6.39665 9.6047 6.09665 9.3547 5.86332 9.0347C5.62999 8.70804 5.45665 8.32804 5.34332 7.8947C5.23665 7.4547 5.18332 6.98137 5.18332 6.4747V6.0047C5.18332 5.29137 5.28665 4.6647 5.49332 4.1247C5.70665 3.5847 6.02665 3.16137 6.45332 2.8547C6.88665 2.54804 7.42999 2.3947 8.08332 2.3947C8.73665 2.3947 9.27665 2.54804 9.70332 2.8547C10.13 3.16137 10.4467 3.5847 10.6533 4.1247C10.8667 4.6647 10.9733 5.29137 10.9733 6.0047V6.4747C10.9733 6.98137 10.9167 7.4547 10.8033 7.8947C10.6967 8.32804 10.5267 8.70804 10.2933 9.0347C10.06 9.3547 9.75999 9.6047 9.39332 9.7847C9.02665 9.9647 8.58999 10.0547 8.08332 10.0547ZM8.08332 9.3747C8.80332 9.3747 9.33665 9.12137 9.68332 8.6147C10.0367 8.10804 10.2133 7.31804 10.2133 6.2447C10.2133 5.1247 10.0333 4.31804 9.67332 3.8247C9.31999 3.3247 8.78999 3.0747 8.08332 3.0747C7.36999 3.0747 6.83332 3.3247 6.47332 3.8247C6.11999 4.31804 5.94332 5.11804 5.94332 6.2247C5.94332 7.3047 6.11665 8.10137 6.46332 8.6147C6.81665 9.12137 7.35665 9.3747 8.08332 9.3747ZM5.81852 30.3947C6.30518 30.3947 6.71852 30.4814 7.05852 30.6547C7.39852 30.8214 7.67185 31.058 7.87852 31.3647C8.09185 31.6714 8.24852 32.038 8.34852 32.4647C8.44852 32.8847 8.49852 33.3447 8.49852 33.8447V34.2647C8.49852 35.4514 8.22185 36.3614 7.66852 36.9947C7.11518 37.6214 6.28852 37.9347 5.18852 37.9347C4.96185 37.9347 4.75852 37.928 4.57852 37.9147C4.39852 37.9014 4.20518 37.8814 3.99852 37.8547V37.2047C4.20518 37.238 4.40518 37.2614 4.59852 37.2747C4.79185 37.288 5.00185 37.2947 5.22852 37.2947C5.85518 37.2947 6.35852 37.1747 6.73852 36.9347C7.11852 36.688 7.39185 36.3347 7.55852 35.8747C7.73185 35.4147 7.81852 34.858 7.81852 34.2047V33.4947L8.01852 32.9047C8.01185 33.4114 7.91185 33.8414 7.71852 34.1947C7.53185 34.548 7.26518 34.818 6.91852 35.0047C6.57185 35.1914 6.16518 35.2847 5.69852 35.2847C5.17852 35.2847 4.73852 35.178 4.37852 34.9647C4.01852 34.7514 3.74518 34.4614 3.55852 34.0947C3.37852 33.728 3.28852 33.318 3.28852 32.8647C3.28852 32.4047 3.38185 31.988 3.56852 31.6147C3.76185 31.2414 4.04518 30.9447 4.41852 30.7247C4.79185 30.5047 5.25852 30.3947 5.81852 30.3947ZM5.81852 31.0547C5.41852 31.0547 5.08185 31.1347 4.80852 31.2947C4.54185 31.4547 4.34185 31.6714 4.20852 31.9447C4.07518 32.218 4.00852 32.5247 4.00852 32.8647C4.00852 33.2047 4.07185 33.5114 4.19852 33.7847C4.33185 34.0514 4.52852 34.2647 4.78852 34.4247C5.05518 34.578 5.38185 34.6547 5.76852 34.6547C6.14852 34.6547 6.47852 34.5814 6.75852 34.4347C7.04518 34.288 7.26518 34.0814 7.41852 33.8147C7.57852 33.5414 7.65852 33.2214 7.65852 32.8547C7.65852 32.5414 7.59185 32.248 7.45852 31.9747C7.32518 31.7014 7.12185 31.4814 6.84852 31.3147C6.57518 31.1414 6.23185 31.0547 5.81852 31.0547ZM5.99547 66.0547C5.47547 66.0547 5.0188 65.9614 4.62547 65.7747C4.23214 65.5814 3.92547 65.3214 3.70547 64.9947C3.49214 64.668 3.38547 64.2947 3.38547 63.8747C3.38547 63.5614 3.4488 63.2814 3.57547 63.0347C3.7088 62.7814 3.88214 62.5714 4.09547 62.4047C4.3088 62.2314 4.54214 62.1047 4.79547 62.0247V61.9247C4.5888 61.8447 4.3988 61.7347 4.22547 61.5947C4.05214 61.448 3.9088 61.2714 3.79547 61.0647C3.6888 60.858 3.63547 60.6147 3.63547 60.3347C3.63547 59.9347 3.7388 59.5914 3.94547 59.3047C4.1588 59.018 4.44214 58.798 4.79547 58.6447C5.15547 58.4847 5.55547 58.4047 5.99547 58.4047C6.4488 58.4047 6.85214 58.4847 7.20547 58.6447C7.5588 58.798 7.8388 59.018 8.04547 59.3047C8.25214 59.5914 8.35547 59.9347 8.35547 60.3347C8.35547 60.6147 8.30214 60.858 8.19547 61.0647C8.09547 61.2714 7.95547 61.448 7.77547 61.5947C7.60214 61.7347 7.41214 61.8447 7.20547 61.9247V62.0247C7.46547 62.1047 7.70214 62.2314 7.91547 62.4047C8.1288 62.578 8.2988 62.788 8.42547 63.0347C8.55214 63.2814 8.61547 63.5614 8.61547 63.8747C8.61547 64.2947 8.50547 64.668 8.28547 64.9947C8.07214 65.3214 7.7688 65.5814 7.37547 65.7747C6.9888 65.9614 6.5288 66.0547 5.99547 66.0547ZM5.99547 65.4147C6.39547 65.4147 6.73547 65.348 7.01547 65.2147C7.29547 65.0814 7.5088 64.898 7.65547 64.6647C7.8088 64.4247 7.88547 64.1514 7.88547 63.8447C7.88547 63.538 7.81214 63.268 7.66547 63.0347C7.5188 62.8014 7.30547 62.618 7.02547 62.4847C6.74547 62.3514 6.40214 62.2847 5.99547 62.2847C5.60214 62.2847 5.26547 62.3514 4.98547 62.4847C4.70547 62.618 4.49214 62.8014 4.34547 63.0347C4.1988 63.268 4.12547 63.538 4.12547 63.8447C4.12547 64.1514 4.1988 64.4247 4.34547 64.6647C4.49214 64.898 4.70547 65.0814 4.98547 65.2147C5.26547 65.348 5.60214 65.4147 5.99547 65.4147ZM5.99547 61.6847C6.4888 61.6847 6.88214 61.5747 7.17547 61.3547C7.47547 61.128 7.62547 60.798 7.62547 60.3647C7.62547 59.9314 7.47547 59.6047 7.17547 59.3847C6.88214 59.1647 6.4888 59.0547 5.99547 59.0547C5.5088 59.0547 5.11547 59.1647 4.81547 59.3847C4.52214 59.6047 4.37547 59.9314 4.37547 60.3647C4.37547 60.798 4.52547 61.128 4.82547 61.3547C5.12547 61.5747 5.51547 61.6847 5.99547 61.6847ZM4.68285 93.8847L7.76285 87.3347L7.70285 87.2347H3.70285V86.5847H8.43285V87.5147L5.46285 93.8847H4.68285ZM3.70285 88.4547V86.5847H4.34285V88.4547H3.70285ZM6.17852 122.075C5.69185 122.075 5.27852 121.991 4.93852 121.825C4.59852 121.651 4.32185 121.411 4.10852 121.105C3.90185 120.798 3.74852 120.435 3.64852 120.015C3.54852 119.588 3.49852 119.125 3.49852 118.625V118.205C3.49852 117.018 3.77518 116.111 4.32852 115.485C4.88185 114.851 5.70852 114.535 6.80852 114.535C7.03518 114.535 7.23852 114.541 7.41852 114.555C7.59852 114.568 7.79185 114.588 7.99852 114.615V115.265C7.79185 115.231 7.59185 115.208 7.39852 115.195C7.20518 115.181 6.99518 115.175 6.76852 115.175C6.14185 115.175 5.63852 115.298 5.25852 115.545C4.87852 115.785 4.60185 116.135 4.42852 116.595C4.26185 117.055 4.17852 117.611 4.17852 118.265V118.975L3.97852 119.565C3.98518 119.058 4.08185 118.628 4.26852 118.275C4.46185 117.921 4.73185 117.651 5.07852 117.465C5.42518 117.278 5.83185 117.185 6.29852 117.185C6.81852 117.185 7.25852 117.291 7.61852 117.505C7.97852 117.718 8.24852 118.008 8.42852 118.375C8.61518 118.741 8.70852 119.151 8.70852 119.605C8.70852 120.065 8.61185 120.481 8.41852 120.855C8.23185 121.228 7.95185 121.525 7.57852 121.745C7.20518 121.965 6.73852 122.075 6.17852 122.075ZM6.17852 121.415C6.57852 121.415 6.91185 121.335 7.17852 121.175C7.45185 121.015 7.65518 120.798 7.78852 120.525C7.92185 120.251 7.98852 119.945 7.98852 119.605C7.98852 119.265 7.92185 118.961 7.78852 118.695C7.66185 118.421 7.46518 118.208 7.19852 118.055C6.93852 117.895 6.61518 117.815 6.22852 117.815C5.84852 117.815 5.51518 117.888 5.22852 118.035C4.94852 118.181 4.72852 118.391 4.56852 118.665C4.41518 118.931 4.33852 119.248 4.33852 119.615C4.33852 119.928 4.40518 120.221 4.53852 120.495C4.67185 120.768 4.87518 120.991 5.14852 121.165C5.42185 121.331 5.76518 121.415 6.17852 121.415ZM6.04406 150.055C5.49073 150.055 5.0274 149.945 4.65406 149.725C4.28073 149.498 3.9974 149.201 3.80406 148.835C3.61073 148.468 3.51406 148.075 3.51406 147.655H4.24406C4.24406 147.988 4.31406 148.285 4.45406 148.545C4.60073 148.805 4.8074 149.011 5.07406 149.165C5.34073 149.318 5.66406 149.395 6.04406 149.395C6.42406 149.395 6.7474 149.321 7.01406 149.175C7.28073 149.021 7.48406 148.815 7.62406 148.555C7.77073 148.288 7.84406 147.988 7.84406 147.655C7.84406 147.328 7.77406 147.031 7.63406 146.765C7.49406 146.498 7.2874 146.288 7.01406 146.135C6.7474 145.975 6.42406 145.895 6.04406 145.895C5.7774 145.895 5.51406 145.941 5.25406 146.035C4.99406 146.121 4.7774 146.251 4.60406 146.425H3.91406L4.29406 142.585H7.92406V143.235H4.70406L4.91406 142.975L4.61406 145.975L4.38406 145.925C4.59073 145.718 4.83406 145.555 5.11406 145.435C5.39406 145.315 5.71406 145.255 6.07406 145.255C6.62073 145.255 7.08073 145.368 7.45406 145.595C7.8274 145.821 8.1074 146.115 8.29406 146.475C8.4874 146.828 8.58406 147.201 8.58406 147.595V147.725C8.58406 148.118 8.4874 148.495 8.29406 148.855C8.10073 149.208 7.81406 149.498 7.43406 149.725C7.06073 149.945 6.5974 150.055 6.04406 150.055ZM3.3557 176.065V175.125L6.4557 170.445L6.9757 170.855L4.0357 175.315L4.1157 175.465H8.8757V176.065H3.3557ZM7.1757 177.885V172.745H7.8757V177.885H7.1757ZM5.92313 206.055C5.38979 206.055 4.93646 205.951 4.56313 205.745C4.19646 205.538 3.91646 205.258 3.72313 204.905C3.52979 204.551 3.43313 204.165 3.43313 203.745H4.16313C4.16313 204.251 4.31979 204.655 4.63313 204.955C4.94646 205.248 5.37646 205.395 5.92313 205.395C6.27646 205.395 6.58313 205.328 6.84313 205.195C7.10979 205.061 7.31313 204.871 7.45313 204.625C7.59979 204.378 7.67313 204.091 7.67313 203.765C7.67313 203.265 7.51646 202.861 7.20313 202.555C6.88979 202.248 6.46646 202.095 5.93313 202.095C5.71979 202.095 5.53646 202.121 5.38313 202.175C5.22979 202.221 5.09313 202.281 4.97313 202.355L4.56313 201.655L7.47313 199.395L7.39313 199.235H3.72313V198.585H8.09312V199.665L5.51313 201.675L5.02313 201.685C5.14313 201.631 5.27979 201.588 5.43313 201.555C5.58646 201.515 5.76313 201.495 5.96313 201.495C6.47646 201.495 6.91313 201.595 7.27313 201.795C7.63979 201.995 7.91979 202.261 8.11313 202.595C8.30646 202.928 8.40313 203.295 8.40313 203.695V203.835C8.40313 204.221 8.30646 204.585 8.11313 204.925C7.91979 205.265 7.63979 205.538 7.27313 205.745C6.90646 205.951 6.45646 206.055 5.92313 206.055ZM3.73871 233.885V232.775C3.73871 232.488 3.77871 232.245 3.85871 232.045C3.93871 231.845 4.07871 231.661 4.27871 231.495C4.47871 231.328 4.75204 231.168 5.09871 231.015L6.52871 230.345C6.87538 230.185 7.15204 229.975 7.35871 229.715C7.56538 229.455 7.66871 229.115 7.66871 228.695C7.66871 228.181 7.52204 227.781 7.22871 227.495C6.94204 227.201 6.54538 227.055 6.03871 227.055C5.53871 227.055 5.13871 227.201 4.83871 227.495C4.54538 227.781 4.39871 228.181 4.39871 228.695H3.66871C3.66871 228.261 3.75871 227.871 3.93871 227.525C4.11871 227.178 4.38538 226.905 4.73871 226.705C5.09204 226.498 5.52538 226.395 6.03871 226.395C6.55871 226.395 6.99204 226.498 7.33871 226.705C7.68538 226.905 7.94871 227.175 8.12871 227.515C8.30871 227.848 8.39871 228.218 8.39871 228.625V228.765C8.39871 229.285 8.24871 229.721 7.94871 230.075C7.65538 230.421 7.26871 230.708 6.78871 230.935L5.34871 231.605C5.00871 231.758 4.77871 231.918 4.65871 232.085C4.54538 232.245 4.48871 232.451 4.48871 232.705V233.595L4.26871 233.235H8.51871V233.885H3.73871ZM6.03992 261.885V254.975L6.36992 255.235H4.37992V254.585H6.78992V261.885H6.03992ZM6.00324 290.055C5.48991 290.055 5.04991 289.965 4.68324 289.785C4.31658 289.605 4.01658 289.355 3.78324 289.035C3.54991 288.708 3.37658 288.328 3.26324 287.895C3.15658 287.455 3.10324 286.981 3.10324 286.475V286.005C3.10324 285.291 3.20658 284.665 3.41324 284.125C3.62658 283.585 3.94658 283.161 4.37324 282.855C4.80658 282.548 5.34991 282.395 6.00324 282.395C6.65658 282.395 7.19658 282.548 7.62324 282.855C8.04991 283.161 8.36658 283.585 8.57324 284.125C8.78658 284.665 8.89324 285.291 8.89324 286.005V286.475C8.89324 286.981 8.83658 287.455 8.72324 287.895C8.61658 288.328 8.44658 288.708 8.21324 289.035C7.97991 289.355 7.67991 289.605 7.31324 289.785C6.94658 289.965 6.50991 290.055 6.00324 290.055ZM6.00324 289.375C6.72324 289.375 7.25658 289.121 7.60324 288.615C7.95658 288.108 8.13324 287.318 8.13324 286.245C8.13324 285.125 7.95324 284.318 7.59324 283.825C7.23991 283.325 6.70991 283.075 6.00324 283.075C5.28991 283.075 4.75324 283.325 4.39324 283.825C4.03991 284.318 3.86324 285.118 3.86324 286.225C3.86324 287.305 4.03658 288.101 4.38324 288.615C4.73658 289.121 5.27658 289.375 6.00324 289.375Z" fill="#15191F"/>
<rect x="48.5" y="114.753" width="11" height="9.59649" rx="4.79825" fill="#CEA666" stroke="#C4CEE4" stroke-width="3"/>
<rect x="106.5" y="205.628" width="11" height="9.59649" rx="4.79825" fill="#CEA666" stroke="#C4CEE4" stroke-width="3"/>
<rect x="161.5" y="66.1667" width="11" height="9.59649" rx="4.79825" fill="#CEA666" stroke="#C4CEE4" stroke-width="3"/>
<rect x="219.5" y="41.8734" width="11" height="9.59649" rx="4.79825" fill="#CEA666" stroke="#C4CEE4" stroke-width="3"/>
<rect x="305.5" y="63.4674" width="11" height="9.59649" rx="4.79825" fill="#CEA666" stroke="#C4CEE4" stroke-width="3"/>
<rect x="361.5" y="134.548" width="11" height="9.59649" rx="4.79825" fill="#CEA666" stroke="#C4CEE4" stroke-width="3"/>
<rect x="419.5" y="112.954" width="11" height="9.59649" rx="4.79825" fill="#CEA666" stroke="#C4CEE4" stroke-width="3"/>
<rect x="474.5" y="45.4724" width="11" height="9.59649" rx="4.79825" fill="#CEA666" stroke="#C4CEE4" stroke-width="3"/>
<rect x="532.5" y="114.753" width="11" height="9.59649" rx="4.79825" fill="#CEA666" stroke="#C4CEE4" stroke-width="3"/>
<rect x="616.5" y="41.8734" width="11" height="9.59649" rx="4.79825" fill="#CEA666" stroke="#C4CEE4" stroke-width="3"/>
</svg>
