<svg width="19" height="18" viewBox="0 0 19 18" fill="none" xmlns="http://www.w3.org/2000/svg">
<path d="M13 15.5C10.5 15.5 8.32 14.08 7.24 12H13L14 10H6.58C6.53 9.67 6.5 9.34 6.5 9C6.5 8.66 6.53 8.33 6.58 8H13L14 6H7.24C7.78766 4.94519 8.61441 4.06098 9.63012 3.4438C10.6458 2.82662 11.8115 2.50015 13 2.5C14.61 2.5 16.09 3.09 17.23 4.07L19 2.3C17.3534 0.81747 15.2157 -0.00199669 13 3.65354e-06C9.08 3.65354e-06 5.76 2.5 4.5 6H1L0 8H4.06C4 8.33 4 8.66 4 9C4 9.34 4 9.67 4.06 10H1L0 12H4.5C5.76 15.5 9.08 18 13 18C15.31 18 17.41 17.13 19 15.7L17.22 13.93C16.09 14.91 14.62 15.5 13 15.5Z" fill="#CEA666"/>
</svg>
