<svg width="117" height="42" viewBox="0 0 117 42" fill="none" xmlns="http://www.w3.org/2000/svg">
<rect width="117" height="42" rx="5" fill="white"/>
<rect x="3" y="3" width="36" height="36" rx="2" fill="#F0F3F8"/>
<path d="M54.2806 18.0448V20.0442H57.505V21.9027H54.2806V24.071H57.9274V26H51.873V16.1158H57.9274V18.0448H54.2806ZM61.8559 16.1158V22.0294C61.8559 22.6208 62.0014 23.0761 62.2924 23.3952C62.5834 23.7143 63.0105 23.8739 63.5737 23.8739C64.1369 23.8739 64.5686 23.7143 64.869 23.3952C65.1694 23.0761 65.3196 22.6208 65.3196 22.0294V16.1158H67.7273V22.0154C67.7273 22.8977 67.5395 23.6439 67.1641 24.2541C66.7886 24.8642 66.2817 25.3242 65.6434 25.6339C65.0145 25.9437 64.3105 26.0986 63.5314 26.0986C62.7523 26.0986 62.053 25.9484 61.4335 25.648C60.8234 25.3382 60.34 24.8783 59.9833 24.2682C59.6266 23.6486 59.4482 22.8977 59.4482 22.0154V16.1158H61.8559ZM74.4586 26L72.4029 22.2688H71.8256V26H69.418V16.1158H73.4589C74.238 16.1158 74.8998 16.2519 75.4442 16.5242C75.998 16.7964 76.411 17.1718 76.6832 17.6506C76.9555 18.1199 77.0916 18.6455 77.0916 19.2275C77.0916 19.8846 76.9038 20.4713 76.5284 20.9875C76.1623 21.5038 75.6179 21.8699 74.8951 22.0858L77.176 26H74.4586ZM71.8256 20.5651H73.3181C73.7593 20.5651 74.0878 20.4572 74.3037 20.2413C74.529 20.0254 74.6416 19.7203 74.6416 19.3261C74.6416 18.9506 74.529 18.6549 74.3037 18.439C74.0878 18.2231 73.7593 18.1152 73.3181 18.1152H71.8256V20.5651Z" fill="#15191F"/>
<path d="M88.7851 18.2803L95.6103 26.2452C95.7203 26.3735 95.8568 26.4765 96.0103 26.5471C96.1639 26.6177 96.3309 26.6543 96.4999 26.6543C96.6689 26.6543 96.836 26.6177 96.9895 26.5471C97.1431 26.4765 97.2796 26.3735 97.3896 26.2452L104.215 18.2804C104.866 17.5201 104.326 16.3458 103.325 16.3458L89.6728 16.3458C88.6718 16.3458 88.1318 17.5201 88.7851 18.2803Z" fill="#CEA666"/>
<path d="M24 27.5C21.5 27.5 19.32 26.08 18.24 24H24L25 22H17.58C17.53 21.67 17.5 21.34 17.5 21C17.5 20.66 17.53 20.33 17.58 20H24L25 18H18.24C18.7877 16.9452 19.6144 16.061 20.6301 15.4438C21.6458 14.8266 22.8115 14.5002 24 14.5C25.61 14.5 27.09 15.09 28.23 16.07L30 14.3C28.3534 12.8175 26.2157 11.998 24 12C20.08 12 16.76 14.5 15.5 18H12L11 20H15.06C15 20.33 15 20.66 15 21C15 21.34 15 21.67 15.06 22H12L11 24H15.5C16.76 27.5 20.08 30 24 30C26.31 30 28.41 29.13 30 27.7L28.22 25.93C27.09 26.91 25.62 27.5 24 27.5Z" fill="#CEA666"/>
</svg>
