<svg width="197" height="165" viewBox="0 0 197 165" fill="none" xmlns="http://www.w3.org/2000/svg">
<line y1="143.744" x2="196.385" y2="143.744" stroke="#212632" stroke-width="0.5"/>
<line x1="10.291" y1="153.869" x2="31.7304" y2="153.869" stroke="#212632" stroke-width="0.5"/>
<line x1="43.3848" y1="158.75" x2="64.8242" y2="158.75" stroke="#212632" stroke-width="0.5"/>
<line x1="59.1729" y1="157.244" x2="80.6123" y2="157.244" stroke="#212632" stroke-width="0.5"/>
<line x1="156.079" y1="157.244" x2="177.519" y2="157.244" stroke="#212632" stroke-width="0.5"/>
<line x1="33.4458" y1="153.869" x2="38.5913" y2="153.869" stroke="#212632" stroke-width="0.5"/>
<line x1="131.385" y1="159.493" x2="136.53" y2="159.493" stroke="#212632" stroke-width="0.5"/>
<line x1="147.503" y1="152.744" x2="156.936" y2="152.744" stroke="#212632" stroke-width="0.5"/>
<path d="M154.144 54.0154V40.9614V54.0154ZM154.144 54.0154C154.143 54.4737 154.233 54.9276 154.407 55.3512C154.582 55.7748 154.839 56.1598 155.163 56.4841C155.487 56.8084 155.871 57.0656 156.295 57.2412C156.718 57.4167 157.172 57.5071 157.63 57.5071H163.46L166.064 60.9115C166.264 61.1731 166.522 61.385 166.817 61.5309C167.113 61.6767 167.437 61.7526 167.767 61.7526C168.096 61.7526 168.421 61.6767 168.716 61.5309C169.011 61.385 169.269 61.1731 169.469 60.9115L172.074 57.5071H177.903C178.362 57.5071 178.815 57.4167 179.239 57.2412C179.662 57.0656 180.047 56.8084 180.37 56.4841C180.694 56.1598 180.951 55.7748 181.126 55.3512C181.301 54.9276 181.39 54.4737 181.39 54.0154V40.9614L154.144 54.0154ZM154.394 40.9614L154.394 40.961C154.393 40.5356 154.476 40.1142 154.639 39.721C154.801 39.3278 155.039 38.9704 155.34 38.6694C155.64 38.3683 155.997 38.1295 156.39 37.9665C156.783 37.8036 157.205 37.7197 157.63 37.7197H177.903C178.329 37.7197 178.75 37.8036 179.143 37.9665C179.536 38.1295 179.893 38.3683 180.194 38.6694C180.494 38.9704 180.732 39.3278 180.895 39.721C181.057 40.1142 181.14 40.5356 181.14 40.961V40.9614V54.0154V54.0158C181.14 54.4412 181.057 54.8626 180.895 55.2558C180.732 55.649 180.494 56.0064 180.194 56.3074C179.893 56.6085 179.536 56.8473 179.143 57.0102C178.75 57.1732 178.329 57.2571 177.903 57.2571H172.074H171.95L171.875 57.3551L169.27 60.7596L169.27 60.7597C169.094 60.9907 168.866 61.1779 168.605 61.3067C168.344 61.4356 168.058 61.5026 167.767 61.5026C167.476 61.5026 167.189 61.4356 166.928 61.3067C166.667 61.1779 166.44 60.9907 166.263 60.7597L166.263 60.7596L163.658 57.3551L163.583 57.2571H163.46H157.63C157.205 57.2571 156.783 57.1732 156.39 57.0102C155.997 56.8473 155.64 56.6085 155.34 56.3074C155.039 56.0064 154.801 55.649 154.639 55.2558C154.476 54.8626 154.393 54.4412 154.394 54.0158V54.0154L154.394 40.9614Z" stroke="#212632" stroke-width="0.5"/>
<path d="M163.409 48.8839C162.973 48.4948 162.62 48.0219 162.371 47.4934C162.121 46.9648 161.981 46.3915 161.958 45.8076C161.936 45.4363 161.994 45.0646 162.126 44.7171C162.259 44.3697 162.464 44.0544 162.728 43.7921C162.991 43.5298 163.308 43.3266 163.656 43.1958C164.004 43.0651 164.376 43.0099 164.747 43.0337C166.316 43.0337 166.85 43.7618 167.767 44.8129C168.685 43.7874 169.218 43.0337 170.787 43.0337C171.158 43.0099 171.53 43.0651 171.879 43.1958C172.227 43.3266 172.543 43.5298 172.807 43.7921C173.071 44.0544 173.276 44.3697 173.408 44.7171C173.541 45.0646 173.598 45.4363 173.577 45.8076C173.554 46.3915 173.413 46.9648 173.164 47.4934C172.915 48.0219 172.561 48.4948 172.126 48.8839L167.767 53.2216L163.409 48.8839Z" fill="#CEA666"/>
<path d="M147.918 23.122L147.843 23.0238H147.719H141.029C140.032 23.0225 139.077 22.6259 138.373 21.921C137.669 21.2161 137.274 20.2606 137.274 19.2643V4.28759C137.274 3.29187 137.669 2.33692 138.374 1.63284C139.078 0.928754 140.033 0.533203 141.028 0.533203H164.285C165.278 0.537143 166.229 0.934364 166.93 1.63792C167.631 2.3416 168.025 3.29436 168.025 4.28759V19.2643C168.025 20.2614 167.628 21.2176 166.923 21.9227C166.218 22.6277 165.262 23.0238 164.265 23.0238H157.6H157.476L157.401 23.1218L154.412 27.0236L154.412 27.0241C154.206 27.2943 153.94 27.5133 153.636 27.664C153.332 27.8147 152.997 27.8931 152.657 27.8931C152.317 27.8931 151.982 27.8147 151.678 27.664C151.374 27.5133 151.108 27.2943 150.902 27.0241L150.902 27.0238L147.918 23.122Z" stroke="#212632" stroke-width="0.5"/>
<path d="M146.831 16.0417H148.759V9.29199H146.509L146.831 16.0417Z" fill="#CEA666"/>
<path d="M158.733 9.83359C158.626 9.48904 158.29 8.76592 157.97 8.62129C157.047 8.19592 155.024 8.32779 153.235 8.57025C153.309 8.42137 153.371 8.2895 153.408 8.19592C153.622 7.63628 153.748 7.04455 153.781 6.44341C153.752 6.01804 153.568 5.11626 153.235 4.89507C153.104 4.8279 152.959 4.79297 152.813 4.79297C152.666 4.79297 152.522 4.8279 152.39 4.89507C152.033 5.28215 152.28 6.4987 152.14 7.02191C151.826 7.73134 151.411 8.38801 150.909 8.97009C150.282 9.08919 149.884 9.17852 149.884 9.17852V16.0397C149.884 16.0397 155.287 17.5625 157.026 17.0691C157.695 16.8819 158.011 15.6781 158.257 15.0061C158.704 13.798 159.114 11.0757 158.733 9.83359Z" fill="#CEA666"/>
<path d="M105.216 13.3151L105.216 13.3151C105.103 11.9101 104.465 10.5993 103.429 9.64343C102.393 8.68755 101.035 8.15663 99.6256 8.15625C99.6256 8.15625 99.6256 8.15625 99.6256 8.15625M105.216 13.3151L99.6256 7.90625L99.6256 8.15625M105.216 13.3151L105.217 13.3195L105.543 16.6341M105.216 13.3151L105.543 16.6341M99.6256 8.15625H95.4111M99.6256 8.15625H95.4111M95.4111 8.15625C95.4111 8.15625 95.411 8.15625 95.411 8.15625C94.0015 8.15663 92.6437 8.68755 91.6078 9.64343C90.5719 10.5993 89.9337 11.9101 89.8203 13.3151L89.8199 13.3195L89.8199 13.3195L89.4931 16.6341H105.543M95.4111 8.15625L105.543 16.6341" stroke="#212632" stroke-width="0.5"/>
<path d="M101.221 3.95311C101.221 5.99829 99.5632 7.65623 97.5181 7.65623C95.4729 7.65623 93.8149 5.99829 93.8149 3.95311C93.8149 1.90794 95.4729 0.25 97.5181 0.25C99.5632 0.25 101.221 1.90794 101.221 3.95311Z" stroke="#212632" stroke-width="0.5"/>
<path d="M14.5135 76.8525C14.5135 77.4531 14.3091 78.0358 13.934 78.5048C13.5589 78.9738 13.0354 79.3013 12.4496 79.4333C11.8637 79.5654 11.2504 79.4942 10.7103 79.2314C10.1703 78.9687 9.73574 78.53 9.47807 77.9875C9.22039 77.4451 9.15495 76.8311 9.29249 76.2465C9.43003 75.6619 9.76238 75.1415 10.2349 74.7708C10.7074 74.4001 11.292 74.2012 11.8925 74.2068C12.493 74.2125 13.0738 74.4222 13.5393 74.8016L16.7131 72.238C16.5245 71.8689 16.4262 71.4604 16.4262 71.0459C16.4262 70.6314 16.5245 70.2229 16.7131 69.8538L13.5393 67.2902C13.0738 67.6696 12.493 67.8794 11.8925 67.885C11.292 67.8906 10.7074 67.6917 10.2349 67.321C9.76238 66.9503 9.43003 66.4299 9.29249 65.8453C9.15495 65.2607 9.22039 64.6467 9.47807 64.1043C9.73574 63.5618 10.1703 63.1231 10.7103 62.8604C11.2504 62.5977 11.8637 62.5264 12.4496 62.6585C13.0354 62.7906 13.5589 63.118 13.934 63.587C14.3091 64.056 14.5135 64.6387 14.5135 65.2393C14.5152 65.6532 14.4167 66.0613 14.2264 66.4288L17.4001 68.9924C17.8729 68.6096 18.4633 68.4013 19.0716 68.4028L14.5135 76.8525ZM14.5135 76.8525C14.514 76.4388 14.4156 76.0309 14.2264 75.663L14.5135 76.8525ZM19.071 68.6528H19.0716C19.4553 68.6528 19.8333 68.745 20.174 68.9216C20.5146 69.0981 20.8078 69.3539 21.029 69.6674C21.2502 69.9809 21.3928 70.343 21.4449 70.7231C21.4971 71.1032 21.4571 71.4903 21.3285 71.8517C21.1998 72.2132 20.9862 72.5385 20.7057 72.8002C20.4252 73.0619 20.0859 73.2524 19.7164 73.3557C19.3469 73.459 18.958 73.472 18.5824 73.3937C18.2068 73.3153 17.8555 73.148 17.5581 72.9056L17.4008 72.7774L17.2431 72.9049L14.0693 75.4685L13.911 75.5964L14.004 75.7773C14.175 76.1098 14.264 76.4784 14.2635 76.8522V76.8525C14.2635 77.3963 14.0784 77.9239 13.7388 78.3486C13.3991 78.7733 12.9251 79.0699 12.3946 79.1894C11.8641 79.309 11.3087 79.2445 10.8197 79.0066C10.3307 78.7687 9.93721 78.3715 9.70389 77.8803C9.47056 77.3891 9.4113 76.8331 9.53585 76.3037C9.66039 75.7744 9.96133 75.3031 10.3892 74.9675C10.8171 74.6319 11.3464 74.4518 11.8902 74.4568C12.434 74.4619 12.9598 74.6518 13.3814 74.9954L13.5386 75.1236L13.6964 74.9961L16.8702 72.4325L17.0281 72.305L16.9357 72.1242C16.7651 71.7904 16.6762 71.4208 16.6762 71.0459C16.6762 70.671 16.7651 70.3014 16.9357 69.9676L17.0281 69.7869L16.8702 69.6593L13.6964 67.0957L13.5386 66.9682L13.3814 67.0964C12.9598 67.44 12.434 67.6299 11.8902 67.635C11.3464 67.64 10.8171 67.46 10.3892 67.1243C9.96133 66.7887 9.66039 66.3174 9.53585 65.7881C9.4113 65.2587 9.47056 64.7028 9.70389 64.2115C9.93721 63.7203 10.3307 63.3231 10.8197 63.0852C11.3087 62.8473 11.8641 62.7828 12.3946 62.9024C12.9251 63.022 13.3991 63.3185 13.7388 63.7432C14.0784 64.1679 14.2635 64.6955 14.2635 65.2393L14.2635 65.2403C14.2651 65.6138 14.1761 65.9822 14.0044 66.3138L13.9105 66.4951L14.0693 66.6233L17.2431 69.1869L17.4003 69.314L17.5575 69.1867C17.9856 68.84 18.5201 68.6515 19.071 68.6528Z" stroke="#212632" stroke-width="0.5"/>
<path d="M147.181 92.4756H185.989C187.419 92.4756 188.791 93.0439 189.803 94.0554C190.815 95.067 191.383 96.4389 191.383 97.8695V127.367C191.383 128.797 190.815 130.169 189.803 131.181C188.791 132.192 187.419 132.76 185.989 132.76H156.687C156.404 135.066 155.29 137.19 153.553 138.733C151.816 140.275 149.576 141.131 147.253 141.138C147.037 141.138 146.827 141.138 146.612 141.108C148.15 139.108 149.365 136.216 150.175 132.766H147.206C145.776 132.766 144.404 132.197 143.392 131.186C142.381 130.174 141.813 128.802 141.813 127.372V97.8695C141.812 96.4433 142.377 95.0753 143.383 94.0645C144.389 93.0536 145.755 92.4824 147.181 92.4756Z" fill="#CEA666"/>
<path opacity="0.4" d="M147.181 92.4756H185.989C187.419 92.4756 188.791 93.0439 189.803 94.0554C190.815 95.067 191.383 96.4389 191.383 97.8695V127.367C191.383 128.797 190.815 130.169 189.803 131.181C188.791 132.192 187.419 132.76 185.989 132.76H156.687C156.404 135.066 155.29 137.19 153.553 138.733C151.816 140.275 149.576 141.131 147.253 141.138C147.037 141.138 146.827 141.138 146.612 141.108C148.15 139.108 149.365 136.216 150.175 132.766H147.206C145.776 132.766 144.404 132.197 143.392 131.186C142.381 130.174 141.813 128.802 141.813 127.372V97.8695C141.812 96.4433 142.377 95.0753 143.383 94.0645C144.389 93.0536 145.755 92.4824 147.181 92.4756Z" fill="white"/>
<path d="M145.345 103.945L143.428 100.7L144.628 98.6487C144.705 98.5157 144.752 98.3669 144.765 98.2134C144.777 98.0598 144.755 97.9054 144.699 97.7617L144.607 97.5309C144.535 97.3387 144.408 97.1724 144.24 97.0536C144.073 96.9348 143.874 96.8689 143.669 96.8644L141.787 96.8131C141.596 96.8065 141.407 96.8534 141.241 96.9485C141.075 97.0436 140.94 97.1832 140.849 97.3515L140.469 98.0488C140.378 98.2169 140.327 98.4043 140.32 98.5957C140.314 98.7871 140.353 98.9774 140.434 99.1511L141.244 100.9L142.746 104.919L145.345 103.945Z" fill="#7F3E3B"/>
<path d="M160.619 103.376L149.662 111.349L144.535 101.72L141.612 102.986C141.612 102.986 146.119 117.578 148.739 116.989C151.359 116.399 158.753 112.743 161.157 110.236C162.373 108.97 163.295 106.647 162.096 103.776C162.04 103.638 161.954 103.515 161.843 103.417C161.732 103.318 161.6 103.247 161.457 103.208C161.314 103.17 161.164 103.165 161.018 103.194C160.873 103.223 160.736 103.285 160.619 103.376Z" fill="#CEA666"/>
<path d="M164.711 84.3896C164.711 84.3896 160.845 85.4151 162.634 90.0758C162.634 90.0758 164.562 89.563 164.875 88.3222C165.187 87.0814 165.485 85.3279 165.485 85.3279L164.711 84.3896Z" fill="#263238"/>
<path opacity="0.3" d="M164.711 84.3896C164.711 84.3896 160.845 85.4151 162.634 90.0758C162.634 90.0758 164.562 89.563 164.875 88.3222C165.187 87.0814 165.485 85.3279 165.485 85.3279L164.711 84.3896Z" fill="#263238"/>
<path d="M173.852 102.915L166.787 102.685L163.864 103.105L163.464 108.432L169.161 110.324L175.237 109.114L175.554 103.982L175.119 102.956L173.852 102.915Z" fill="#7F3E3B"/>
<path d="M164.234 132.761H174.232C174.33 129.238 174.853 110.949 174.745 111.062C174.637 111.175 175.801 107.166 175.801 107.166V105.54L174.745 103.797C174.745 103.797 172.479 107.253 168.746 107.083C165.208 106.919 164.598 103.387 164.598 103.387L164.173 108.786L163.727 121.86L164.296 127.398L164.234 132.761Z" fill="#CEA666"/>
<path opacity="0.6" d="M164.234 132.761H174.232C174.33 129.238 174.853 110.949 174.745 111.062C174.637 111.175 175.801 107.166 175.801 107.166V105.54L174.745 103.797C174.745 103.797 172.479 107.253 168.746 107.083C165.208 106.919 164.598 103.387 164.598 103.387L164.173 108.786L163.727 121.86L164.296 127.398L164.234 132.761Z" fill="white"/>
<path d="M160.255 132.761H165.67C166.736 125.706 166.88 112.805 166.88 112.805C166.233 110.336 165.728 107.831 165.367 105.304C165.039 102.346 169.264 102.741 172.956 103.228C176.647 103.715 170.084 113.052 170.084 113.052C170.084 113.052 169.618 125.67 170.7 132.761H184.03C183.364 130.879 181.395 125.101 180.954 121.004C180.385 116.051 183.795 108.827 183.308 105.304C182.82 101.782 171.135 102.5 171.135 102.5C171.135 102.5 163.655 102.448 161.988 102.525C160.04 102.612 159.261 107.745 158.338 111.8C157.415 115.856 159.112 119.871 160.04 124.972C160.5 127.543 160.573 130.168 160.255 132.761Z" fill="#263238"/>
<path d="M166.223 102.485C168.654 102.485 171.161 102.485 171.161 102.485C171.161 102.485 172.653 102.392 174.591 102.433C175.365 102.946 176.386 104.187 175.575 106.781L173.883 107.432L174.191 109.099C174.191 109.099 172.243 112.175 170.089 113.354C170.089 113.149 170.089 113.037 170.089 113.037C170.089 113.037 176.657 103.7 172.961 103.213C169.264 102.726 165.044 102.331 165.372 105.289C165.733 107.816 166.238 110.321 166.885 112.79C166.885 112.79 166.885 112.842 166.885 112.929C165.859 112.001 164.962 110.365 164.321 108.407L165.013 106.489L163.475 105.648C163.606 104.922 163.931 104.246 164.415 103.689C164.898 103.132 165.523 102.716 166.223 102.485Z" fill="#CEA666"/>
<path d="M166.12 105.278C166.002 105.006 165.954 104.708 165.98 104.412C166.007 104.117 166.108 103.832 166.274 103.586C169.053 102.648 168.796 100.561 168.155 98.628L172.632 94.0596C172.37 96.4899 172.273 102.084 173.862 104.032V104.478C173.171 105.366 172.246 106.045 171.191 106.437C170.136 106.829 168.992 106.919 167.889 106.698C167.497 106.632 167.129 106.467 166.82 106.218C166.51 105.97 166.269 105.646 166.12 105.278Z" fill="#7F3E3B"/>
<path opacity="0.1" d="M168.156 98.6291L171.714 94.999L172.534 95.2964C172.509 95.7322 172.493 96.2091 172.488 96.7115C172.037 97.6344 170.95 98.9316 168.428 99.5828C168.354 99.2602 168.264 98.9418 168.156 98.6291Z" fill="#263238"/>
<path d="M174.939 90.0298C173.857 94.1675 173.488 95.9415 170.95 97.6745C167.135 100.284 162.29 98.0539 162.111 93.6752C161.952 89.7324 163.741 83.6309 168.171 82.7696C169.146 82.5754 170.155 82.6337 171.101 82.9389C172.048 83.2441 172.901 83.7861 173.579 84.5134C174.257 85.2408 174.738 86.1293 174.976 87.0948C175.214 88.0602 175.201 89.0705 174.939 90.0298Z" fill="#7F3E3B"/>
<path d="M165.08 91.0967C164.623 91.8154 164.071 92.469 163.439 93.0399C163.587 93.1978 163.768 93.3213 163.969 93.4019C164.17 93.4825 164.387 93.5182 164.603 93.5065L165.08 91.0967Z" fill="#630F0F"/>
<path d="M169.494 89.5741C169.523 89.5728 169.552 89.564 169.576 89.5485C169.596 89.5374 169.612 89.5226 169.626 89.5048C169.639 89.4871 169.649 89.4668 169.654 89.4452C169.659 89.4236 169.66 89.4012 169.656 89.3793C169.653 89.3574 169.645 89.3365 169.633 89.3178C169.476 89.0407 169.253 88.8059 168.986 88.6335C168.718 88.4612 168.412 88.3564 168.095 88.3282C168.072 88.3275 168.05 88.3312 168.029 88.3391C168.009 88.347 167.99 88.3589 167.973 88.3741C167.957 88.3894 167.944 88.4076 167.935 88.4279C167.926 88.4482 167.921 88.4701 167.92 88.4923C167.919 88.5142 167.922 88.5363 167.929 88.557C167.937 88.5778 167.948 88.5969 167.963 88.6131C167.978 88.6294 167.996 88.6425 168.016 88.6517C168.036 88.6609 168.057 88.666 168.079 88.6666C168.34 88.6956 168.59 88.7859 168.81 88.9303C169.029 89.0747 169.211 89.269 169.34 89.4972C169.357 89.5222 169.38 89.5425 169.407 89.556C169.434 89.5694 169.464 89.5757 169.494 89.5741Z" fill="#263238"/>
<path d="M162.634 88.3285C162.661 88.3362 162.689 88.3362 162.716 88.3285C162.941 88.1947 163.194 88.1161 163.455 88.0992C163.717 88.0823 163.978 88.1274 164.218 88.2311C164.259 88.2512 164.305 88.255 164.348 88.2416C164.391 88.2282 164.427 88.1987 164.449 88.1593C164.459 88.1392 164.466 88.1171 164.468 88.0945C164.469 88.0719 164.467 88.0491 164.459 88.0276C164.452 88.0061 164.441 87.9862 164.426 87.9692C164.411 87.9522 164.393 87.9384 164.372 87.9285C164.082 87.7993 163.764 87.7412 163.447 87.759C163.13 87.7768 162.821 87.8701 162.547 88.0311C162.507 88.0528 162.478 88.089 162.464 88.132C162.451 88.175 162.455 88.2215 162.475 88.2618C162.49 88.2899 162.514 88.3131 162.542 88.3285C162.57 88.3439 162.602 88.351 162.634 88.349V88.3285Z" fill="#263238"/>
<path d="M166.335 94.6439C166.138 94.6447 165.94 94.6275 165.746 94.5927C165.732 94.5908 165.719 94.5862 165.707 94.5793C165.696 94.5723 165.685 94.563 165.677 94.552C165.669 94.5411 165.663 94.5286 165.66 94.5153C165.657 94.502 165.656 94.4882 165.659 94.4747C165.664 94.448 165.679 94.4242 165.7 94.408C165.722 94.3918 165.749 94.3845 165.776 94.3876C166.209 94.4726 166.656 94.4553 167.08 94.3368C167.505 94.2184 167.896 94.0023 168.222 93.7056C168.242 93.6917 168.267 93.685 168.291 93.6868C168.316 93.6886 168.339 93.6987 168.357 93.7155C168.375 93.7323 168.387 93.7547 168.39 93.779C168.394 93.8033 168.389 93.8281 168.376 93.8492C167.823 94.3663 167.092 94.6509 166.335 94.6439Z" fill="#263238"/>
<path d="M173.52 93.265C173.019 92.6965 172.648 92.0263 172.431 91.3005C172.214 90.5748 172.157 89.8106 172.264 89.0607C172.264 89.0607 170.597 87.3533 170.679 85.528C170.679 85.528 170.167 86.9841 170.679 88.0199C170.679 88.0199 166.357 87.7071 166.46 85.528C166.46 85.528 166.173 86.6252 166.824 87.1944C166.824 87.1944 162.983 87.3533 163.506 85.3639C164.029 83.3746 167.034 82.4055 167.034 82.4055C167.034 82.4055 169.9 79.9701 173.864 84.2718C173.864 84.2718 178.529 87.1841 175.222 92.0448L173.52 93.265Z" fill="#263238"/>
<path d="M175.252 93.5371C175.065 93.9031 174.806 94.2279 174.49 94.4921C174.175 94.7563 173.81 94.9546 173.417 95.0752C172.391 95.3931 171.822 94.46 172.094 93.4601C172.34 92.5577 173.181 91.3067 174.247 91.4092C174.617 91.4637 174.95 91.6628 175.173 91.9628C175.396 92.2628 175.491 92.6391 175.437 93.0089C175.413 93.1959 175.35 93.3757 175.252 93.5371Z" fill="#7F3E3B"/>
<path d="M168.193 90.5078C168.152 90.8616 167.931 91.1333 167.68 91.1077C167.429 91.082 167.29 90.7795 167.331 90.4155C167.372 90.0515 167.588 89.7951 167.818 89.8156C168.049 89.8361 168.229 90.1489 168.193 90.5078Z" fill="#2E353A"/>
<path d="M164.172 90.0865C164.136 90.4402 163.916 90.7069 163.685 90.6864C163.454 90.6659 163.29 90.3531 163.326 89.9942C163.362 89.6353 163.583 89.3686 163.839 89.3943C164.095 89.4199 164.172 89.7224 164.172 90.0865Z" fill="#2E353A"/>
<path d="M163.89 89.4243L163.059 89.0859C163.059 89.0859 163.428 89.7986 163.89 89.4243Z" fill="#2E353A"/>
<path d="M167.936 89.8655L167.101 89.5322C167.101 89.5322 167.475 90.2244 167.936 89.8655Z" fill="#2E353A"/>
<path d="M173.16 96.9982C173.429 96.9988 173.692 96.9211 173.917 96.7748C174.143 96.6284 174.321 96.4197 174.429 96.174C174.538 95.9283 174.573 95.6563 174.53 95.3912C174.486 95.126 174.367 94.8792 174.186 94.6807L174.006 94.8448C174.2 95.0541 174.306 95.3291 174.304 95.6139C174.305 95.8404 174.239 96.0622 174.113 96.251C173.988 96.4398 173.81 96.5872 173.6 96.6743C173.391 96.7615 173.161 96.7846 172.939 96.7406C172.716 96.6967 172.512 96.5877 172.352 96.4275C172.192 96.2672 172.083 96.0631 172.039 95.8408C171.995 95.6185 172.018 95.3882 172.105 95.1791C172.192 94.9699 172.34 94.7914 172.528 94.6662C172.717 94.5409 172.939 94.4746 173.166 94.4756C173.326 94.4742 173.485 94.5074 173.632 94.573L173.73 94.3526C173.553 94.2707 173.36 94.2287 173.166 94.2295C172.984 94.2295 172.804 94.2653 172.636 94.3349C172.468 94.4044 172.315 94.5064 172.187 94.635C172.058 94.7635 171.956 94.9161 171.887 95.0841C171.817 95.252 171.781 95.4321 171.781 95.6139C171.781 95.7957 171.817 95.9757 171.887 96.1436C171.956 96.3116 172.058 96.4642 172.187 96.5928C172.315 96.7213 172.468 96.8233 172.636 96.8928C172.804 96.9624 172.984 96.9982 173.166 96.9982H173.16Z" fill="#CEA666"/>
<g opacity="0.6">
<path d="M173.16 96.9982C173.429 96.9988 173.692 96.9211 173.917 96.7748C174.143 96.6284 174.321 96.4197 174.429 96.174C174.538 95.9283 174.573 95.6563 174.53 95.3912C174.486 95.126 174.367 94.8792 174.186 94.6807L174.006 94.8448C174.2 95.0541 174.306 95.3291 174.304 95.6139C174.305 95.8404 174.239 96.0622 174.113 96.251C173.988 96.4398 173.81 96.5872 173.6 96.6743C173.391 96.7615 173.161 96.7846 172.939 96.7406C172.716 96.6967 172.512 96.5877 172.352 96.4275C172.192 96.2672 172.083 96.0631 172.039 95.8408C171.995 95.6185 172.018 95.3882 172.105 95.1791C172.192 94.9699 172.34 94.7914 172.528 94.6662C172.717 94.5409 172.939 94.4746 173.166 94.4756C173.326 94.4742 173.485 94.5074 173.632 94.573L173.73 94.3526C173.553 94.2707 173.36 94.2287 173.166 94.2295C172.984 94.2295 172.804 94.2653 172.636 94.3349C172.468 94.4044 172.315 94.5064 172.187 94.635C172.058 94.7635 171.956 94.9161 171.887 95.0841C171.817 95.252 171.781 95.4321 171.781 95.6139C171.781 95.7957 171.817 95.9757 171.887 96.1436C171.956 96.3116 172.058 96.4642 172.187 96.5928C172.315 96.7213 172.468 96.8233 172.636 96.8928C172.804 96.9624 172.984 96.9982 173.166 96.9982H173.16Z" fill="white"/>
</g>
<path d="M172.207 117.937L168.443 118.102L167.182 116.051C167.101 115.919 166.991 115.807 166.86 115.723C166.73 115.64 166.582 115.587 166.428 115.569L166.182 115.538C165.979 115.512 165.774 115.546 165.591 115.638C165.408 115.729 165.257 115.873 165.157 116.051L164.223 117.686C164.128 117.852 164.081 118.041 164.087 118.232C164.093 118.423 164.153 118.609 164.259 118.768L164.695 119.429C164.799 119.59 164.94 119.724 165.106 119.82C165.272 119.916 165.458 119.972 165.649 119.983L167.572 120.091L171.827 120.665L172.207 117.937Z" fill="#7F3E3B"/>
<path d="M178.897 104.222L180.769 117.64H169.853L169.591 120.814C169.591 120.814 184.589 123.721 185.301 121.132C186.014 118.543 186.275 110.303 185.199 106.996C184.65 105.33 183.04 103.407 179.943 103.125C179.798 103.112 179.652 103.132 179.516 103.183C179.379 103.235 179.256 103.316 179.156 103.422C179.055 103.527 178.98 103.654 178.935 103.792C178.89 103.931 178.877 104.078 178.897 104.222Z" fill="#CEA666"/>
<path d="M131.198 26.8004H119.216L107.136 164.929H119.119C121.856 164.879 124.481 163.828 126.496 161.974C128.511 160.121 129.777 157.593 130.055 154.869L140.376 36.8652C140.519 35.584 140.386 34.2871 139.988 33.0612C139.589 31.8352 138.934 30.7084 138.065 29.7559C137.196 28.8033 136.135 28.047 134.951 27.5373C133.766 27.0277 132.487 26.7765 131.198 26.8004Z" fill="#263238"/>
<path d="M138.623 40.6447C138.649 40.3873 138.767 40.148 138.955 39.9708C139.144 39.7937 139.39 39.6906 139.649 39.6808C139.772 39.6786 139.895 39.7028 140.008 39.7516C140.122 39.8004 140.223 39.8728 140.307 39.9639C140.39 40.0551 140.453 40.1629 140.492 40.2803C140.53 40.3977 140.544 40.5219 140.53 40.6447L139.72 49.8738C139.708 50.1426 139.595 50.3969 139.404 50.5867C139.214 50.7765 138.959 50.888 138.69 50.8992C138.567 50.9007 138.445 50.876 138.332 50.8268C138.219 50.7777 138.118 50.7052 138.035 50.6142C137.952 50.5231 137.89 50.4155 137.851 50.2985C137.813 50.1815 137.8 50.0577 137.813 49.9353L138.623 40.6447Z" fill="#CEA666"/>
<path opacity="0.3" d="M138.623 40.6447C138.649 40.3873 138.767 40.148 138.955 39.9708C139.144 39.7937 139.39 39.6906 139.649 39.6808C139.772 39.6786 139.895 39.7028 140.008 39.7516C140.122 39.8004 140.223 39.8728 140.307 39.9639C140.39 40.0551 140.453 40.1629 140.492 40.2803C140.53 40.3977 140.544 40.5219 140.53 40.6447L139.72 49.8738C139.708 50.1426 139.595 50.3969 139.404 50.5867C139.214 50.7765 138.959 50.888 138.69 50.8992C138.567 50.9007 138.445 50.876 138.332 50.8268C138.219 50.7777 138.118 50.7052 138.035 50.6142C137.952 50.5231 137.89 50.4155 137.851 50.2985C137.813 50.1815 137.8 50.0577 137.813 49.9353L138.623 40.6447Z" fill="white"/>
<path d="M116.664 164.929H67.2936C66.0055 164.952 64.7272 164.7 63.5439 164.19C62.3606 163.681 61.2995 162.925 60.4311 161.973C59.5628 161.021 58.9072 159.895 58.508 158.67C58.1087 157.446 57.9751 156.15 58.1158 154.869L68.4421 36.8651C68.7167 34.1394 69.9817 31.6092 71.9975 29.7541C74.0132 27.899 76.6395 26.848 79.3786 26.8003H128.749C130.037 26.7773 131.314 27.0289 132.497 27.5382C133.68 28.0475 134.741 28.8029 135.609 29.7541C136.478 30.7053 137.133 31.8305 137.533 33.0549C137.932 34.2792 138.067 35.5746 137.927 36.8548L127.6 154.869C127.323 157.593 126.056 160.12 124.041 161.974C122.026 163.828 119.402 164.879 116.664 164.929Z" fill="#CEA666"/>
<path d="M128.547 29.1183H115.729C115.311 29.1264 114.909 29.2743 114.585 29.5383C114.262 29.8023 114.036 30.1671 113.944 30.5744L113.857 30.9795C113.634 31.9751 113.084 32.8671 112.294 33.5124C111.503 34.1576 110.519 34.5187 109.499 34.5378H97.2859C96.3198 34.5585 95.3847 34.1957 94.6853 33.5289C93.9858 32.8621 93.5788 31.9455 93.5533 30.9795V30.5744C93.5479 30.3778 93.5039 30.1841 93.4237 30.0045C93.3435 29.8249 93.2287 29.6628 93.0859 29.5276C92.9431 29.3924 92.775 29.2866 92.5912 29.2164C92.4075 29.1462 92.2117 29.1128 92.0151 29.1183H79.1969C77.0887 29.1574 75.0678 29.9671 73.5157 31.3944C71.9637 32.8218 70.988 34.768 70.7728 36.8656L60.4209 154.869C60.3122 155.856 60.415 156.855 60.7225 157.799C61.0299 158.743 61.5349 159.61 62.2039 160.344C62.8729 161.077 63.6904 161.66 64.6022 162.053C65.5139 162.445 66.4988 162.639 67.4914 162.622H116.867C118.976 162.583 120.998 161.772 122.55 160.344C124.102 158.915 125.077 156.968 125.291 154.869L135.617 36.8656C135.725 35.8792 135.622 34.8812 135.314 33.9378C135.006 32.9945 134.501 32.1276 133.832 31.3947C133.163 30.6618 132.346 30.0797 131.435 29.6872C130.523 29.2947 129.539 29.1007 128.547 29.1183Z" fill="#CEA666"/>
<path opacity="0.7" d="M128.547 29.1183H115.729C115.311 29.1264 114.909 29.2743 114.585 29.5383C114.262 29.8023 114.036 30.1671 113.944 30.5744L113.857 30.9795C113.634 31.9751 113.084 32.8671 112.294 33.5124C111.503 34.1576 110.519 34.5187 109.499 34.5378H97.2859C96.3198 34.5585 95.3847 34.1957 94.6853 33.5289C93.9858 32.8621 93.5788 31.9455 93.5533 30.9795V30.5744C93.5479 30.3778 93.5039 30.1841 93.4237 30.0045C93.3435 29.8249 93.2287 29.6628 93.0859 29.5276C92.9431 29.3924 92.775 29.2866 92.5912 29.2164C92.4075 29.1462 92.2117 29.1128 92.0151 29.1183H79.1969C77.0887 29.1574 75.0678 29.9671 73.5157 31.3944C71.9637 32.8218 70.988 34.768 70.7728 36.8656L60.4209 154.869C60.3122 155.856 60.415 156.855 60.7225 157.799C61.0299 158.743 61.5349 159.61 62.2039 160.344C62.8729 161.077 63.6904 161.66 64.6022 162.053C65.5139 162.445 66.4988 162.639 67.4914 162.622H116.867C118.976 162.583 120.998 161.772 122.55 160.344C124.102 158.915 125.077 156.968 125.291 154.869L135.617 36.8656C135.725 35.8792 135.622 34.8812 135.314 33.9378C135.006 32.9945 134.501 32.1276 133.832 31.3947C133.163 30.6618 132.346 30.0797 131.435 29.6872C130.523 29.2947 129.539 29.1007 128.547 29.1183Z" fill="white"/>
<g opacity="0.2">
<path d="M100.425 31.0976C100.834 30.706 100.875 30.0851 100.517 29.7107C100.159 29.3364 99.5366 29.3504 99.1275 29.7421C98.7184 30.1337 98.6772 30.7546 99.0356 31.129C99.3939 31.5033 100.016 31.4893 100.425 31.0976Z" fill="#263238"/>
<path d="M107.798 29.4465H104.435C104.168 29.4514 103.912 29.5536 103.716 29.7341C103.519 29.9145 103.396 30.1605 103.368 30.4258C103.355 30.5507 103.369 30.6769 103.408 30.7962C103.447 30.9154 103.511 31.0249 103.596 31.1175C103.681 31.21 103.785 31.2836 103.9 31.3332C104.015 31.3827 104.14 31.4073 104.265 31.4051H107.629C107.895 31.3992 108.15 31.2966 108.347 31.1164C108.543 30.9362 108.667 30.6907 108.695 30.4258C108.709 30.3008 108.696 30.1742 108.657 30.0546C108.618 29.935 108.554 29.8252 108.469 29.7324C108.384 29.6397 108.28 29.5662 108.165 29.5168C108.049 29.4675 107.924 29.4436 107.798 29.4465Z" fill="#263238"/>
</g>
<path d="M76.3271 34.5223H77.3629L77.4551 33.4814H76.4143L76.3271 34.5223Z" fill="#CEA666"/>
<path d="M78.4956 33.481L78.4033 34.5219H79.439L79.5313 33.481L79.6236 32.4453H78.5828L78.4956 33.481Z" fill="#CEA666"/>
<path d="M80.7517 31.4053L80.6594 32.4461L80.5671 33.4818L80.48 34.5226H81.5157L81.608 33.4818L81.7003 32.4461L81.7874 31.4053H80.7517Z" fill="#CEA666"/>
<path d="M125.395 31.4766L125.329 32.2354H124.816L124.683 33.7736H125.195L125.129 34.5375H129.697L129.964 31.4919L125.395 31.4766ZM127.226 33.7582H125.688L125.821 32.22H127.359L127.226 33.7582Z" fill="#CEA666"/>
<g opacity="0.4">
<path d="M97.3231 34.5381L63.2422 161.269C64.4793 162.16 65.9681 162.634 67.4927 162.622H70.1589L104.604 34.5381H97.3231Z" fill="white"/>
<path d="M128.548 29.1185H115.73C115.313 29.1267 114.91 29.2746 114.586 29.5386C114.263 29.8025 114.037 30.1673 113.946 30.5747L113.858 30.9797C113.642 31.9489 113.114 32.8207 112.356 33.4621C111.598 34.1036 110.651 34.4797 109.659 34.5329L75.1938 162.622H101.471L135.619 35.6404C135.509 33.8511 134.712 32.1734 133.395 30.9579C132.077 29.7425 130.34 29.0834 128.548 29.1185Z" fill="white"/>
</g>
<path d="M76.9634 63.5121L75.4252 63.1789C75.326 63.1594 75.2323 63.1185 75.1507 63.059C75.069 62.9995 75.0014 62.9228 74.9525 62.8343C74.9037 62.7459 74.8748 62.6478 74.8678 62.547C74.8609 62.4462 74.8762 62.3451 74.9125 62.2508L77.0608 56.6416L79.5167 57.1543L77.7683 63.0148C77.7224 63.1844 77.6136 63.3301 77.4641 63.4225C77.3146 63.5148 77.1356 63.5469 76.9634 63.5121Z" fill="#CEA666"/>
<path d="M82.9206 56.3337C82.8194 56.3119 82.7236 56.2702 82.6385 56.2111C82.5535 56.152 82.4811 56.0767 82.4253 55.9895C82.3695 55.9023 82.3316 55.8049 82.3136 55.7029C82.2957 55.601 82.2981 55.4964 82.3207 55.3954L82.5258 54.4315C82.5476 54.3298 82.5895 54.2334 82.6489 54.148C82.7083 54.0626 82.7841 53.9899 82.8719 53.934C82.9597 53.8782 83.0577 53.8404 83.1603 53.8228C83.2628 53.8052 83.3679 53.8082 83.4692 53.8316C83.6739 53.8758 83.8526 53.9995 83.966 54.1755C84.0795 54.3514 84.1184 54.5653 84.0743 54.7699L83.864 55.7287C83.8186 55.9337 83.6939 56.1124 83.5171 56.2258C83.3404 56.3392 83.1259 56.378 82.9206 56.3337Z" fill="#CEA666"/>
<path d="M81.4024 51.555C81.4024 51.555 75.5573 50.8884 73.5115 49.8425C68.7022 47.3711 64.103 41.4748 63.1288 41.2646C61.5394 40.9159 59.3757 44.6793 58.2887 49.6682C57.2017 54.657 57.6119 58.9741 59.2014 59.3177C60.1807 59.533 66.8051 56.0772 72.2092 55.826C74.5062 55.7234 80.0847 57.5641 80.0847 57.5641L81.4024 51.555Z" fill="#CEA666"/>
<path opacity="0.3" d="M81.4024 51.555C81.4024 51.555 75.5573 50.8884 73.5115 49.8425C68.7022 47.3711 64.103 41.4748 63.1288 41.2646C61.5394 40.9159 59.3757 44.6793 58.2887 49.6682C57.2017 54.657 57.6119 58.9741 59.2014 59.3177C60.1807 59.533 66.8051 56.0772 72.2092 55.826C74.5062 55.7234 80.0847 57.5641 80.0847 57.5641L81.4024 51.555Z" fill="white"/>
<path d="M64.0422 50.8987C62.9603 55.8824 60.7915 59.6458 59.202 59.2971C57.6126 58.9485 57.2075 54.6313 58.2894 49.6476C59.3712 44.6639 61.5401 40.8954 63.1295 41.244C64.719 41.5927 65.1291 45.9304 64.0422 50.8987Z" fill="#CEA666"/>
<path opacity="0.4" d="M64.0422 50.8987C62.9603 55.8824 60.7915 59.6458 59.202 59.2971C57.6126 58.9485 57.2075 54.6313 58.2894 49.6476C59.3712 44.6639 61.5401 40.8954 63.1295 41.244C64.719 41.5927 65.1291 45.9304 64.0422 50.8987Z" fill="#263238"/>
<path d="M80.4545 50.8985L77.7422 50.3089C77.5676 50.2704 77.387 50.2682 77.2115 50.3026C77.0361 50.3369 76.8695 50.407 76.7224 50.5085C76.5752 50.61 76.4505 50.7407 76.356 50.8925C76.2615 51.0443 76.1993 51.2139 76.1732 51.3907C76.0758 52.0727 75.9528 52.7751 75.799 53.4929C75.6451 54.2107 75.4606 54.9029 75.2862 55.5438C75.2365 55.716 75.2227 55.8965 75.2456 56.0742C75.2686 56.2519 75.3278 56.423 75.4196 56.5768C75.5115 56.7307 75.6339 56.864 75.7795 56.9686C75.925 57.0731 76.0904 57.1466 76.2655 57.1845L79.4803 57.8819C81.4082 58.3023 82.7977 56.9436 83.1873 55.0055C83.3616 54.0993 83.1728 53.1609 82.6616 52.3926C82.1504 51.6243 81.3577 51.0877 80.4545 50.8985Z" fill="#263238"/>
<path d="M61.2528 49.8988L61.0836 50.6833C61.0344 50.9025 61.0645 51.1321 61.1688 51.3312C61.273 51.5302 61.4445 51.6858 61.6527 51.7702L63.6216 52.5906C63.7754 52.0522 63.919 51.4934 64.042 50.9191C64.1651 50.3449 64.2728 49.7706 64.3599 49.2169L62.2219 49.1451C61.9977 49.1375 61.778 49.2088 61.6009 49.3465C61.4238 49.4842 61.3007 49.6796 61.2528 49.8988Z" fill="#263238"/>
<path opacity="0.8" d="M61.2528 49.8988L61.0836 50.6833C61.0344 50.9025 61.0645 51.1321 61.1688 51.3312C61.273 51.5302 61.4445 51.6858 61.6527 51.7702L63.6216 52.5906C63.7754 52.0522 63.919 51.4934 64.042 50.9191C64.1651 50.3449 64.2728 49.7706 64.3599 49.2169L62.2219 49.1451C61.9977 49.1375 61.778 49.2088 61.6009 49.3465C61.4238 49.4842 61.3007 49.6796 61.2528 49.8988Z" fill="white"/>
<path opacity="0.2" d="M62.74 50.6322C62.6323 51.1449 62.5144 51.6063 62.3862 52.0781L63.6219 52.5908C63.7757 52.0524 63.9193 51.4935 64.0423 50.9193C64.1654 50.345 64.2731 49.7708 64.3602 49.217L63.0169 49.1709C62.9417 49.6392 62.8494 50.1263 62.74 50.6322Z" fill="#263238"/>
<path d="M110.11 50.9394C110.6 51.1269 111.128 51.1954 111.649 51.1392C112.171 51.0831 112.671 50.9039 113.11 50.6164C114.684 49.5909 117.637 50.883 116.745 55.0822C115.207 62.3014 111.997 67.4851 114.079 69.6693C114.079 69.6693 107.147 69.9872 108.172 63.8652C108.941 59.2507 114.156 54.0619 112.9 53.0262C112.479 52.6776 111.874 52.857 109.9 52.857L110.11 50.9394Z" fill="#263238"/>
<path d="M109.9 52.8573C110.85 52.8259 111.799 52.9401 112.715 53.1957C113.038 52.2663 113.164 51.2796 113.084 50.2988C112.074 50.4148 111.078 50.6295 110.11 50.9397L109.9 52.8573Z" fill="#CEA666"/>
<path d="M103.373 45.6803C103.373 45.6803 100.492 44.8599 102.394 42.9988C104.876 40.5736 108.403 45.1163 108.403 45.1163C108.403 45.1163 116.674 48.731 109.849 57.1141C109.849 57.1141 107.383 61.5235 106.87 59.8059C106.357 58.0883 109.783 53.2225 109.783 53.2225L109.577 48.8643L108.629 47.1672L105.65 45.465L103.373 45.6803Z" fill="#263238"/>
<path d="M91.9441 70.2332C91.7487 69.9135 91.4922 69.6355 91.1892 69.415C90.8862 69.1946 90.5428 69.036 90.1785 68.9484C89.8142 68.8608 89.4362 68.8458 89.0661 68.9044C88.6961 68.963 88.3412 69.0939 88.0217 69.2898H87.9807C87.0835 69.8384 86.1298 70.4485 85.1864 71.0125L82.3407 72.7199C81.0077 73.5027 79.6677 74.2632 78.321 75.0015C78.244 73.9779 78.2269 72.9507 78.2697 71.9252C78.3056 70.7254 78.3928 69.5 78.4851 68.2746C78.5773 67.0492 78.7004 65.793 78.8029 64.5778V64.5471C78.8289 64.2054 78.7309 63.8659 78.527 63.5906C78.3231 63.3153 78.0269 63.1227 77.6925 63.048C77.3582 62.9733 77.0081 63.0215 76.7064 63.1838C76.4047 63.3461 76.1715 63.6116 76.0496 63.9318C75.5933 65.1675 75.2344 66.3877 74.8755 67.6388C74.5166 68.8898 74.2448 70.1511 74.0038 71.4535C73.7408 72.8055 73.5967 74.1781 73.5731 75.5553C73.5528 76.4218 73.6652 77.2864 73.9064 78.1189C74.1264 78.8633 74.5531 79.5301 75.137 80.0416C75.5797 80.4158 76.1081 80.6747 76.6751 80.7953C77.1696 80.8912 77.6778 80.8912 78.1723 80.7953C78.2912 80.7689 78.4078 80.7329 78.5209 80.6877L78.6901 80.621C79.7822 80.1698 80.8692 79.7186 81.9254 79.2059C82.9817 78.6932 84.0379 78.1804 85.0684 77.6421C86.099 77.1037 87.1194 76.5243 88.1448 75.9244C89.1703 75.3245 90.1239 74.7247 91.134 74.0274C91.721 73.6124 92.1303 72.9916 92.2804 72.2886C92.4305 71.5855 92.3105 70.8517 91.9441 70.2332Z" fill="#CE7A63"/>
<path d="M94.4415 66.4914C96.1694 69.9728 93.6827 72.9928 89.1246 77.8329C86.744 75.9025 85.081 73.2283 84.4023 70.2394C84.4023 70.2394 89.6732 65.8915 94.4415 66.4914Z" fill="#CEA666"/>
<path opacity="0.2" d="M94.6199 70.6241C92.933 69.5986 91.0308 69.1372 89.7131 70.8138C88.6846 72.1639 87.4928 73.3815 86.165 74.4388C86.9724 75.719 87.9759 76.8643 89.1388 77.833C91.8768 74.9412 93.8354 72.7006 94.6199 70.6241Z" fill="#263238"/>
<path d="M77.5221 58.0773L78.6911 58.8515C78.9091 58.9935 79.0897 59.186 79.2174 59.4128C79.345 59.6395 79.416 59.8937 79.4243 60.1538L79.5166 62.62C79.5318 63.1053 79.432 63.5874 79.2253 64.0267C79.0185 64.466 78.7107 64.8502 78.327 65.1478L77.8399 65.5221C75.789 64.3684 74.4611 61.6305 74.4611 61.6305L73.9894 60.8922C73.8883 60.7434 73.8177 60.576 73.7818 60.3998C73.7458 60.2235 73.7453 60.0419 73.7801 59.8654C73.8149 59.6889 73.8844 59.5211 73.9846 59.3717C74.0848 59.2223 74.2136 59.0943 74.3637 58.9951L75.8095 58.0414C76.068 57.8814 76.3672 57.7996 76.6711 57.806C76.975 57.8124 77.2705 57.9066 77.5221 58.0773Z" fill="#CE7A63"/>
<path d="M90.4383 162.621C93.0943 154.418 94.9093 145.306 93.1045 138.656C104.077 106.426 99.129 97.0435 99.129 97.0435L86.0699 92.2803C86.0699 92.2803 84.2036 121.306 83.6396 135.349C83.3268 143.199 81.9886 153.407 80.4453 162.626L90.4383 162.621Z" fill="#263238"/>
<path opacity="0.5" d="M97.2104 108.971L94.5596 104.695L92.9394 108.028C92.0942 117.218 92.4944 126.479 94.129 135.561C96.2412 129.218 97.9099 122.735 99.1229 116.16L97.2104 108.971Z" fill="#1B2328"/>
<path d="M98.4612 162.622H108.362C109.387 154.095 109.387 144.922 106.362 138.79C110.977 105.058 104.311 96.798 104.311 96.798L90.5806 94.624C90.5806 94.624 94.3081 123.47 96.4462 137.349C97.5485 144.538 98.174 153.864 98.4612 162.622Z" fill="#263238"/>
<path d="M88.3292 72.9718C87.7494 75.4673 87.3383 77.9991 87.0987 80.5498C86.6578 84.2671 86.3347 87.9382 85.9092 94.0755L104.501 97.0442C104.957 91.7529 106.511 85.8822 111.715 74.6279C112.009 74.0425 112.168 73.3987 112.181 72.7438C112.194 72.0888 112.061 71.4392 111.79 70.8425C111.52 70.2458 111.12 69.7171 110.619 69.295C110.118 68.873 109.529 68.5684 108.895 68.4034C108.172 68.2137 107.403 68.0291 106.608 67.8599C103.828 67.2154 101.006 66.7699 98.1633 66.5268C97.2353 66.4653 96.2662 66.4294 95.3382 66.4089C91.985 66.3217 88.9496 69.716 88.3292 72.9718Z" fill="#CEA666"/>
<path d="M107.516 58.2354C106.352 60.8349 104.665 65.6699 106.142 67.7618C106.142 67.7618 103.63 66.9671 97.6358 69.4794C96.4104 66.9619 97.7024 66.4031 97.7024 66.4031C100.897 66.1724 101.343 63.9369 101.292 61.7885L107.516 58.2354Z" fill="#CE7A63"/>
<path d="M98.8916 68.9823C99.2139 69.1008 99.507 69.2871 99.7511 69.5285C99.9953 69.77 100.185 70.0611 100.307 70.382C100.409 70.6154 100.559 70.8245 100.748 70.9957C100.936 71.1669 101.159 71.2961 101.401 71.3751C101.643 71.454 101.899 71.4808 102.153 71.4537C102.406 71.4266 102.65 71.3462 102.87 71.2178C104.409 70.3513 106.347 69.1156 107.316 68.0184C106.814 67.6362 106.333 67.2272 105.875 66.793C105.875 66.793 100.107 68.1107 98.8916 68.9823Z" fill="white"/>
<path d="M97.2257 68.424C96.7869 68.4949 96.3718 68.6708 96.0156 68.9367C95.9168 69.0086 95.7977 69.0473 95.6755 69.0474C95.5533 69.0475 95.4342 69.0089 95.3353 68.9373C95.2363 68.8656 95.1625 68.7645 95.1245 68.6483C95.0864 68.5322 95.0861 68.407 95.1235 68.2907C95.7644 66.4756 96.8719 66.2398 96.8719 66.2398C97.4069 66.036 97.9981 66.036 98.5331 66.2398C98.0895 66.3866 97.7134 66.6879 97.4734 67.0889C97.2334 67.4898 97.1455 67.9636 97.2257 68.424Z" fill="white"/>
<path opacity="0.2" d="M104.983 59.6875L101.312 61.7897C101.329 62.3042 101.298 62.8191 101.219 63.3279C102.419 63.3279 104.296 62.3434 104.706 61.1693C104.889 60.6967 104.983 60.1943 104.983 59.6875Z" fill="#263238"/>
<path d="M110.7 53.1552C109.162 57.4109 108.649 59.2362 105.793 60.9435C101.533 63.5072 96.6259 61.0204 96.8361 56.4726C97.031 52.3708 99.4818 46.1053 104.23 45.3721C105.244 45.1804 106.292 45.2637 107.263 45.6131C108.235 45.9626 109.095 46.5656 109.755 47.3595C110.415 48.1535 110.851 49.1096 111.017 50.1287C111.183 51.1477 111.074 52.1927 110.7 53.1552Z" fill="#CE7A63"/>
<path d="M104.983 52.9961C104.87 53.3602 104.593 53.6114 104.357 53.555C104.121 53.4986 104.024 53.1602 104.132 52.7962C104.239 52.4321 104.526 52.186 104.762 52.2424C104.998 52.2988 105.096 52.6372 104.983 52.9961Z" fill="#263238"/>
<path d="M100.446 51.7862C100.333 52.1451 100.051 52.3963 99.8152 52.3399C99.5794 52.2835 99.4819 51.9451 99.5947 51.5862C99.7075 51.2273 99.9895 50.9709 100.225 51.0273C100.461 51.0837 100.559 51.4119 100.446 51.7862Z" fill="#263238"/>
<path d="M100.323 51.0735L99.5332 50.6172C99.5332 50.6172 99.7691 51.4119 100.323 51.0735Z" fill="#263238"/>
<path d="M101.764 52.5342C101.186 53.287 100.514 53.9625 99.7642 54.5441C99.9125 54.7192 100.098 54.8589 100.308 54.9529C100.517 55.047 100.745 55.093 100.974 55.0876L101.764 52.5342Z" fill="#BA4D3C"/>
<path d="M106.362 50.8997C106.333 50.8972 106.305 50.888 106.28 50.8729C106.256 50.8578 106.234 50.8371 106.219 50.8126C106.079 50.583 105.883 50.3922 105.651 50.2578C105.418 50.1234 105.155 50.0497 104.886 50.0435C104.858 50.0442 104.83 50.0392 104.804 50.029C104.778 50.0187 104.754 50.0033 104.734 49.9838C104.714 49.9642 104.698 49.9408 104.687 49.9149C104.676 49.8891 104.67 49.8613 104.67 49.8333C104.674 49.7733 104.7 49.7167 104.742 49.6742C104.785 49.6317 104.841 49.6062 104.901 49.6025C105.241 49.6085 105.574 49.6987 105.87 49.8652C106.166 50.0316 106.417 50.2691 106.598 50.5562C106.618 50.5942 106.627 50.6368 106.625 50.6796C106.622 50.7223 106.608 50.7636 106.584 50.7989C106.559 50.8342 106.526 50.8623 106.487 50.88C106.448 50.8978 106.405 50.9046 106.362 50.8997Z" fill="#263238"/>
<path d="M99.4723 48.7404C99.4469 48.73 99.4238 48.7148 99.4044 48.6954C99.3851 48.676 99.3698 48.653 99.3595 48.6276C99.3415 48.5725 99.346 48.5126 99.3719 48.4607C99.3978 48.4089 99.4431 48.3694 99.4979 48.3507C99.8263 48.2125 100.182 48.1518 100.538 48.1731C100.893 48.1945 101.239 48.2973 101.549 48.4738C101.572 48.4899 101.591 48.5107 101.606 48.5348C101.621 48.5588 101.63 48.5856 101.634 48.6135C101.638 48.6414 101.636 48.6698 101.628 48.6969C101.621 48.724 101.608 48.7493 101.59 48.7711C101.554 48.8178 101.502 48.8495 101.444 48.8599C101.387 48.8703 101.327 48.8588 101.277 48.8275C101.03 48.6894 100.754 48.6101 100.471 48.5959C100.189 48.5816 99.9064 48.6328 99.6466 48.7455C99.6186 48.7563 99.5888 48.7613 99.5589 48.7605C99.529 48.7596 99.4995 48.7527 99.4723 48.7404Z" fill="#263238"/>
<path d="M104.861 52.2884L104.077 51.832C104.077 51.832 104.307 52.6165 104.861 52.2884Z" fill="#263238"/>
<path d="M87.9502 86.9484H83.5202C83.305 86.9389 83.0986 86.8598 82.9322 86.723C82.7657 86.5861 82.6482 86.3989 82.5973 86.1895L80.5464 76.5913C80.5202 76.5011 80.5159 76.406 80.5338 76.3138C80.5518 76.2216 80.5915 76.135 80.6497 76.0613C80.7079 75.9875 80.7829 75.9288 80.8683 75.8899C80.9538 75.851 81.0474 75.8331 81.1412 75.8376H85.5712C85.7857 75.8468 85.9916 75.9251 86.158 76.061C86.3243 76.1968 86.4422 76.3829 86.4941 76.5913L88.545 86.1895C88.571 86.28 88.5752 86.3753 88.5572 86.4677C88.5392 86.5601 88.4996 86.6469 88.4415 86.721C88.3835 86.795 88.3086 86.8543 88.2232 86.8938C88.1378 86.9333 88.0442 86.952 87.9502 86.9484Z" fill="#263238"/>
<path d="M87.4375 86.9484H83.0076C82.7923 86.9389 82.5859 86.8598 82.4195 86.723C82.253 86.5861 82.1355 86.3989 82.0846 86.1895L80.0337 76.5913C80.0075 76.5011 80.0032 76.406 80.0211 76.3138C80.0391 76.2216 80.0788 76.135 80.137 76.0613C80.1952 75.9875 80.2702 75.9288 80.3557 75.8899C80.4411 75.851 80.5347 75.8331 80.6285 75.8376H85.0585C85.273 75.8468 85.4789 75.9251 85.6453 76.061C85.8116 76.1968 85.9295 76.3829 85.9814 76.5913L88.0323 86.1895C88.0583 86.28 88.0625 86.3753 88.0445 86.4677C88.0265 86.5601 87.9869 86.6469 87.9288 86.721C87.8708 86.795 87.796 86.8543 87.7105 86.8938C87.6251 86.9333 87.5315 86.952 87.4375 86.9484Z" fill="#263238"/>
<path opacity="0.2" d="M87.4375 86.9484H83.0076C82.7923 86.9389 82.5859 86.8598 82.4195 86.723C82.253 86.5861 82.1355 86.3989 82.0846 86.1895L80.0337 76.5913C80.0075 76.5011 80.0032 76.406 80.0211 76.3138C80.0391 76.2216 80.0788 76.135 80.137 76.0613C80.1952 75.9875 80.2702 75.9288 80.3557 75.8899C80.4411 75.851 80.5347 75.8331 80.6285 75.8376H85.0585C85.273 75.8468 85.4789 75.9251 85.6453 76.061C85.8116 76.1968 85.9295 76.3829 85.9814 76.5913L88.0323 86.1895C88.0583 86.28 88.0625 86.3753 88.0445 86.4677C88.0265 86.5601 87.9869 86.6469 87.9288 86.721C87.8708 86.795 87.796 86.8543 87.7105 86.8938C87.6251 86.9333 87.5315 86.952 87.4375 86.9484Z" fill="white"/>
<path d="M85.8486 81.2934L87.2227 80.9908C87.4766 80.9346 87.7401 80.9397 87.9916 81.0057C88.243 81.0717 88.4751 81.1967 88.6686 81.3703L90.5042 83.0212C90.864 83.348 91.1412 83.7553 91.3132 84.2098C91.4852 84.6643 91.5471 85.1531 91.4938 85.6361L91.422 86.2412C89.1814 86.9026 86.2947 85.9694 86.2947 85.9694L85.4333 85.7951C85.256 85.7642 85.0867 85.6985 84.935 85.6016C84.7833 85.5047 84.6524 85.3787 84.5499 85.2308C84.4473 85.083 84.3751 84.9162 84.3376 84.7402C84.3 84.5642 84.2978 84.3825 84.331 84.2056L84.654 82.4983C84.7172 82.2043 84.8634 81.9346 85.0751 81.7211C85.2868 81.5075 85.5552 81.3591 85.8486 81.2934Z" fill="#CE7A63"/>
<path d="M109.479 71.3106C108.728 71.2392 107.978 71.4691 107.396 71.9497C106.813 72.4304 106.445 73.1225 106.372 73.8743V73.9717C106.321 74.4844 106.254 75.1099 106.188 75.6893C106.121 76.2687 106.039 76.8686 105.952 77.4582C105.778 78.6426 105.567 79.8116 105.332 80.9704C105.096 82.1291 104.819 83.2674 104.486 84.38C104.214 85.2722 103.901 86.1335 103.568 86.9744C103.154 86.9911 102.74 86.9653 102.332 86.8975C101.008 86.6985 99.6993 86.4089 98.4149 86.031C97.21 85.6516 95.9948 85.2106 94.7797 84.7492C93.5645 84.2877 92.3391 83.7904 91.1444 83.3135H91.1137C90.7923 83.1799 90.433 83.1689 90.1041 83.2826C89.7751 83.3963 89.4994 83.6269 89.3292 83.9305C89.1591 84.2342 89.1063 84.5897 89.181 84.9297C89.2557 85.2696 89.4527 85.5703 89.7344 85.7746C90.8624 86.6052 92.0007 87.3128 93.1748 88.0511C94.349 88.7895 95.5641 89.4201 96.8306 90.0303C98.2885 90.6692 99.7979 91.1837 101.343 91.5684C102.178 91.7989 103.039 91.923 103.906 91.9376C104.487 91.9443 105.065 91.8595 105.619 91.6864C106.396 91.4486 107.089 90.9952 107.618 90.3789C107.71 90.2646 107.793 90.1428 107.864 90.0149L107.916 89.9175C108.579 88.6967 109.154 87.4305 109.638 86.1284C110.105 84.859 110.503 83.565 110.828 82.2522C111.161 80.955 111.418 79.6476 111.628 78.335C111.725 77.6736 111.812 77.0173 111.889 76.3559C111.966 75.6944 112.023 75.0535 112.059 74.305C112.098 73.5696 111.851 72.8476 111.371 72.2897C110.89 71.7318 110.212 71.381 109.479 71.3106Z" fill="#CE7A63"/>
<path d="M110.337 69.0439C113.505 71.2846 113.659 74.6378 111.947 81.0571C109.655 82.2056 104.086 80.7546 104.086 80.7546C104.086 80.7546 105.84 70.7872 110.337 69.0439Z" fill="#CEA666"/>
<path d="M98.9329 56.3193C98.9329 56.3193 100.471 56.0168 104.65 56.1449C104.137 57.396 103.173 58.3907 101.015 58.324C100.497 58.3578 99.9863 58.1845 99.596 57.8422C99.2057 57.5 98.9672 57.0167 98.9329 56.4987C98.9329 56.4372 98.9278 56.3808 98.9329 56.3193Z" fill="#263238"/>
<path d="M102.041 57.3442C101.214 57.2741 100.385 57.466 99.6724 57.8929C100.066 58.1637 100.533 58.3085 101.011 58.3082C101.837 58.3808 102.665 58.1886 103.374 57.7595C102.985 57.4836 102.518 57.3382 102.041 57.3442Z" fill="#BA4D3C"/>
<path d="M99.1226 56.2925C99.1609 56.4476 99.2408 56.5893 99.3538 56.7022C99.4667 56.8152 99.6084 56.8951 99.7635 56.9335C101.011 56.9687 102.26 56.8984 103.496 56.7232C103.693 56.7103 103.884 56.6493 104.052 56.5456C104.22 56.4419 104.36 56.2987 104.46 56.1285C102.679 56.0421 100.895 56.097 99.1226 56.2925Z" fill="white"/>
<path d="M104.265 45.0896C103.996 45.1306 103.731 45.1906 103.47 45.2691V45.5152C104.145 45.5061 104.816 45.6048 105.46 45.8075C109.008 46.8893 109.561 48.8838 108.372 51.832C107.803 53.2369 107.495 56.2158 108.151 56.7747C108.321 56.9182 108.833 56.8977 109.5 56.7747C109.941 55.7492 110.361 54.5546 110.9 53.0471C111.278 52.0614 111.387 50.9924 111.215 49.9505C111.042 48.9087 110.595 47.9318 109.918 47.1207C109.242 46.3096 108.362 45.6937 107.368 45.3367C106.374 44.9796 105.303 44.8943 104.265 45.0896Z" fill="#263238"/>
<path d="M111.105 57.0525C110.776 57.396 110.383 57.6707 109.947 57.8609C109.511 58.051 109.042 58.1526 108.567 58.16C107.336 58.16 107.142 56.8884 107.834 55.8322C108.454 54.8836 109.838 53.7403 110.91 54.2581C111.982 54.776 111.956 56.1757 111.105 57.0525Z" fill="#CE7A63"/>
<g opacity="0.9">
<path d="M103.542 78.8324C94.9077 78.3197 91.0109 76.7046 89.4574 75.8022C89.4073 75.7757 89.3608 75.743 89.3189 75.7048C88.8729 75.3151 89.4369 74.6024 89.9547 74.8998C91.3135 75.6843 95.0563 77.2788 103.603 77.8069C103.739 77.8149 103.865 77.876 103.955 77.9768C104.046 78.0777 104.092 78.2101 104.085 78.3453C104.082 78.4131 104.065 78.4796 104.036 78.5409C104.007 78.6022 103.966 78.6571 103.916 78.7025C103.865 78.7478 103.806 78.7826 103.742 78.8049C103.678 78.8272 103.61 78.8366 103.542 78.8324Z" fill="white"/>
</g>
<g opacity="0.9">
<path d="M103.091 83.713C103.092 83.7825 103.077 83.8514 103.05 83.9153C103.023 83.9792 102.983 84.037 102.932 84.0849C102.882 84.1329 102.822 84.1701 102.757 84.1943C102.692 84.2185 102.623 84.2292 102.553 84.2257C97.6266 84.0466 92.7821 82.9112 88.289 80.8827C88.227 80.8519 88.1719 80.8089 88.1269 80.7562C88.082 80.7035 88.0482 80.6422 88.0276 80.5761C88.007 80.5099 88 80.4403 88.007 80.3714C88.0141 80.3025 88.035 80.2358 88.0686 80.1752C88.1317 80.0602 88.2365 79.9737 88.3615 79.9337C88.4864 79.8936 88.622 79.903 88.7402 79.9598C93.1123 81.9153 97.8185 83.0152 102.604 83.2003C102.736 83.2068 102.86 83.2638 102.95 83.3592C103.041 83.4547 103.092 83.5813 103.091 83.713Z" fill="white"/>
</g>
<g opacity="0.9">
<path d="M94.4059 92.2599C90.4067 91.4806 88.3506 90.9473 87.4841 90.7217C87.4176 90.7025 87.3557 90.67 87.3021 90.6262C87.2485 90.5824 87.2043 90.5283 87.1722 90.4669C87.1401 90.4056 87.1208 90.3384 87.1154 90.2694C87.1099 90.2004 87.1185 90.131 87.1406 90.0654C87.1829 89.941 87.2714 89.8375 87.3878 89.7765C87.5043 89.7154 87.6397 89.7014 87.7661 89.7373C88.5967 89.9731 90.6477 90.5012 94.6008 91.2755C94.7339 91.3015 94.8513 91.3793 94.9272 91.4917C95.0032 91.6042 95.0314 91.7421 95.0058 91.8754C94.9752 92.0047 94.8955 92.1171 94.7836 92.1889C94.6717 92.2606 94.5363 92.2861 94.4059 92.2599Z" fill="white"/>
</g>
<path d="M103.533 46.7968C103.36 46.8697 103.166 46.8724 102.992 46.8044C102.818 46.7364 102.677 46.603 102.599 46.4327C102.53 46.2593 102.506 46.0708 102.531 45.8856C102.556 45.7004 102.629 45.525 102.743 45.3765C102.973 45.0795 103.272 44.8436 103.615 44.6895C103.324 45.0341 103.122 45.444 103.025 45.8841C103.035 46.284 103.158 46.9249 103.533 46.7968Z" fill="#263238"/>
<path d="M107.813 57.2626C107.812 57.3097 107.801 57.356 107.781 57.3985C107.761 57.4411 107.732 57.4788 107.696 57.5093C107.66 57.5399 107.618 57.5624 107.573 57.5756C107.528 57.5887 107.48 57.5922 107.434 57.5856C107.34 57.5653 107.253 57.5189 107.184 57.4518C107.116 57.3848 107.067 57.2996 107.044 57.2062C107.006 57.0167 107.006 56.8214 107.044 56.632C107.075 56.195 107.181 55.7667 107.357 55.3655C107.534 54.961 107.856 54.6373 108.259 54.458C108.331 54.5435 108.377 54.6479 108.392 54.7588C108.406 54.8696 108.389 54.9823 108.341 55.0835C108.236 55.2638 108.116 55.4353 107.982 55.5963C107.828 55.8253 107.728 56.0867 107.689 56.3603C107.651 56.634 107.676 56.9128 107.762 57.1755C107.803 57.1857 107.772 57.2575 107.813 57.2626Z" fill="#263238"/>
<path d="M50.0454 89.7842H13.5394C12.1931 89.7842 10.902 90.319 9.9501 91.2709C8.99817 92.2229 8.46338 93.514 8.46338 94.8602V122.609C8.46338 123.955 8.99817 125.246 9.9501 126.198C10.902 127.15 12.1931 127.685 13.5394 127.685H41.1189C41.3866 129.857 42.4391 131.857 44.0785 133.308C45.7178 134.758 47.8309 135.559 50.0198 135.56C50.2198 135.56 50.4197 135.56 50.6197 135.53C49.1943 133.653 48.0304 130.915 47.2665 127.685H50.0608C51.4071 127.685 52.6982 127.15 53.6501 126.198C54.602 125.246 55.1368 123.955 55.1368 122.609V94.8602C55.1368 94.1923 55.005 93.531 54.749 92.9141C54.4929 92.2973 54.1176 91.737 53.6447 91.2655C53.1717 90.7939 52.6103 90.4204 51.9927 90.1662C51.375 89.912 50.7133 89.7822 50.0454 89.7842Z" fill="#CEA666"/>
<path opacity="0.4" d="M50.0454 89.7842H13.5394C12.1931 89.7842 10.902 90.319 9.9501 91.2709C8.99817 92.2229 8.46338 93.514 8.46338 94.8602V122.609C8.46338 123.955 8.99817 125.246 9.9501 126.198C10.902 127.15 12.1931 127.685 13.5394 127.685H41.1189C41.3866 129.857 42.4391 131.857 44.0785 133.308C45.7178 134.758 47.8309 135.559 50.0198 135.56C50.2198 135.56 50.4197 135.56 50.6197 135.53C49.1943 133.653 48.0304 130.915 47.2665 127.685H50.0608C51.4071 127.685 52.6982 127.15 53.6501 126.198C54.602 125.246 55.1368 123.955 55.1368 122.609V94.8602C55.1368 94.1923 55.005 93.531 54.749 92.9141C54.4929 92.2973 54.1176 91.737 53.6447 91.2655C53.1717 90.7939 52.6103 90.4204 51.9927 90.1662C51.375 89.912 50.7133 89.7822 50.0454 89.7842Z" fill="white"/>
<path d="M57.3569 101.577L60.1974 98.9463L62.6278 103.443C62.6278 103.443 59.8129 105.591 58.1465 104.268L57.3569 101.577Z" fill="#FF8B7B"/>
<path d="M57.3573 101.571L55.4243 105.683L58.0751 107.878L60.3926 104.125L57.3573 101.571Z" fill="#FF8B7B"/>
<path d="M62.8994 99.5562L63.366 101.253C63.4816 101.65 63.4728 102.073 63.3407 102.464C63.2087 102.855 62.9598 103.197 62.6277 103.443L61.6022 104.125L58.7002 99.0281L61.1869 98.4026C61.3753 98.3639 61.5694 98.3632 61.7581 98.4005C61.9467 98.4378 62.126 98.5123 62.2854 98.6198C62.4449 98.7272 62.5813 98.8653 62.6868 99.0261C62.7922 99.1869 62.8645 99.3671 62.8994 99.5562Z" fill="#FF8B7B"/>
<path d="M57.3569 101.577C57.3569 101.577 58.3824 98.4085 58.2183 97.4395C58.1312 96.8601 58.731 96.9524 59.213 97.1267C59.3988 97.1899 59.5611 97.3081 59.6783 97.4656C59.7955 97.6231 59.8621 97.8124 59.8693 98.0086C59.9103 99.034 59.8693 101.034 59.0848 101.162C58.4981 101.251 57.92 101.39 57.3569 101.577Z" fill="#FF8B7B"/>
<path d="M60.6743 104.869C59.8773 103.978 58.815 103.367 57.6441 103.126L56.7827 102.946C56.27 102.844 56.1726 102.946 56.111 103.095L55.8649 103.479L55.3522 104.243C55.0138 104.756 54.6754 105.269 54.3268 105.782C53.6448 106.807 52.9321 107.766 52.2143 108.699C51.5422 109.591 50.8034 110.431 50.0045 111.211L49.7943 111.406C49.5276 111.119 49.2815 110.817 49.0149 110.504C48.2647 109.555 47.5647 108.568 46.9179 107.545C46.2565 106.52 44.1133 103.413 43.5288 102.295C43.2365 101.741 42.9494 101.177 42.6776 100.613L42.2828 99.7674C42.1649 99.4956 42.0213 99.1777 41.9393 98.9726L41.8829 98.8393C41.4625 97.9142 40.6929 97.1931 39.7425 96.8337C38.7921 96.4742 37.738 96.5055 36.8105 96.9207C35.8831 97.336 35.1577 98.1015 34.793 99.0499C34.4282 99.9983 34.4536 101.053 34.8637 101.982C35.0483 102.398 35.1918 102.695 35.3764 103.039L35.8891 104.023C36.231 104.676 36.5728 105.317 36.9146 105.946C37.6427 107.212 39.9602 110.442 40.8113 111.657C41.6739 112.895 42.6176 114.073 43.6364 115.185C44.7084 116.368 45.8952 117.441 47.1794 118.39L47.3383 118.507C47.7326 118.793 48.1868 118.986 48.6665 119.07C49.1462 119.155 49.6388 119.129 50.107 118.995C51.1518 118.689 52.1259 118.181 52.9732 117.497C53.6204 116.984 54.2225 116.416 54.7728 115.8C55.7349 114.718 56.6109 113.563 57.3929 112.345C58.1466 111.181 58.808 109.991 59.4438 108.802C59.7463 108.197 60.0437 107.597 60.3205 106.981L60.7307 106.058L60.9307 105.592C60.9922 105.428 61.023 105.248 60.6743 104.869Z" fill="#1B2328"/>
<path opacity="0.4" d="M41.6731 103.238L38.8531 105.233L38.043 107.161C38.1814 107.417 38.3147 107.673 38.4583 107.93C39.1812 109.196 39.9964 110.427 40.8271 111.642C41.6896 112.879 42.6334 114.057 43.6522 115.169C44.1649 115.682 44.6776 116.195 45.1904 116.708C43.806 113.452 41.6731 103.238 41.6731 103.238Z" fill="#1B2328"/>
<path d="M16.4664 118.824C16.6868 123.952 15.8767 123.716 15.8562 127.684H40.8413C42.2001 115.579 41.5643 113.718 41.5899 105.683C41.5899 101.161 40.8977 96.5464 36.396 96.0747C31.1086 95.5588 25.7819 95.5932 20.5015 96.1772C19.7105 96.2735 18.9467 96.5269 18.2549 96.9224C17.5631 97.3179 16.9573 97.8476 16.473 98.4805C15.9887 99.1133 15.6357 99.8365 15.4347 100.608C15.2337 101.379 15.1887 102.182 15.3025 102.971C16.3125 109.805 15.7639 113.677 16.4664 118.824Z" fill="#263238"/>
<path opacity="0.9" d="M34.1139 95.8853C30.785 95.6675 27.4458 95.6572 24.1157 95.8546C24.1875 96.88 24.9668 99.4437 30.6427 101.664C30.6427 101.664 31.9092 98.9155 32.9756 100.151C32.9756 100.151 33.8319 98.572 35.6674 101.479C35.6674 101.479 38.4054 98.5464 34.1139 95.8853Z" fill="white"/>
<path opacity="0.4" d="M20.6101 103.155C21.1588 107.908 18.1234 115.855 16.5083 119.696C16.5083 119.429 16.5083 119.137 16.5083 118.824C16.0674 115.615 16.1187 112.897 15.9956 109.657L20.6101 103.155Z" fill="#263238"/>
<path d="M26.5678 86.79C26.652 89.9078 26.0498 93.006 24.804 95.8653C24.7578 95.9741 24.7463 96.0946 24.771 96.2102C24.7958 96.3258 24.8557 96.431 24.9425 96.5113C27.0347 98.3151 29.7175 99.2861 32.4796 99.239C35.8379 99.28 35.6431 98.2136 34.8483 97.0497C34.7325 96.8842 34.5821 96.746 34.4074 96.6446C32.1104 95.2808 32.0284 93.4555 32.6744 92.3531L26.5678 86.79Z" fill="#FF8B7B"/>
<path opacity="0.2" d="M26.5728 86.79L32.6742 92.3531C32.4704 92.7034 32.3525 93.097 32.3302 93.5016C32.3079 93.9062 32.3819 94.3104 32.546 94.6809C31.2586 94.721 30.0038 94.2722 29.0338 93.4247C27.4598 92.0865 26.9265 90.5073 26.5317 88.2975C26.5625 87.8155 26.5728 87.3028 26.5728 86.79Z" fill="#263238"/>
<path d="M24.7523 83.8976C25.019 87.9994 24.4396 88.6557 26.5212 90.7322C29.654 93.8547 34.7556 94.4495 35.4786 90.2964C36.1246 86.5535 36.504 79.7804 32.4586 78.2012C31.5671 77.8466 30.6 77.7252 29.6485 77.8486C28.6971 77.972 27.7929 78.336 27.0213 78.9063C26.2498 79.4766 25.6366 80.2343 25.2395 81.1077C24.8425 81.9811 24.6748 82.9413 24.7523 83.8976Z" fill="#FF8B7B"/>
<path d="M34.7098 88.3279C34.7098 88.3279 33.269 87.8716 29.1826 87.6973C29.6184 89.1637 30.4747 90.384 32.5666 90.4506C34.6585 90.5173 34.7098 88.3279 34.7098 88.3279Z" fill="#263238"/>
<path d="M31.6331 89.256C32.4559 89.243 33.2562 89.5249 33.8891 90.0507C33.5109 90.3341 33.0427 90.4707 32.5714 90.4352C31.7472 90.4519 30.9451 90.1675 30.3154 89.6354C30.6944 89.3539 31.1625 89.2191 31.6331 89.256Z" fill="#FF5652"/>
<path d="M34.5247 88.2618C34.4017 88.5643 34.2735 88.8719 33.8633 88.9539C32.6534 88.8968 31.4517 88.7251 30.2742 88.4412C30.0719 88.4047 29.8827 88.3159 29.7253 88.1837C29.568 88.0515 29.4479 87.8804 29.377 87.6875C31.1068 87.7211 32.83 87.9133 34.5247 88.2618Z" fill="white"/>
<path d="M33.1055 84.498C33.5376 85.2627 34.0743 85.9634 34.7 86.5797C34.5384 86.7379 34.3439 86.8586 34.1303 86.933C33.9167 87.0075 33.6893 87.0339 33.4644 87.0104L33.1055 84.498Z" fill="#FF5652"/>
<path d="M29.0592 82.7291C29.0242 82.7244 28.9917 82.7082 28.9669 82.683C28.9476 82.6639 28.9322 82.6411 28.9217 82.6161C28.9112 82.591 28.9058 82.564 28.9058 82.5368C28.9058 82.5096 28.9112 82.4827 28.9217 82.4576C28.9322 82.4325 28.9476 82.4098 28.9669 82.3907C29.1795 82.1413 29.4486 81.9464 29.7519 81.8224C30.0552 81.6984 30.3838 81.6489 30.7102 81.678C30.7646 81.6862 30.8135 81.7156 30.8462 81.7599C30.8789 81.8041 30.8927 81.8595 30.8845 81.9139C30.8764 81.9683 30.8469 82.0172 30.8027 82.0499C30.7585 82.0826 30.7031 82.0964 30.6487 82.0882C30.3893 82.0681 30.1288 82.1102 29.8889 82.211C29.6491 82.3117 29.4367 82.4683 29.2695 82.6676C29.2438 82.6967 29.2105 82.7179 29.1732 82.7288C29.136 82.7397 29.0965 82.7398 29.0592 82.7291Z" fill="#263238"/>
<path d="M35.8679 83.4579C35.8345 83.4637 35.8001 83.4612 35.7679 83.4504C35.7356 83.4397 35.7066 83.4211 35.6833 83.3964C35.5133 83.2026 35.2994 83.0522 35.0595 82.9576C34.8196 82.8631 34.5606 82.8272 34.3041 82.8529C34.2511 82.8619 34.1967 82.8497 34.1526 82.819C34.1085 82.7884 34.0782 82.7416 34.0682 82.6888C34.0593 82.6345 34.072 82.5788 34.1036 82.5337C34.1352 82.4887 34.1833 82.4578 34.2374 82.4478C34.5608 82.4123 34.8881 82.4542 35.1921 82.5701C35.4961 82.686 35.7682 82.8725 35.9858 83.1144C36.0052 83.1335 36.0206 83.1562 36.0311 83.1813C36.0416 83.2064 36.047 83.2333 36.047 83.2605C36.047 83.2877 36.0416 83.3146 36.0311 83.3397C36.0206 83.3648 36.0052 83.3875 35.9858 83.4066C35.9527 83.4353 35.9115 83.4532 35.8679 83.4579Z" fill="#263238"/>
<path d="M8.85785 119.66C8.86676 119.854 8.89597 120.046 8.94501 120.234C9.40825 121.873 10.0103 123.47 10.7447 125.008C11.1173 125.821 11.5018 126.621 11.8983 127.407C12.4265 127.588 12.9807 127.682 13.539 127.684H19.0713L18.5227 126.459C17.9126 125.12 17.3486 123.777 16.8359 122.449C16.4088 121.372 16.0492 120.269 15.7591 119.147C15.8173 118.718 15.9047 118.293 16.0206 117.876C16.1796 117.26 16.3949 116.594 16.641 115.917C17.1537 114.568 17.7177 113.179 18.333 111.815C18.9483 110.451 19.6302 109.052 20.3173 107.672C21.0043 106.293 21.7221 104.898 22.4348 103.596V103.55L22.4707 103.473C22.9358 102.565 23.0212 101.51 22.7082 100.539C22.3952 99.5687 21.7095 98.7622 20.8018 98.2971C19.8941 97.832 18.8388 97.7466 17.8682 98.0596C16.8975 98.3726 16.0909 99.0583 15.6258 99.966C14.8567 101.473 14.1646 102.914 13.4672 104.406C12.7699 105.898 12.1393 107.406 11.524 108.944C10.9087 110.482 10.355 112.036 9.84228 113.702C9.59104 114.538 9.36544 115.399 9.17573 116.327C8.93988 117.384 8.83144 118.465 8.85272 119.547L8.85785 119.66Z" fill="#1B2328"/>
<path d="M22.891 86.6464C23.2465 87.5255 23.9228 88.2366 24.7829 88.6358C25.8802 89.1075 26.4852 88.0359 26.2237 86.8053C25.993 85.703 25.1367 84.1238 24.0139 84.175C22.891 84.2263 22.4244 85.5184 22.891 86.6464Z" fill="#FF8B7B"/>
<path d="M30.0283 84.1232C30.0283 84.477 30.177 84.7795 30.418 84.7949C30.659 84.8103 30.8589 84.5334 30.8743 84.1694C30.8897 83.8053 30.7256 83.5131 30.4898 83.4977C30.2539 83.4823 30.0488 83.7592 30.0283 84.1232Z" fill="#2E353A"/>
<path d="M34.084 84.3593C34.084 84.7182 34.2378 85.0207 34.4685 85.0361C34.6993 85.0515 34.9095 84.7695 34.9351 84.4106C34.9607 84.0516 34.7813 83.7543 34.5506 83.7389C34.3198 83.7235 34.1045 84.0004 34.084 84.3593Z" fill="#2E353A"/>
<path d="M45.8152 17.8623H9.32965C7.9843 17.8637 6.69452 18.3991 5.7437 19.3509C4.79288 20.3027 4.25879 21.593 4.25879 22.9383V50.687C4.25812 51.3534 4.38878 52.0133 4.64332 52.6292C4.89785 53.245 5.27126 53.8046 5.7422 54.276C6.21314 54.7474 6.77237 55.1214 7.38793 55.3765C8.00349 55.6317 8.6633 55.763 9.32965 55.763H36.8989C37.1632 57.9365 38.2139 59.938 39.8528 61.3898C41.4917 62.8416 43.6053 63.6434 45.7947 63.6436C45.9998 63.6436 46.1998 63.6436 46.3997 63.6129C44.9743 61.7312 43.8053 58.9983 43.0465 55.763H45.8409C47.1871 55.763 48.4782 55.2282 49.4301 54.2763C50.382 53.3244 50.9168 52.0333 50.9168 50.687V22.9383C50.9162 22.2698 50.7836 21.6079 50.5266 20.9907C50.2697 20.3735 49.8935 19.813 49.4196 19.3415C48.9456 18.8699 48.3833 18.4966 47.7648 18.2427C47.1463 17.9889 46.4838 17.8596 45.8152 17.8623Z" fill="#CEA666"/>
<path opacity="0.4" d="M45.8152 17.8623H9.32965C7.9843 17.8637 6.69452 18.3991 5.7437 19.3509C4.79288 20.3027 4.25879 21.593 4.25879 22.9383V50.687C4.25812 51.3534 4.38878 52.0133 4.64332 52.6292C4.89785 53.245 5.27126 53.8046 5.7422 54.276C6.21314 54.7474 6.77237 55.1214 7.38793 55.3765C8.00349 55.6317 8.6633 55.763 9.32965 55.763H36.8989C37.1632 57.9365 38.2139 59.938 39.8528 61.3898C41.4917 62.8416 43.6053 63.6434 45.7947 63.6436C45.9998 63.6436 46.1998 63.6436 46.3997 63.6129C44.9743 61.7312 43.8053 58.9983 43.0465 55.763H45.8409C47.1871 55.763 48.4782 55.2282 49.4301 54.2763C50.382 53.3244 50.9168 52.0333 50.9168 50.687V22.9383C50.9162 22.2698 50.7836 21.6079 50.5266 20.9907C50.2697 20.3735 49.8935 19.813 49.4196 19.3415C48.9456 18.8699 48.3833 18.4966 47.7648 18.2427C47.1463 17.9889 46.4838 17.8596 45.8152 17.8623Z" fill="white"/>
<path d="M36.8724 55.7645C36.6632 52.7841 36.6632 49.7927 36.8724 46.8123C37.1903 41.5619 35.6213 35.8861 34.4369 34.917C32.7296 33.507 31.1401 32.1791 30.5761 33.9531C30.248 34.9785 30.1506 36.6705 30.1711 38.5676C30.2223 43.1514 31.1965 48.8683 31.658 51.5088C31.8272 52.442 32.2527 55.7696 32.2527 55.7696L36.8724 55.7645Z" fill="#CEA666"/>
<path d="M33.6837 35.1419C33.6252 34.765 33.4591 34.4131 33.2053 34.1283C32.9515 33.8436 32.6209 33.6383 32.2532 33.5371C30.9714 33.1936 28.7564 32.6347 26.7414 32.2758C24.3669 31.8899 21.9683 31.6706 19.5632 31.6195C18.025 31.558 16.5484 31.6195 15.364 31.6708C15.2236 31.6818 15.0846 31.7058 14.9487 31.7426C14.6985 31.8135 14.4647 31.933 14.2607 32.0943C14.0567 32.2557 13.8865 32.4556 13.7599 32.6827C13.6332 32.9099 13.5526 33.1598 13.5225 33.4181C13.4925 33.6764 13.5137 33.9381 13.5848 34.1883C16.6253 45.0427 17.2559 50.2366 17.4149 55.7638H32.2532C32.9453 50.7493 34.3041 46.6321 34.4271 43.6839C34.5328 40.8168 34.283 37.9477 33.6837 35.1419Z" fill="#CEA666"/>
<path opacity="0.8" d="M33.6837 35.1419C33.6252 34.765 33.4591 34.4131 33.2053 34.1283C32.9515 33.8436 32.6209 33.6383 32.2532 33.5371C30.9714 33.1936 28.7564 32.6347 26.7414 32.2758C24.3669 31.8899 21.9683 31.6706 19.5632 31.6195C18.025 31.558 16.5484 31.6195 15.364 31.6708C15.2236 31.6818 15.0846 31.7058 14.9487 31.7426C14.6985 31.8135 14.4647 31.933 14.2607 32.0943C14.0567 32.2557 13.8865 32.4556 13.7599 32.6827C13.6332 32.9099 13.5526 33.1598 13.5225 33.4181C13.4925 33.6764 13.5137 33.9381 13.5848 34.1883C16.6253 45.0427 17.2559 50.2366 17.4149 55.7638H32.2532C32.9453 50.7493 34.3041 46.6321 34.4271 43.6839C34.5328 40.8168 34.283 37.9477 33.6837 35.1419Z" fill="white"/>
<path d="M27.587 29.7686C26.6128 31.0864 25.9001 32.6502 27.428 34.3832C27.7594 34.7448 27.9535 35.211 27.9766 35.7009C27.9766 36.4854 27.5408 37.2391 24.9874 35.7419C21.2856 33.5679 21.5983 31.1274 21.5983 31.1274C23.5416 30.5377 24.7055 26.4513 25.1567 24.1133L27.587 29.7686Z" fill="#FFB573"/>
<path opacity="0.2" d="M25.3622 27.6048C25.0802 28.5995 26.1313 30.1684 26.9312 30.8145C27.1175 30.4541 27.3354 30.1109 27.5824 29.789L26.1467 26.4307C25.811 26.767 25.5445 27.1659 25.3622 27.6048Z" fill="#263238"/>
<path d="M35.1038 17.473C36.4061 19.124 33.4733 24.0974 33.1555 23.0566C32.6427 21.3646 31.8941 17.9294 31.9044 16.5194C31.9249 14.2941 33.8066 15.8272 35.1038 17.473Z" fill="#263238"/>
<path d="M24.3055 17.9916C24.6511 17.4033 25.1093 16.8889 25.6538 16.4777C26.1983 16.0666 26.8184 15.7667 27.4789 15.5953C28.1393 15.4239 28.827 15.3843 29.5027 15.4787C30.1784 15.5732 30.8289 15.7998 31.417 16.1458C34.9087 18.1659 34.6421 23.8366 33.3603 27.0976C31.9554 30.7328 27.2075 31.1994 24.7516 27.8923C23.1006 25.6876 23.3108 24.0827 23.6031 20.2834C23.6542 19.475 23.8948 18.6898 24.3055 17.9916Z" fill="#FFB573"/>
<path d="M28.9459 22.1857C28.9203 22.4985 29.0587 22.7651 29.2587 22.7856C29.4587 22.8061 29.6484 22.5703 29.6842 22.2729C29.7201 21.9755 29.5714 21.6935 29.3715 21.673C29.1715 21.6525 28.9921 21.914 28.9459 22.1857Z" fill="#263238"/>
<path d="M29.2695 21.7185L30.0335 21.5801C30.0335 21.5801 29.6028 22.1031 29.2695 21.7185Z" fill="#263238"/>
<path d="M32.832 23.0725C32.832 23.3853 32.9448 23.6519 33.1448 23.6724C33.3448 23.6929 33.5345 23.4571 33.5704 23.1597C33.6062 22.8623 33.4576 22.5803 33.2576 22.5598C33.0576 22.5393 32.8782 22.7803 32.832 23.0725Z" fill="#263238"/>
<path d="M33.1553 22.5867L33.9192 22.4482C33.9192 22.4482 33.4885 22.9712 33.1553 22.5867Z" fill="#263238"/>
<path d="M31.3765 25.4157C31.5562 25.4887 31.7497 25.522 31.9435 25.5131C32.1374 25.5043 32.327 25.4535 32.4993 25.3644C32.1304 24.7011 31.8544 23.9903 31.679 23.252L31.3765 25.4157Z" fill="#ED893E"/>
<path d="M28.4484 25.2868C28.4389 25.2649 28.4379 25.2402 28.4454 25.2175C28.453 25.1948 28.4686 25.1757 28.4894 25.1638C28.5112 25.1531 28.5363 25.1514 28.5593 25.159C28.5824 25.1667 28.6015 25.1832 28.6125 25.2048C28.8018 25.5411 29.0684 25.8276 29.3902 26.0407C29.712 26.2537 30.0798 26.3872 30.4634 26.4302C30.4855 26.4362 30.5048 26.4497 30.5179 26.4684C30.5311 26.4872 30.5372 26.51 30.5352 26.5328C30.534 26.5441 30.5304 26.555 30.5247 26.5649C30.5191 26.5748 30.5114 26.5834 30.5023 26.5901C30.4931 26.5969 30.4826 26.6016 30.4715 26.6041C30.4604 26.6066 30.4489 26.6067 30.4378 26.6045C30.2902 26.5884 30.1444 26.5592 30.0019 26.5174C29.6743 26.4256 29.3682 26.2696 29.1014 26.0583C28.8347 25.847 28.6127 25.5848 28.4484 25.2868Z" fill="#263238"/>
<path d="M28.8118 20.2123C28.7832 20.1742 28.771 20.1263 28.7777 20.0792C28.7844 20.0321 28.8096 19.9896 28.8477 19.961C29.1523 19.7764 29.4928 19.6589 29.8465 19.6165C30.2002 19.574 30.5589 19.6076 30.8986 19.7149C30.9436 19.7312 30.9806 19.7644 31.0017 19.8074C31.0227 19.8505 31.0262 19.9001 31.0114 19.9456C30.9962 19.9903 30.964 20.0273 30.9217 20.0484C30.8795 20.0695 30.8306 20.0731 30.7858 20.0584C30.5025 19.9671 30.2032 19.9363 29.9073 19.9681C29.6114 19.9999 29.3255 20.0936 29.0681 20.243C29.0382 20.2667 29.0012 20.2796 28.963 20.2796C28.9249 20.2796 28.8878 20.2667 28.8579 20.243L28.8118 20.2123Z" fill="#263238"/>
<path d="M34.4068 21.3953C34.2837 21.2026 34.1159 21.0424 33.9178 20.9282C33.7197 20.814 33.497 20.7491 33.2686 20.739C33.2446 20.7397 33.2207 20.7356 33.1983 20.7269C33.1759 20.7182 33.1556 20.7051 33.1383 20.6883C33.1211 20.6716 33.1075 20.6516 33.0981 20.6295C33.0888 20.6073 33.084 20.5836 33.084 20.5596C33.084 20.5115 33.1027 20.4653 33.1362 20.4308C33.1697 20.3964 33.2154 20.3763 33.2634 20.375C33.5515 20.3851 33.8331 20.4639 34.0846 20.6048C34.3361 20.7457 34.5503 20.9447 34.7093 21.1851C34.7226 21.2045 34.7318 21.2263 34.7364 21.2494C34.741 21.2724 34.7409 21.2961 34.7361 21.3191C34.7313 21.3421 34.7219 21.3638 34.7085 21.3831C34.6951 21.4024 34.6779 21.4187 34.6581 21.4312C34.6314 21.4486 34.6002 21.4579 34.5683 21.4579C34.5365 21.4579 34.5053 21.4486 34.4786 21.4312L34.4068 21.3953Z" fill="#263238"/>
<path d="M29.7405 17.2326C29.1677 17.3401 28.6259 17.5733 28.1542 17.9156C27.6825 18.2578 27.2926 18.7005 27.0128 19.2117C26.7513 19.6937 25.0695 20.7499 24.7824 21.2267C23.88 22.729 24.8644 27.0051 24.4389 27.3281C24.0133 27.6512 24.162 26.3847 23.7569 26.1386C23.3272 25.9446 22.9154 25.713 22.5264 25.4464C22.0137 25.0158 20.2345 20.3756 22.429 17.5658C23.5209 16.0838 25.1194 15.0546 26.9205 14.6741C28.7452 14.364 30.6185 14.7899 32.1298 15.8585C32.6066 16.202 33.4423 17.1403 32.1298 17.5607C31.7709 17.6735 31.7555 17.3864 31.3812 17.2941C30.8451 17.1556 30.2854 17.1346 29.7405 17.2326Z" fill="#263238"/>
<path d="M21.0134 21.2272C22.2799 19.9966 23.8591 19.9966 25.2537 19.9966C25.9163 20.0491 26.5829 19.9743 27.2174 19.7762C28.6223 19.166 29.4837 17.1613 29.6426 16.505C29.7276 16.2364 29.8795 15.9938 30.084 15.8001C30.2885 15.6064 30.5389 15.4678 30.8116 15.3975C31.0336 15.3866 31.2551 15.4272 31.4588 15.5161C31.6625 15.6051 31.8429 15.74 31.9858 15.9102C32.237 16.2742 32.2114 16.8023 31.9089 17.4484L32.1088 17.5355C32.4421 16.7921 32.4575 16.1973 32.1652 15.7666C32 15.567 31.7911 15.4082 31.5545 15.3023C31.318 15.1965 31.0603 15.1466 30.8014 15.1565C30.4809 15.228 30.1852 15.3834 29.9447 15.6069C29.7041 15.8303 29.5273 16.1137 29.4324 16.4281C29.2888 17.0331 28.4428 18.9917 27.1303 19.5557C26.5234 19.7421 25.8862 19.81 25.2537 19.7556C23.8898 19.7556 22.1773 19.7556 20.8647 21.0477L21.0134 21.2272Z" fill="#263238"/>
<path opacity="0.1" d="M21.0134 21.2272C22.2799 19.9966 23.8591 19.9966 25.2537 19.9966C25.9163 20.0491 26.5829 19.9743 27.2174 19.7762C28.6223 19.166 29.4837 17.1613 29.6426 16.505C29.7276 16.2364 29.8795 15.9938 30.084 15.8001C30.2885 15.6064 30.5389 15.4678 30.8116 15.3975C31.0336 15.3866 31.2551 15.4272 31.4588 15.5161C31.6625 15.6051 31.8429 15.74 31.9858 15.9102C32.237 16.2742 32.2114 16.8023 31.9089 17.4484L32.1088 17.5355C32.4421 16.7921 32.4575 16.1973 32.1652 15.7666C32 15.567 31.7911 15.4082 31.5545 15.3023C31.318 15.1965 31.0603 15.1466 30.8014 15.1565C30.4809 15.228 30.1852 15.3834 29.9447 15.6069C29.7041 15.8303 29.5273 16.1137 29.4324 16.4281C29.2888 17.0331 28.4428 18.9917 27.1303 19.5557C26.5234 19.7421 25.8862 19.81 25.2537 19.7556C23.8898 19.7556 22.1773 19.7556 20.8647 21.0477L21.0134 21.2272Z" fill="white"/>
<path d="M22.1013 22.6676C22.1222 22.5049 22.175 22.3478 22.2567 22.2055C22.3384 22.0632 22.4474 21.9385 22.5775 21.8385C22.7075 21.7384 22.8561 21.665 23.0146 21.6226C23.1731 21.5801 23.3384 21.5693 23.501 21.5909C24.4445 21.7345 24.8751 23.006 24.8751 23.8367C24.8751 24.7544 24.1932 25.4364 23.3626 24.9185C22.7403 24.5217 22.2999 23.8951 22.1372 23.1752C22.0895 23.0105 22.0773 22.8375 22.1013 22.6676Z" fill="#FFB573"/>
<path d="M23.7782 36.198C23.5782 38.8232 21.153 48.7393 15.8976 49.0161C15.0603 49.0396 14.2445 48.7487 13.6108 48.2009C9.37573 45.6373 12.7033 33.2806 13.5544 32.5628C13.924 32.2458 14.3671 32.0266 14.8433 31.9251C15.3195 31.8237 15.8135 31.8432 16.2801 31.9819C16.7468 32.1207 17.1712 32.3742 17.5146 32.7193C17.858 33.0644 18.1095 33.49 18.2459 33.9574C18.3565 33.5664 18.4439 33.1692 18.5074 32.7679C18.7278 31.4297 19.4559 28.3123 20.7993 28.0867C21.6094 27.9482 23.2757 27.8765 23.7577 28.5379C24.2397 29.1993 24.1115 31.8655 23.7782 36.198Z" fill="#CEA666"/>
<g opacity="0.2">
<path d="M23.5005 21.5908V21.8215L23.7415 24.098V27.0308L24.1414 25.2876C24.2429 24.8334 24.2654 24.3651 24.208 23.9032L23.9261 21.719L23.5005 21.5908Z" fill="#263238"/>
</g>
<path d="M20.8655 28.6148L20.2349 24.0464L24.0444 24.0156C24.0444 24.0156 23.7317 27.4458 22.778 28.6302L20.8655 28.6148Z" fill="#FFB573"/>
<path d="M20.9065 20.9248L23.7265 21.4221L24.029 24.0063L20.2349 24.0473L20.9065 20.9248Z" fill="#FFB573"/>
<path opacity="0.2" d="M17.0767 38.1162C17.0767 38.1162 14.795 43.387 14.7232 41.3002C14.6515 39.0289 17.0767 38.1162 17.0767 38.1162Z" fill="#263238"/>
<path d="M157.707 68.9355H143.597C142.951 68.9355 142.332 69.1921 141.875 69.6489C141.418 70.1056 141.162 70.7251 141.162 71.371V80.4565C141.163 81.1015 141.42 81.7197 141.877 82.1753C142.333 82.6309 142.952 82.8868 143.597 82.8868H147.653L149.463 85.2556C149.602 85.4384 149.781 85.5866 149.987 85.6886C150.193 85.7905 150.42 85.8436 150.65 85.8436C150.879 85.8436 151.106 85.7905 151.312 85.6886C151.518 85.5866 151.697 85.4384 151.837 85.2556L153.646 82.8868H157.707C158.352 82.8868 158.97 82.6308 159.426 82.175C159.882 81.7192 160.138 81.1011 160.138 80.4565V71.371C160.138 70.726 159.882 70.1073 159.426 69.6507C158.97 69.1941 158.352 68.9369 157.707 68.9355Z" fill="#CEA666"/>
<path opacity="0.7" d="M157.707 68.9355H143.597C142.951 68.9355 142.332 69.1921 141.875 69.6489C141.418 70.1056 141.162 70.7251 141.162 71.371V80.4565C141.163 81.1015 141.42 81.7197 141.877 82.1753C142.333 82.6309 142.952 82.8868 143.597 82.8868H147.653L149.463 85.2556C149.602 85.4384 149.781 85.5866 149.987 85.6886C150.193 85.7905 150.42 85.8436 150.65 85.8436C150.879 85.8436 151.106 85.7905 151.312 85.6886C151.518 85.5866 151.697 85.4384 151.837 85.2556L153.646 82.8868H157.707C158.352 82.8868 158.97 82.6308 159.426 82.175C159.882 81.7192 160.138 81.1011 160.138 80.4565V71.371C160.138 70.726 159.882 70.1073 159.426 69.6507C158.97 69.1941 158.352 68.9369 157.707 68.9355Z" fill="white"/>
<path d="M156.887 75.1808L152.38 72.4326V74.0836H150.329C149.002 74.0836 147.729 74.6108 146.791 75.5493C145.852 76.4878 145.325 77.7606 145.325 79.0878C145.327 79.4586 145.368 79.8282 145.448 80.1902C145.7 79.0833 146.32 78.0947 147.207 77.3859C148.093 76.6772 149.194 76.2902 150.329 76.2883H152.38V77.9444L156.887 75.1808Z" fill="#CEA666"/>
<path d="M58.4227 13.3262H69.2412C69.7362 13.3262 70.2109 13.5228 70.5609 13.8728C70.9109 14.2228 71.1076 14.6975 71.1076 15.1925V22.1861C71.1076 22.4309 71.0592 22.6734 70.9654 22.8995C70.8715 23.1256 70.734 23.3311 70.5606 23.504C70.3872 23.6768 70.1815 23.8138 69.9551 23.9071C69.7287 24.0003 69.4861 24.0479 69.2412 24.0473H66.129L64.7446 25.8674C64.638 26.0077 64.5003 26.1214 64.3425 26.1997C64.1846 26.278 64.0108 26.3187 63.8345 26.3187C63.6583 26.3187 63.4845 26.278 63.3266 26.1997C63.1688 26.1214 63.0311 26.0077 62.9245 25.8674L61.535 24.0473H58.4227C58.1781 24.0479 57.9358 24.0003 57.7097 23.907C57.4836 23.8137 57.2781 23.6766 57.1052 23.5036C56.9322 23.3307 56.7951 23.1252 56.7018 22.8991C56.6085 22.673 56.5609 22.4307 56.5615 22.1861V15.1925C56.5609 14.9476 56.6085 14.7051 56.7017 14.4787C56.795 14.2523 56.932 14.0465 57.1048 13.8731C57.2777 13.6997 57.4832 13.5622 57.7093 13.4683C57.9354 13.3745 58.1779 13.3262 58.4227 13.3262Z" fill="#CEA666"/>
<path opacity="0.7" d="M58.4227 13.3262H69.2412C69.7362 13.3262 70.2109 13.5228 70.5609 13.8728C70.9109 14.2228 71.1076 14.6975 71.1076 15.1925V22.1861C71.1076 22.4309 71.0592 22.6734 70.9654 22.8995C70.8715 23.1256 70.734 23.3311 70.5606 23.504C70.3872 23.6768 70.1815 23.8138 69.9551 23.9071C69.7287 24.0003 69.4861 24.0479 69.2412 24.0473H66.129L64.7446 25.8674C64.638 26.0077 64.5003 26.1214 64.3425 26.1997C64.1846 26.278 64.0108 26.3187 63.8345 26.3187C63.6583 26.3187 63.4845 26.278 63.3266 26.1997C63.1688 26.1214 63.0311 26.0077 62.9245 25.8674L61.535 24.0473H58.4227C58.1781 24.0479 57.9358 24.0003 57.7097 23.907C57.4836 23.8137 57.2781 23.6766 57.1052 23.5036C56.9322 23.3307 56.7951 23.1252 56.7018 22.8991C56.6085 22.673 56.5609 22.4307 56.5615 22.1861V15.1925C56.5609 14.9476 56.6085 14.7051 56.7017 14.4787C56.795 14.2523 56.932 14.0465 57.1048 13.8731C57.2777 13.6997 57.4832 13.5622 57.7093 13.4683C57.9354 13.3745 58.1779 13.3262 58.4227 13.3262Z" fill="white"/>
<path d="M59.0645 18.1154L62.5305 16.0029V17.2694H64.1148C64.6899 17.271 65.2573 17.4015 65.7752 17.6514C66.2932 17.9013 66.7485 18.2642 67.1076 18.7134C67.4667 19.1625 67.7206 19.6865 67.8504 20.2467C67.9802 20.807 67.9827 21.3892 67.8577 21.9505C67.6648 21.1019 67.1894 20.344 66.5094 19.8009C65.8294 19.2578 64.9851 18.9618 64.1148 18.9614H62.5305V20.2278L59.0645 18.1154Z" fill="#CEA666"/>
</svg>
