<svg width="35" height="35" viewBox="0 0 35 35" fill="none" xmlns="http://www.w3.org/2000/svg">
<path fill-rule="evenodd" clip-rule="evenodd" d="M17.5 35C27.165 35 35 27.165 35 17.5C35 7.83502 27.165 0 17.5 0C7.83502 0 0 7.83502 0 17.5C0 27.165 7.83502 35 17.5 35ZM11.987 24.712C13.6957 26.2373 15.7 27 18 27C19.2507 27.0007 20.4217 26.7633 21.513 26.288C22.6043 25.8127 23.5543 25.171 24.363 24.363C25.1703 23.555 25.8117 22.605 26.287 21.513C26.7623 20.421 27 19.25 27 18C27.0007 16.7493 26.7633 15.5783 26.288 14.487C25.8127 13.3957 25.171 12.4457 24.363 11.637C23.555 10.8297 22.605 10.1883 21.513 9.713C20.421 9.23767 19.25 9 18 9C16.634 9 15.3383 9.29167 14.113 9.875C12.8877 10.4583 11.85 11.2833 11 12.35V10H9V16H15V14H12.25C12.9333 13.0667 13.775 12.3333 14.775 11.8C15.775 11.2667 16.85 11 18 11C19.9493 10.9993 21.6033 11.6783 22.962 13.037C24.3207 14.3957 25 16.05 25 18C25.0007 19.9493 24.3217 21.6033 22.963 22.962C21.6043 24.3207 19.95 25 18 25C16.2507 25 14.7217 24.4333 13.413 23.3C12.1043 22.1667 11.3333 20.7333 11.1 19H9.05C9.29933 21.2827 10.2783 23.1867 11.987 24.712ZM17 18.4L20.8 22.2L22.2 20.8L19 17.6V13H17V18.4Z" fill="#CEA666"/>
</svg>
