<svg width="167" height="236" viewBox="0 0 167 236" fill="none" xmlns="http://www.w3.org/2000/svg">
<mask id="mask0_123_5004" style="mask-type:luminance" maskUnits="userSpaceOnUse" x="0" y="0" width="167" height="236">
<path d="M166.83 0H0V235.95H166.83V0Z" fill="white"/>
</mask>
<g mask="url(#mask0_123_5004)">
<mask id="mask1_123_5004" style="mask-type:luminance" maskUnits="userSpaceOnUse" x="0" y="0" width="167" height="236">
<path d="M0 235.95V0H166.83V235.95H0Z" fill="white"/>
</mask>
<g mask="url(#mask1_123_5004)">
<mask id="mask2_123_5004" style="mask-type:luminance" maskUnits="userSpaceOnUse" x="4" y="65" width="158" height="136">
<path d="M161.95 65.39H4.82996V200.11H161.95V65.39Z" fill="white"/>
</mask>
<g mask="url(#mask2_123_5004)">
<mask id="mask3_123_5004" style="mask-type:luminance" maskUnits="userSpaceOnUse" x="4" y="65" width="158" height="136">
<path d="M125.69 79.34L128.29 79.02L127.72 77.18L120.1 75.15L115.01 76.73L119.02 79.11L125.69 79.34ZM30.5899 169.68C31.6399 164.3 33.5899 158.67 36.0599 153.17C40.4399 143.5 46.9999 134.18 52.4399 124.68C52.6399 124.34 53.1999 123.86 53.0399 123.65C50.8299 120.76 43.6999 127.35 39.1999 130.26C34.5299 133.27 30.2899 137.39 25.9899 141.2C21.8299 144.9 17.6699 148.68 13.8099 152.76C10.7099 156.04 3.54991 166.95 5.00991 163.08C9.58991 151.1 11.2799 148.25 15.8699 141.2C22.6699 130.77 30.5399 120.18 39.9899 111.89C44.6999 107.75 49.7799 104.08 54.9799 100.96C35.0599 111.54 7.65991 129.56 19.8099 118.65C46.2099 94.98 43.4699 96.83 55.8399 88.94C70.4999 79.59 85.7599 71.95 99.7599 68.9C113.79 65.84 130.4 62.03 137.94 71.07C139.48 72.92 140.54 76.84 138.79 80.27C142.4 80.29 145.94 80.44 149.42 80.71C153.19 81 156.81 82.05 159.15 84.43C160.84 86.15 162.04 88.66 161.89 91.66C161.72 94.67 160.32 98.29 158.21 101.36C156.16 104.34 152.83 109.04 150.19 108.79C148.75 108.65 150.45 105.44 149.83 104.25C148.74 102.11 146.81 100.4 144.23 100.12C133.56 98.98 120.05 104.99 107.8 110.86C91.4399 118.69 74.7999 129.44 60.1099 142.65C49.8899 151.85 41.5899 163.39 33.3799 174.44C32.1999 176.04 31.6899 179.31 30.1499 179.39C27.0499 179.56 29.9399 173.08 30.5899 169.68ZM75.9999 192.15C73.9499 190.34 72.6999 187.38 72.5999 183.96C72.3999 176.36 74.7699 167.15 78.9299 158.62C83.0599 150.15 89.9099 142.35 96.3799 135.07C103.89 126.64 105.85 124.32 120.8 112.29C115.36 119.2 110.85 125 106.63 131.74C100.86 140.97 95.4199 150.56 91.5999 160.15C88.4099 168.19 85.9499 176.43 85.2599 183.96C84.8999 188.01 89.9099 191.39 86.4999 194.97C82.6799 198.98 78.5699 194.44 75.9999 192.15ZM49.5799 196.52C47.7499 195.06 46.5899 192.67 46.3999 189.91C46.0299 183.78 47.8799 176.36 51.2699 169.48C54.6499 162.65 60.3999 156.36 65.8599 150.49C72.1899 143.69 73.8199 141.82 86.5299 132.12C81.9599 137.7 78.1899 142.37 74.6999 147.81C69.8999 155.26 65.4199 162.99 62.3399 170.72C59.7599 177.2 57.8399 183.85 57.4199 189.92C57.2099 193.19 61.6599 195.92 58.7799 198.8C55.5699 202.02 51.8699 198.36 49.5799 196.52Z" fill="white"/>
</mask>
<g mask="url(#mask3_123_5004)">
<mask id="mask4_123_5004" style="mask-type:luminance" maskUnits="userSpaceOnUse" x="4" y="65" width="158" height="136">
<path d="M161.95 65.39H4.82996V200.11H161.95V65.39Z" fill="white"/>
</mask>
<g mask="url(#mask4_123_5004)">
<mask id="mask5_123_5004" style="mask-type:luminance" maskUnits="userSpaceOnUse" x="4" y="65" width="158" height="136">
<path d="M161.95 65.39H4.82996V200.11H161.95V65.39Z" fill="white"/>
</mask>
<g mask="url(#mask5_123_5004)">
<mask id="mask6_123_5004" style="mask-type:luminance" maskUnits="userSpaceOnUse" x="4" y="65" width="158" height="136">
<path d="M161.95 65.39H4.82996V200.11H161.95V65.39Z" fill="white"/>
</mask>
<g mask="url(#mask6_123_5004)">
<rect x="4.63989" y="65.31" width="157.44" height="134.88" fill="#CEA666"/>
</g>
</g>
</g>
</g>
</g>
</g>
</g>
</svg>
