<svg width="35" height="35" viewBox="0 0 35 35" fill="none" xmlns="http://www.w3.org/2000/svg">
<path fill-rule="evenodd" clip-rule="evenodd" d="M17.5 35C27.165 35 35 27.165 35 17.5C35 7.83502 27.165 0 17.5 0C7.83502 0 0 7.83502 0 17.5C0 27.165 7.83502 35 17.5 35ZM18.937 11.4351L25.5611 18.0593C26.1538 18.6519 26.1538 19.5971 25.5686 20.1823L20.1898 25.5611C19.6047 26.1463 18.6519 26.1463 18.0668 25.5611L11.4426 18.937C11.1575 18.6594 11 18.2768 11 17.8792V12.5004C11 11.6752 11.6752 11 12.5004 11H17.8792C18.2768 11 18.6594 11.1575 18.937 11.4351ZM13.2506 14.3758C13.2506 14.9985 13.7532 15.5011 14.3758 15.5011C14.9985 15.5011 15.5011 14.9985 15.5011 14.3758C15.5011 13.7532 14.9985 13.2506 14.3758 13.2506C13.7532 13.2506 13.2506 13.7532 13.2506 14.3758Z" fill="#CEA666"/>
</svg>
