<svg width="149" height="70" viewBox="0 0 149 70" fill="none" xmlns="http://www.w3.org/2000/svg">
<g filter="url(#filter0_dd_123_4100)">
<rect x="20.665" y="7" width="108.463" height="30" rx="2" fill="#CEA666"/>
<path d="M58.4245 26.728C57.6325 26.728 56.9525 26.588 56.3845 26.308C55.8165 26.028 55.3525 25.664 54.9925 25.216C54.6405 24.768 54.3805 24.28 54.2125 23.752C54.0445 23.224 53.9605 22.716 53.9605 22.228V21.964C53.9605 21.42 54.0445 20.884 54.2125 20.356C54.3885 19.828 54.6565 19.348 55.0165 18.916C55.3765 18.484 55.8325 18.14 56.3845 17.884C56.9445 17.62 57.6045 17.488 58.3645 17.488C59.1565 17.488 59.8445 17.632 60.4285 17.92C61.0205 18.2 61.4925 18.6 61.8445 19.12C62.1965 19.632 62.4085 20.232 62.4805 20.92H60.7645C60.7005 20.52 60.5565 20.184 60.3325 19.912C60.1165 19.632 59.8405 19.424 59.5045 19.288C59.1685 19.144 58.7885 19.072 58.3645 19.072C57.9325 19.072 57.5485 19.148 57.2125 19.3C56.8765 19.444 56.5965 19.652 56.3725 19.924C56.1485 20.196 55.9765 20.516 55.8565 20.884C55.7445 21.252 55.6885 21.66 55.6885 22.108C55.6885 22.54 55.7445 22.94 55.8565 23.308C55.9765 23.676 56.1525 24 56.3845 24.28C56.6165 24.552 56.9005 24.764 57.2365 24.916C57.5805 25.068 57.9765 25.144 58.4245 25.144C59.0805 25.144 59.6325 24.984 60.0805 24.664C60.5365 24.336 60.8125 23.88 60.9085 23.296H62.6245C62.5445 23.92 62.3325 24.492 61.9885 25.012C61.6445 25.532 61.1725 25.948 60.5725 26.26C59.9725 26.572 59.2565 26.728 58.4245 26.728ZM67.8784 26.5V24.568H67.6024V22.42C67.6024 22.044 67.5104 21.764 67.3264 21.58C67.1424 21.396 66.8584 21.304 66.4744 21.304C66.2744 21.304 66.0344 21.308 65.7544 21.316C65.4744 21.324 65.1904 21.336 64.9024 21.352C64.6224 21.36 64.3704 21.372 64.1464 21.388V19.972C64.3304 19.956 64.5384 19.94 64.7704 19.924C65.0024 19.908 65.2384 19.9 65.4784 19.9C65.7264 19.892 65.9584 19.888 66.1744 19.888C66.8464 19.888 67.4024 19.976 67.8424 20.152C68.2904 20.328 68.6264 20.604 68.8504 20.98C69.0824 21.356 69.1984 21.848 69.1984 22.456V26.5H67.8784ZM65.7784 26.668C65.3064 26.668 64.8904 26.584 64.5304 26.416C64.1784 26.248 63.9024 26.008 63.7024 25.696C63.5104 25.384 63.4144 25.008 63.4144 24.568C63.4144 24.088 63.5304 23.696 63.7624 23.392C64.0024 23.088 64.3344 22.86 64.7584 22.708C65.1904 22.556 65.6944 22.48 66.2704 22.48H67.7824V23.476H66.2464C65.8624 23.476 65.5664 23.572 65.3584 23.764C65.1584 23.948 65.0584 24.188 65.0584 24.484C65.0584 24.78 65.1584 25.02 65.3584 25.204C65.5664 25.388 65.8624 25.48 66.2464 25.48C66.4784 25.48 66.6904 25.44 66.8824 25.36C67.0824 25.272 67.2464 25.128 67.3744 24.928C67.5104 24.72 67.5864 24.44 67.6024 24.088L68.0104 24.556C67.9704 25.012 67.8584 25.396 67.6744 25.708C67.4984 26.02 67.2504 26.26 66.9304 26.428C66.6184 26.588 66.2344 26.668 65.7784 26.668ZM70.9851 26.5V19.984H72.3051V22.78H72.1851C72.1851 22.116 72.2731 21.564 72.4491 21.124C72.6251 20.676 72.8851 20.34 73.2291 20.116C73.5811 19.892 74.0171 19.78 74.5371 19.78H74.6091C75.3851 19.78 75.9731 20.032 76.3731 20.536C76.7731 21.032 76.9731 21.776 76.9731 22.768V26.5H75.3051V22.624C75.3051 22.224 75.1891 21.9 74.9571 21.652C74.7331 21.404 74.4211 21.28 74.0211 21.28C73.6131 21.28 73.2811 21.408 73.0251 21.664C72.7771 21.912 72.6531 22.248 72.6531 22.672V26.5H70.9851ZM81.6584 26.728C81.0904 26.728 80.5984 26.632 80.1824 26.44C79.7744 26.248 79.4304 25.992 79.1504 25.672C78.8784 25.352 78.6744 24.992 78.5384 24.592C78.4024 24.192 78.3344 23.784 78.3344 23.368V23.14C78.3344 22.7 78.4024 22.28 78.5384 21.88C78.6824 21.472 78.8944 21.112 79.1744 20.8C79.4544 20.48 79.7984 20.228 80.2064 20.044C80.6224 19.852 81.1024 19.756 81.6464 19.756C82.2144 19.756 82.7224 19.868 83.1704 20.092C83.6184 20.308 83.9744 20.612 84.2384 21.004C84.5104 21.396 84.6624 21.852 84.6944 22.372H83.0744C83.0344 22.036 82.8904 21.756 82.6424 21.532C82.4024 21.308 82.0704 21.196 81.6464 21.196C81.2784 21.196 80.9704 21.284 80.7224 21.46C80.4824 21.636 80.3024 21.88 80.1824 22.192C80.0624 22.496 80.0024 22.848 80.0024 23.248C80.0024 23.632 80.0584 23.98 80.1704 24.292C80.2904 24.604 80.4704 24.848 80.7104 25.024C80.9584 25.2 81.2744 25.288 81.6584 25.288C81.9464 25.288 82.1944 25.236 82.4024 25.132C82.6104 25.028 82.7744 24.884 82.8944 24.7C83.0224 24.516 83.1024 24.308 83.1344 24.076H84.7544C84.7224 24.604 84.5664 25.068 84.2864 25.468C84.0144 25.86 83.6504 26.168 83.1944 26.392C82.7464 26.616 82.2344 26.728 81.6584 26.728ZM89.0066 26.728C88.4466 26.728 87.9546 26.632 87.5306 26.44C87.1146 26.248 86.7666 25.992 86.4866 25.672C86.2146 25.344 86.0066 24.98 85.8626 24.58C85.7266 24.18 85.6586 23.772 85.6586 23.356V23.128C85.6586 22.696 85.7266 22.28 85.8626 21.88C86.0066 21.472 86.2146 21.112 86.4866 20.8C86.7666 20.48 87.1106 20.228 87.5186 20.044C87.9266 19.852 88.3986 19.756 88.9346 19.756C89.6386 19.756 90.2266 19.912 90.6986 20.224C91.1786 20.528 91.5386 20.932 91.7786 21.436C92.0186 21.932 92.1386 22.468 92.1386 23.044V23.644H86.3666V22.624H91.0946L90.5786 23.128C90.5786 22.712 90.5186 22.356 90.3986 22.06C90.2786 21.764 90.0946 21.536 89.8466 21.376C89.6066 21.216 89.3026 21.136 88.9346 21.136C88.5666 21.136 88.2546 21.22 87.9986 21.388C87.7426 21.556 87.5466 21.8 87.4106 22.12C87.2826 22.432 87.2186 22.808 87.2186 23.248C87.2186 23.656 87.2826 24.02 87.4106 24.34C87.5386 24.652 87.7346 24.9 87.9986 25.084C88.2626 25.26 88.5986 25.348 89.0066 25.348C89.4146 25.348 89.7466 25.268 90.0026 25.108C90.2586 24.94 90.4226 24.736 90.4946 24.496H92.0306C91.9346 24.944 91.7506 25.336 91.4786 25.672C91.2066 26.008 90.8586 26.268 90.4346 26.452C90.0186 26.636 89.5426 26.728 89.0066 26.728ZM93.616 26.5V17.74H95.284V26.5H93.616ZM92.8 18.988V17.74H95.284V18.988H92.8Z" fill="white"/>
</g>
<defs>
<filter id="filter0_dd_123_4100" x="0.87878" y="0.404581" width="148.036" height="69.5725" filterUnits="userSpaceOnUse" color-interpolation-filters="sRGB">
<feFlood flood-opacity="0" result="BackgroundImageFix"/>
<feColorMatrix in="SourceAlpha" type="matrix" values="0 0 0 0 0 0 0 0 0 0 0 0 0 0 0 0 0 0 127 0" result="hardAlpha"/>
<feOffset dy="13.1908"/>
<feGaussianBlur stdDeviation="9.89313"/>
<feColorMatrix type="matrix" values="0 0 0 0 0.196487 0 0 0 0 0.196487 0 0 0 0 0.279476 0 0 0 0.08 0"/>
<feBlend mode="multiply" in2="BackgroundImageFix" result="effect1_dropShadow_123_4100"/>
<feColorMatrix in="SourceAlpha" type="matrix" values="0 0 0 0 0 0 0 0 0 0 0 0 0 0 0 0 0 0 127 0" result="hardAlpha"/>
<feOffset dy="9.89313"/>
<feGaussianBlur stdDeviation="4.94656"/>
<feColorMatrix type="matrix" values="0 0 0 0 0.196487 0 0 0 0 0.196487 0 0 0 0 0.279476 0 0 0 0.08 0"/>
<feBlend mode="multiply" in2="effect1_dropShadow_123_4100" result="effect2_dropShadow_123_4100"/>
<feBlend mode="normal" in="SourceGraphic" in2="effect2_dropShadow_123_4100" result="shape"/>
</filter>
</defs>
</svg>
