<svg width="149" height="71" viewBox="0 0 149 71" fill="none" xmlns="http://www.w3.org/2000/svg">
<g filter="url(#filter0_dd_123_4098)">
<rect x="20.665" y="7.5" width="108.463" height="30" rx="2" fill="#06CD9D"/>
<path d="M58.4245 27.228C57.6325 27.228 56.9525 27.088 56.3845 26.808C55.8165 26.528 55.3525 26.164 54.9925 25.716C54.6405 25.268 54.3805 24.78 54.2125 24.252C54.0445 23.724 53.9605 23.216 53.9605 22.728V22.464C53.9605 21.92 54.0445 21.384 54.2125 20.856C54.3885 20.328 54.6565 19.848 55.0165 19.416C55.3765 18.984 55.8325 18.64 56.3845 18.384C56.9445 18.12 57.6045 17.988 58.3645 17.988C59.1565 17.988 59.8445 18.132 60.4285 18.42C61.0205 18.7 61.4925 19.1 61.8445 19.62C62.1965 20.132 62.4085 20.732 62.4805 21.42H60.7645C60.7005 21.02 60.5565 20.684 60.3325 20.412C60.1165 20.132 59.8405 19.924 59.5045 19.788C59.1685 19.644 58.7885 19.572 58.3645 19.572C57.9325 19.572 57.5485 19.648 57.2125 19.8C56.8765 19.944 56.5965 20.152 56.3725 20.424C56.1485 20.696 55.9765 21.016 55.8565 21.384C55.7445 21.752 55.6885 22.16 55.6885 22.608C55.6885 23.04 55.7445 23.44 55.8565 23.808C55.9765 24.176 56.1525 24.5 56.3845 24.78C56.6165 25.052 56.9005 25.264 57.2365 25.416C57.5805 25.568 57.9765 25.644 58.4245 25.644C59.0805 25.644 59.6325 25.484 60.0805 25.164C60.5365 24.836 60.8125 24.38 60.9085 23.796H62.6245C62.5445 24.42 62.3325 24.992 61.9885 25.512C61.6445 26.032 61.1725 26.448 60.5725 26.76C59.9725 27.072 59.2565 27.228 58.4245 27.228ZM67.8784 27V25.068H67.6024V22.92C67.6024 22.544 67.5104 22.264 67.3264 22.08C67.1424 21.896 66.8584 21.804 66.4744 21.804C66.2744 21.804 66.0344 21.808 65.7544 21.816C65.4744 21.824 65.1904 21.836 64.9024 21.852C64.6224 21.86 64.3704 21.872 64.1464 21.888V20.472C64.3304 20.456 64.5384 20.44 64.7704 20.424C65.0024 20.408 65.2384 20.4 65.4784 20.4C65.7264 20.392 65.9584 20.388 66.1744 20.388C66.8464 20.388 67.4024 20.476 67.8424 20.652C68.2904 20.828 68.6264 21.104 68.8504 21.48C69.0824 21.856 69.1984 22.348 69.1984 22.956V27H67.8784ZM65.7784 27.168C65.3064 27.168 64.8904 27.084 64.5304 26.916C64.1784 26.748 63.9024 26.508 63.7024 26.196C63.5104 25.884 63.4144 25.508 63.4144 25.068C63.4144 24.588 63.5304 24.196 63.7624 23.892C64.0024 23.588 64.3344 23.36 64.7584 23.208C65.1904 23.056 65.6944 22.98 66.2704 22.98H67.7824V23.976H66.2464C65.8624 23.976 65.5664 24.072 65.3584 24.264C65.1584 24.448 65.0584 24.688 65.0584 24.984C65.0584 25.28 65.1584 25.52 65.3584 25.704C65.5664 25.888 65.8624 25.98 66.2464 25.98C66.4784 25.98 66.6904 25.94 66.8824 25.86C67.0824 25.772 67.2464 25.628 67.3744 25.428C67.5104 25.22 67.5864 24.94 67.6024 24.588L68.0104 25.056C67.9704 25.512 67.8584 25.896 67.6744 26.208C67.4984 26.52 67.2504 26.76 66.9304 26.928C66.6184 27.088 66.2344 27.168 65.7784 27.168ZM70.9851 27V20.484H72.3051V23.28H72.1851C72.1851 22.616 72.2731 22.064 72.4491 21.624C72.6251 21.176 72.8851 20.84 73.2291 20.616C73.5811 20.392 74.0171 20.28 74.5371 20.28H74.6091C75.3851 20.28 75.9731 20.532 76.3731 21.036C76.7731 21.532 76.9731 22.276 76.9731 23.268V27H75.3051V23.124C75.3051 22.724 75.1891 22.4 74.9571 22.152C74.7331 21.904 74.4211 21.78 74.0211 21.78C73.6131 21.78 73.2811 21.908 73.0251 22.164C72.7771 22.412 72.6531 22.748 72.6531 23.172V27H70.9851ZM81.6584 27.228C81.0904 27.228 80.5984 27.132 80.1824 26.94C79.7744 26.748 79.4304 26.492 79.1504 26.172C78.8784 25.852 78.6744 25.492 78.5384 25.092C78.4024 24.692 78.3344 24.284 78.3344 23.868V23.64C78.3344 23.2 78.4024 22.78 78.5384 22.38C78.6824 21.972 78.8944 21.612 79.1744 21.3C79.4544 20.98 79.7984 20.728 80.2064 20.544C80.6224 20.352 81.1024 20.256 81.6464 20.256C82.2144 20.256 82.7224 20.368 83.1704 20.592C83.6184 20.808 83.9744 21.112 84.2384 21.504C84.5104 21.896 84.6624 22.352 84.6944 22.872H83.0744C83.0344 22.536 82.8904 22.256 82.6424 22.032C82.4024 21.808 82.0704 21.696 81.6464 21.696C81.2784 21.696 80.9704 21.784 80.7224 21.96C80.4824 22.136 80.3024 22.38 80.1824 22.692C80.0624 22.996 80.0024 23.348 80.0024 23.748C80.0024 24.132 80.0584 24.48 80.1704 24.792C80.2904 25.104 80.4704 25.348 80.7104 25.524C80.9584 25.7 81.2744 25.788 81.6584 25.788C81.9464 25.788 82.1944 25.736 82.4024 25.632C82.6104 25.528 82.7744 25.384 82.8944 25.2C83.0224 25.016 83.1024 24.808 83.1344 24.576H84.7544C84.7224 25.104 84.5664 25.568 84.2864 25.968C84.0144 26.36 83.6504 26.668 83.1944 26.892C82.7464 27.116 82.2344 27.228 81.6584 27.228ZM89.0066 27.228C88.4466 27.228 87.9546 27.132 87.5306 26.94C87.1146 26.748 86.7666 26.492 86.4866 26.172C86.2146 25.844 86.0066 25.48 85.8626 25.08C85.7266 24.68 85.6586 24.272 85.6586 23.856V23.628C85.6586 23.196 85.7266 22.78 85.8626 22.38C86.0066 21.972 86.2146 21.612 86.4866 21.3C86.7666 20.98 87.1106 20.728 87.5186 20.544C87.9266 20.352 88.3986 20.256 88.9346 20.256C89.6386 20.256 90.2266 20.412 90.6986 20.724C91.1786 21.028 91.5386 21.432 91.7786 21.936C92.0186 22.432 92.1386 22.968 92.1386 23.544V24.144H86.3666V23.124H91.0946L90.5786 23.628C90.5786 23.212 90.5186 22.856 90.3986 22.56C90.2786 22.264 90.0946 22.036 89.8466 21.876C89.6066 21.716 89.3026 21.636 88.9346 21.636C88.5666 21.636 88.2546 21.72 87.9986 21.888C87.7426 22.056 87.5466 22.3 87.4106 22.62C87.2826 22.932 87.2186 23.308 87.2186 23.748C87.2186 24.156 87.2826 24.52 87.4106 24.84C87.5386 25.152 87.7346 25.4 87.9986 25.584C88.2626 25.76 88.5986 25.848 89.0066 25.848C89.4146 25.848 89.7466 25.768 90.0026 25.608C90.2586 25.44 90.4226 25.236 90.4946 24.996H92.0306C91.9346 25.444 91.7506 25.836 91.4786 26.172C91.2066 26.508 90.8586 26.768 90.4346 26.952C90.0186 27.136 89.5426 27.228 89.0066 27.228ZM93.616 27V18.24H95.284V27H93.616ZM92.8 19.488V18.24H95.284V19.488H92.8Z" fill="white"/>
</g>
<defs>
<filter id="filter0_dd_123_4098" x="0.87878" y="0.904581" width="148.036" height="69.5725" filterUnits="userSpaceOnUse" color-interpolation-filters="sRGB">
<feFlood flood-opacity="0" result="BackgroundImageFix"/>
<feColorMatrix in="SourceAlpha" type="matrix" values="0 0 0 0 0 0 0 0 0 0 0 0 0 0 0 0 0 0 127 0" result="hardAlpha"/>
<feOffset dy="13.1908"/>
<feGaussianBlur stdDeviation="9.89313"/>
<feColorMatrix type="matrix" values="0 0 0 0 0.196487 0 0 0 0 0.196487 0 0 0 0 0.279476 0 0 0 0.08 0"/>
<feBlend mode="multiply" in2="BackgroundImageFix" result="effect1_dropShadow_123_4098"/>
<feColorMatrix in="SourceAlpha" type="matrix" values="0 0 0 0 0 0 0 0 0 0 0 0 0 0 0 0 0 0 127 0" result="hardAlpha"/>
<feOffset dy="9.89313"/>
<feGaussianBlur stdDeviation="4.94656"/>
<feColorMatrix type="matrix" values="0 0 0 0 0.196487 0 0 0 0 0.196487 0 0 0 0 0.279476 0 0 0 0.08 0"/>
<feBlend mode="multiply" in2="effect1_dropShadow_123_4098" result="effect2_dropShadow_123_4098"/>
<feBlend mode="normal" in="SourceGraphic" in2="effect2_dropShadow_123_4098" result="shape"/>
</filter>
</defs>
</svg>
